<svg width="100" height="100" xmlns="http://www.w3.org/2000/svg">

 <g>
  <title>background</title>
  <rect fill="none" id="canvas_background" height="402" width="582" y="-1" x="-1"/>
 </g>
 <g>
  <title>Layer 1</title>
  <path fill="#1F68B3" stroke="null" id="svg_1" d="m50.500001,2.916998c-26.278212,0 -47.582995,21.304787 -47.582995,47.583003s21.304783,47.583003 47.582995,47.583003s47.582995,-21.304787 47.582995,-47.583003s-21.304783,-47.583003 -47.582995,-47.583003zm20.752044,63.169259c1.426893,1.426894 1.426893,3.738899 0,5.165793c-0.713447,0.713447 -1.648476,1.07017 -2.582287,1.07017s-1.868841,-0.356723 -2.582287,-1.068953l-15.58747,-15.587473l-15.58747,15.585038c-0.713447,0.712229 -1.648476,1.068953 -2.582287,1.068953s-1.868841,-0.356723 -2.582287,-1.07017c-1.426893,-1.425676 -1.426893,-3.738899 0,-5.165793l15.586252,-15.58382l-15.586252,-15.586255c-1.426893,-1.426894 -1.426893,-3.738899 0,-5.165793c1.426893,-1.426894 3.737681,-1.425676 5.164574,0l15.58747,15.586255l15.58747,-15.587473c1.426893,-1.425676 3.737681,-1.425676 5.164574,0c1.426893,1.425676 1.426893,3.738899 0,5.165793l-15.58747,15.587473l15.58747,15.586255z"/>
 </g>
</svg>