<svg width='200' height='200' fill="#1F68B3" xmlns="http://www.w3.org/2000/svg" xmlns:xlink="http://www.w3.org/1999/xlink" version="1.1" x="0px" y="0px" viewBox="0 0 100 100" enable-background="new 0 0 100 100" xml:space="preserve"><path d="M43.681,30.206c-11.922,0-21.587,9.596-21.587,21.433c0,11.84,9.665,21.436,21.587,21.436  c11.919,0,21.585-9.596,21.585-21.436C65.266,39.802,55.6,30.206,43.681,30.206z M50.852,42.654c2.394,0,4.336,1.93,4.336,4.308  s-1.942,4.304-4.336,4.304c-2.396,0-4.337-1.926-4.337-4.304S48.456,42.654,50.852,42.654z M36.305,42.654  c2.391,0,4.336,1.93,4.336,4.308s-1.945,4.304-4.336,4.304c-2.395,0-4.336-1.926-4.336-4.304S33.91,42.654,36.305,42.654z   M58.975,58h-29.38l0,0H58.975L58.975,58z"/><path d="M67.688,56.621c0.346,0.105,0.707,0.172,1.098,0.172c0.496,0,0.958-0.086,1.385-0.261c0.429-0.173,0.805-0.415,1.125-0.724  c0.324-0.307,0.572-0.673,0.755-1.094c0.179-0.424,0.272-0.874,0.272-1.358c0-0.48-0.094-0.928-0.272-1.342  c-0.183-0.417-0.431-0.778-0.755-1.087c-0.32-0.306-0.696-0.552-1.125-0.73c-0.427-0.185-0.889-0.274-1.385-0.274  c-0.244,0-0.479,0.026-0.705,0.067c0.032,0.545,0.051,1.094,0.051,1.648C68.131,53.338,67.974,55.002,67.688,56.621z"/><path d="M77.333,31.115c-0.382-0.877-0.929-1.63-1.638-2.251c-0.708-0.625-1.569-1.1-2.582-1.438  c-1.012-0.332-2.145-0.501-3.404-0.501c-0.898,0-1.732,0.08-2.5,0.232c-0.771,0.153-1.492,0.367-2.158,0.642  c-0.67,0.273-1.298,0.592-1.879,0.956c-0.582,0.36-1.121,0.749-1.618,1.16l1.646,2.531c0.282,0.498,0.709,0.746,1.284,0.746  c0.258,0,0.512-0.076,0.766-0.221c0.256-0.149,0.553-0.312,0.893-0.49c0.344-0.186,0.754-0.348,1.228-0.497  c0.477-0.146,1.067-0.217,1.776-0.217c0.926,0,1.652,0.235,2.181,0.714c0.526,0.472,0.79,1.112,0.79,1.913  c0,0.672-0.14,1.249-0.42,1.74c-0.281,0.488-0.635,0.934-1.063,1.323c-0.431,0.398-0.892,0.765-1.386,1.105  c-0.497,0.345-0.958,0.696-1.387,1.065c-0.428,0.37-0.784,0.775-1.065,1.218c-0.197,0.306-0.32-0.899-0.379-0.517  C66.914,41.692,67.306,43,67.592,43h3.523l0.563-1.256c0.082-0.415,0.292-0.012,0.633-0.347c0.342-0.335,0.743-0.288,1.203-0.637  c0.466-0.35,0.953-0.525,1.469-0.92c0.514-0.396,0.99-0.77,1.425-1.317c0.436-0.549,0.796-1.149,1.075-1.882  c0.281-0.737,0.424-1.598,0.424-2.624C77.906,32.941,77.713,31.992,77.333,31.115z"/></svg>