<svg fill="#2468B3" xmlns="http://www.w3.org/2000/svg" xmlns:xlink="http://www.w3.org/1999/xlink" version="1.1" x="0px" y="0px" viewBox="0 0 52 52" enable-background="new 0 0 52 52" xml:space="preserve"><g><path d="M42.3636475,25.1647949V7.8615723H9.6363525v17.3032227L26,35.4804688L42.3636475,25.1647949z M16.5866699,20.4069824   c0-5.4140625,4.2229614-9.8182373,9.4133301-9.8182373s9.4133301,4.4041748,9.4133301,9.8182373   c0,0.1661377-0.0095825,0.3525391-0.0276489,0.5507813c-0.2077637,2.2712402-1.4627686,4.2390137-3.355835,5.2606201   c-1.3902588,0.7510986-2.4428711,0.5762939-3.079895,0.2972412c-0.5891113-0.2570801-1.0144653-0.6762695-1.3223877-1.1013184   c-0.7587891,0.4876709-1.5705566,0.7614746-2.4137573,0.7614746c-0.5103149,0-1.0291748-0.0915527-1.5501099-0.2758789   c-1.7109375-0.6062012-3.0532837-2.4875488-3.234375-3.8651123c-0.3963013-3.0255127,0.6807861-5.2403564,3.2003174-6.5848389   c1.9058838-1.0131836,5.0411987-0.4261475,5.3927612-0.355835l0.9779663,0.1959229l-0.8962402,8.3006592   c0.1095581,0.2889404,0.3528442,0.7694092,0.7236328,0.9273682c0.2802124,0.1203613,0.6712036,0.046875,1.1665649-0.2194824   c1.2474976-0.6743164,2.0773926-1.9974365,2.2180176-3.5400391c0.0117188-0.1268311,0.019165-0.2451172,0.019165-0.3515625   c0-4.2102051-3.2439575-7.6364746-7.2315063-7.6364746s-7.2315063,3.4262695-7.2315063,7.6364746   S22.0124512,28.043335,26,28.043335c0.9630737,0,1.8973999-0.1960449,2.7752075-0.5827637l0.8800049,1.99646   C28.4971313,29.9663086,27.2677612,30.2250977,26,30.2250977C20.8096313,30.2250977,16.5866699,25.8210449,16.5866699,20.4069824z"></path><polygon points="26,2.1384277 21.3232422,5.6796875 30.6759033,5.6796875  "></polygon><polygon points="7.4545288,16.9599609 2.7653809,20.833374 7.4545288,23.7894287  "></polygon><polygon points="2,22.9294434 2,48.5256348 18.8642578,33.5618896  "></polygon><path d="M24.6555176,17.3759766c-1.7268677,0.9205322-2.3447876,2.2298584-2.0635376,4.3754883   c0.079895,0.6018066,0.9172363,1.7790527,1.800415,2.0922852c0.9300537,0.328125,1.7503662,0.1311035,2.5568237-0.6264648   l0.6615601-6.1225586c-0.3291626-0.0307617-0.6807251-0.0500488-1.0291138-0.0500488   C25.8412476,17.0446777,25.1157837,17.1311035,24.6555176,17.3759766z"></path><polygon points="44.5454712,16.9614258 44.5454712,23.7894287 49.2338257,20.8338623  "></polygon><polygon points="33.1351318,33.5622559 50,48.5256348 50,22.9294434  "></polygon><path d="M26,38.060791l-5.2133789-3.2868652L3.7827148,49.8615723h44.4345093L31.2127686,34.774292L26,38.060791z    M36.9091187,47.6796875H15.0908813v-2.1818848h21.8182373V47.6796875z"></path></g></svg>