<svg width='200' height='200' fill="#1F68B3" xmlns="http://www.w3.org/2000/svg" xmlns:xlink="http://www.w3.org/1999/xlink" version="1.1" x="0px" y="0px" viewBox="0 0 100 100" style="enable-background:new 0 0 100 100;" xml:space="preserve"><g><path d="M69.2,44.5c-2.3,0-5,1-7.6,2.7c2.2,1.7,4.1,4,6,6.7c3,4.6,5.1,10.2,6,15.8c0.3,2,0.5,3.9,0.5,5.8c0,1-0.1,2-0.2,2.7   c4.9-0.4,9.2-1.6,11.2-3.6c1.3-1.3,2.1-2.9,2.1-4.9C87.1,54.1,76.6,44.5,69.2,44.5z"/><path d="M63.5,38.1c1.6,1.2,3.5,1.8,5.6,1.8c2.7,0,5.1-1.1,6.8-2.9c0.2-0.2,0.5-0.6,0.8-1c1.1-1.6,1.8-3.4,1.8-5.5   c0-5.2-4.3-9.5-9.5-9.5c-2.7,0-5,1.1-6.7,2.8c1.5,2.4,2.3,5.3,2.3,8.2C64.8,34.2,64.3,36.1,63.5,38.1z"/><path d="M59,84.5c1.9-0.4,3.6-0.9,5.1-1.5c1.3-0.6,2.3-1.2,3.2-2c0.5-0.7,1.1-1.6,1.5-2.4c0.4-0.9,0.6-1.8,0.6-2.9   c0-0.8,0-1.5-0.1-2.3L59,84.5z"/><path d="M67.6,64.4L48,85.2c2.1,0.1,4.2,0,6.3-0.2l14.5-15.7C68.6,67.7,68.1,66,67.6,64.4z"/><path d="M64,57L38.8,84.1c1.7,0.4,3.5,0.7,5.4,0.9l22.2-23.7C65.7,59.8,64.9,58.3,64,57z"/><path d="M58.9,51.4L31.6,80.7c0.1,0.1,0.2,0.2,0.4,0.4c0.9,0.7,2,1.5,3.3,2c0.1,0,0.2,0.1,0.3,0.1l26.6-28.5   C61.1,53.4,60,52.3,58.9,51.4z"/><path d="M49.3,42.1c5.7,0,10.4-4.7,10.4-10.4c0-0.9-0.1-1.8-0.3-2.6L47.4,42C48,42.1,48.7,42.1,49.3,42.1z"/><path d="M44.3,40.8l13.8-14.7l0,0c-0.8-1.3-2-2.4-3.3-3.2l-14,14.9C41.8,39,43,40.1,44.3,40.8z"/><path d="M54,48.5c-0.7-0.3-1.4-0.5-2.1-0.7l-22,23.4c-0.2,1.4-0.3,2.9-0.3,4.4c0,0.8,0.1,1.6,0.4,2.3l26.4-28.3   C55.6,49.2,54.8,48.8,54,48.5z"/><path d="M51.9,21.7c-0.8-0.2-1.7-0.3-2.5-0.3c-5.8,0.1-10.4,4.8-10.4,10.4c0,1.1,0.2,2.2,0.5,3.2L51.9,21.7z"/><path d="M47.9,47.6c-0.8,0.1-1.5,0.3-2.2,0.6c-1.3,0.5-2.7,1.1-4,2.1c-4.4,2.9-8.5,8.2-10.6,15.3L47.9,47.6z"/><path d="M23.5,37.2c1.7,1.8,4.2,2.9,6.8,2.9c1.8,0,3.5-0.5,4.9-1.5c-0.9-2.1-1.3-4.3-1.3-6.6c0-3.3,1-6.2,2.7-8.7   c-1.7-1.5-3.8-2.3-6.2-2.3c-5.3,0-9.5,4.3-9.5,9.5c0,2.1,0.6,3.9,1.8,5.5C23,36.5,23.3,36.9,23.5,37.2z"/><path d="M31,53.9c2-2.9,4-5.3,6.5-7.1c-2.3-1.6-4.9-2.5-7.1-2.5c-7.5,0.1-17.9,9.8-17.9,25.4c0,2,0.6,3.5,2.1,4.9   c2,1.8,5.9,3.1,10.3,3.6c-0.2-0.9-0.4-1.7-0.4-2.7C24.5,68.2,27,60.1,31,53.9z"/></g></svg>