<?xml version="1.0" encoding="UTF-8"?>
<svg width="100pt" height="100pt" version="1.1" viewBox="0 0 100 100" xmlns="http://www.w3.org/2000/svg">
 <g>
  <path d="m43.68 30.207c-11.922 0-21.586 9.5977-21.586 21.434 0 11.84 9.6641 21.438 21.586 21.438 11.918 0 21.586-9.5977 21.586-21.438s-9.6641-21.434-21.586-21.434zm7.1719 12.445c2.3945 0 4.3359 1.9297 4.3359 4.3086 0 2.3789-1.9414 4.3047-4.3359 4.3047-2.3945 0-4.3359-1.9258-4.3359-4.3047 0-2.375 1.9414-4.3086 4.3359-4.3086zm-14.547 0c2.3906 0 4.3359 1.9297 4.3359 4.3086 0 2.3789-1.9453 4.3047-4.3359 4.3047-2.3945 0-4.3359-1.9258-4.3359-4.3047 0-2.375 1.9414-4.3086 4.3359-4.3086zm22.672 15.348h-29.379z"/>
  <path d="m67.688 56.621c0.34766 0.10547 0.70703 0.17188 1.0977 0.17188 0.49609 0 0.95703-0.085938 1.3867-0.26172 0.42969-0.17188 0.80469-0.41406 1.125-0.72266 0.32422-0.30859 0.57031-0.67188 0.75391-1.0938 0.17969-0.42578 0.27344-0.875 0.27344-1.3594 0-0.48047-0.09375-0.92969-0.27344-1.3438-0.18359-0.41797-0.42969-0.77734-0.75391-1.0859-0.32031-0.30469-0.69531-0.55078-1.125-0.73047-0.42578-0.18359-0.89062-0.27344-1.3867-0.27344-0.24219 0-0.48047 0.027344-0.70312 0.066406 0.03125 0.54688 0.050781 1.0938 0.050781 1.6484 0 1.7031-0.16016 3.3672-0.44531 4.9844z"/>
  <path d="m77.332 31.113c-0.38281-0.87891-0.92969-1.6289-1.6367-2.25-0.70703-0.625-1.5703-1.1016-2.582-1.4375-1.0117-0.33203-2.1445-0.5-3.4023-0.5-0.89844 0-1.7305 0.078125-2.5 0.23047-0.76953 0.15234-1.4922 0.36719-2.1562 0.64062-0.67188 0.27344-1.2969 0.59375-1.8789 0.95703-0.58203 0.35938-1.1211 0.75-1.6172 1.1602l1.6445 2.5312c0.28125 0.49609 0.71094 0.74609 1.2852 0.74609 0.25781 0 0.51172-0.074218 0.76562-0.22266 0.25781-0.14844 0.55469-0.3125 0.89453-0.48828 0.34375-0.1875 0.75391-0.34766 1.2266-0.49609 0.47656-0.14453 1.0664-0.21875 1.7773-0.21875 0.92578 0 1.6523 0.23438 2.1797 0.71484 0.52734 0.47266 0.78906 1.1133 0.78906 1.9141 0 0.67188-0.14062 1.25-0.42188 1.7383-0.28125 0.48828-0.63672 0.93359-1.0625 1.3242-0.42969 0.39844-0.89062 0.76562-1.3867 1.1055-0.49609 0.34375-0.95703 0.69531-1.3867 1.0664-0.42969 0.37109-0.78516 0.77344-1.0664 1.2188-0.19531 0.30469-0.32031-0.89844-0.37891-0.51562 0.49609 1.3594 0.88672 2.668 1.1758 2.668h3.5234l0.5625-1.2578c0.082031-0.41406 0.29297-0.011719 0.63281-0.34766 0.34375-0.33594 0.74219-0.28906 1.2031-0.63672 0.46484-0.35156 0.95312-0.52344 1.4688-0.92187 0.51562-0.39453 0.98828-0.76953 1.4258-1.3164 0.4375-0.55078 0.79688-1.1484 1.0742-1.8828 0.28125-0.73828 0.42578-1.5977 0.42578-2.625-0.003906-1.0703-0.19531-2.0195-0.57812-2.8984z"/>
 </g>
</svg>
