<svg fill="#FFFFFF" xmlns="http://www.w3.org/2000/svg" xmlns:xlink="http://www.w3.org/1999/xlink" version="1.1" x="0px" y="0px" viewBox="0 0 512 512" enable-background="new 0 0 512 512" xml:space="preserve"><g><g><g><g><path d="M228.003,216.004h-55.994c-6.616,0-11.999-5.382-11.999-11.999v-15.998c0-6.617,5.382-11.999,11.999-11.999h55.994      c6.616,0,11.999,5.382,11.999,11.999v15.998C240.002,210.622,234.619,216.004,228.003,216.004z M172.009,184.008      c-2.207,0-3.999,1.793-3.999,4v15.998c0,2.207,1.792,4,3.999,4h55.994c2.207,0,4-1.792,4-4v-15.998c0-2.207-1.792-4-4-4H172.009      z"></path></g></g><g><g><path d="M339.99,216.004h-55.993c-6.616,0-11.999-5.382-11.999-11.999v-15.998c0-6.617,5.383-11.999,11.999-11.999h55.993      c6.617,0,11.999,5.382,11.999,11.999v15.998C351.989,210.622,346.607,216.004,339.99,216.004z M283.997,184.008      c-2.203,0-4,1.793-4,4v15.998c0,2.207,1.797,4,4,4h55.993c2.203,0,4-1.792,4-4v-15.998c0-2.207-1.797-4-4-4H283.997z"></path></g></g><g><g><path d="M275.998,200.248h-40.004c-2.211,0-4-1.789-4-3.999c0-2.211,1.789-4,4-4h40.004c2.211,0,3.999,1.789,3.999,4      C279.997,198.459,278.209,200.248,275.998,200.248z"></path></g></g></g><g><g><g><g><path d="M204.603,503.974c-1.453,0-2.855-0.797-3.562-2.172l-24.591-47.995c-0.582-1.141-0.59-2.477-0.02-3.616l6.995-13.991       l-38.805-62.087c-0.988-1.586-0.754-3.641,0.562-4.953l31.997-31.996c1.562-1.562,4.093-1.562,5.655,0s1.562,4.094,0,5.656       l-29.747,29.746l38.309,61.29c0.738,1.188,0.809,2.672,0.188,3.914l-7.093,14.186l23.665,46.19       c1.008,1.969,0.23,4.375-1.734,5.391C205.837,503.833,205.216,503.974,204.603,503.974z"></path></g></g><g><g><path d="M228.003,503.974c-1.723,0-3.312-1.117-3.832-2.852L176.177,341.14c-0.633-2.117,0.566-4.344,2.683-4.977       c2.117-0.641,4.347,0.562,4.98,2.68l47.995,159.982c0.633,2.117-0.566,4.344-2.683,4.977       C228.769,503.919,228.382,503.974,228.003,503.974z"></path></g></g><g><g><path d="M307.4,503.974c-0.617,0-1.234-0.141-1.828-0.438c-1.961-1.016-2.733-3.422-1.734-5.391l23.67-46.19l-7.093-14.186       c-0.625-1.242-0.547-2.727,0.188-3.914l38.308-61.29l-29.746-29.746c-1.562-1.562-1.562-4.094,0-5.656s4.093-1.562,5.655,0       l31.997,31.996c1.312,1.312,1.546,3.367,0.562,4.953l-38.809,62.087l6.999,13.991c0.57,1.14,0.562,2.476-0.016,3.616       l-24.591,47.995C310.252,503.177,308.854,503.974,307.4,503.974z"></path></g></g><g><g><path d="M283.997,503.974c-0.375,0-0.766-0.055-1.148-0.172c-2.117-0.633-3.32-2.859-2.68-4.977l47.995-159.982       c0.625-2.117,2.852-3.32,4.976-2.68c2.117,0.633,3.32,2.859,2.68,4.977l-47.995,159.982       C287.309,502.856,285.715,503.974,283.997,503.974z"></path></g></g><g><g><path d="M256,399.984c-45.163,0-54.639-16.342-55.572-18.209c-0.988-1.977-0.188-4.382,1.789-5.366       c1.953-0.969,4.312-0.203,5.327,1.711c0.23,0.383,8.636,13.865,48.456,13.865c40.199,0,48.385-13.732,48.463-13.873       c1.062-1.891,3.461-2.641,5.383-1.609c1.914,1.016,2.695,3.327,1.727,5.272C310.635,383.643,301.167,399.984,256,399.984z"></path></g></g><g><g><g><path d="M256,415.982c-23.107,0-33.051-4.124-43.581-8.491l-1.961-0.805c-2.043-0.844-3.016-3.187-2.176-5.226        c0.844-2.039,3.18-3.008,5.222-2.18l1.98,0.828c10.194,4.218,19.001,7.874,40.515,7.874s30.309-3.648,40.495-7.874        l1.977-0.812c2.055-0.828,4.383,0.125,5.226,2.172c0.836,2.047-0.141,4.382-2.179,5.218l-1.953,0.812        C289.043,411.858,279.099,415.982,256,415.982z"></path></g></g></g></g><g><g><g><path d="M256,359.997c-54.795,0-134.024-79.312-143.094-163.561c-0.238-2.199,1.352-4.172,3.546-4.406       c2.281-0.195,4.175,1.355,4.406,3.547c4.074,37.832,23.438,77.796,53.139,109.652c26.899,28.84,58.322,46.768,82.003,46.768       c2.211,0,4,1.789,4,4S258.211,359.997,256,359.997z"></path></g></g><g><g><path d="M475.976,511.972H36.024c-2.211,0-4-1.788-4-3.999v-47.995c0-34.324,17.783-47.479,50.592-59.743       c5.148-1.922,11.343-3.89,18.084-6.03c11.894-3.781,25.372-8.062,37.688-13.577c2.016-0.906,4.382,0,5.285,2.016       c0.902,2.016,0,4.382-2.02,5.28c-12.729,5.703-26.435,10.062-38.527,13.905c-6.604,2.093-12.671,4.015-17.709,5.905       c-30.755,11.499-45.394,22.248-45.394,52.244v43.996h431.953v-43.996c0-29.996-14.639-40.745-45.401-52.244       c-5.03-1.891-11.093-3.812-17.693-5.905c-12.093-3.844-25.802-8.202-38.527-13.905c-2.023-0.906-2.921-3.265-2.023-5.28       c0.906-2.016,3.266-2.922,5.289-2.016c12.319,5.515,25.794,9.796,37.69,13.577c6.734,2.141,12.929,4.108,18.068,6.03       c32.817,12.265,50.597,25.419,50.597,59.743v47.995C479.976,510.184,478.187,511.972,475.976,511.972z"></path></g></g><g><g><path d="M100.017,383.986c-2.21,0-3.999-1.789-3.999-4V148.012c0-2.21,1.789-4,3.999-4c2.211,0,4,1.789,4,4v231.975       C104.017,382.197,102.228,383.986,100.017,383.986z"></path></g></g><g><g><path d="M100.013,188.008c-1.859,0-3.522-1.301-3.913-3.191c-0.445-2.164,0.945-4.281,3.108-4.726       c32.794-6.765,66.872-18.767,101.294-35.668c1.992-0.964,4.378-0.152,5.351,1.828c0.972,1.98,0.156,4.379-1.828,5.352       c-35.024,17.201-69.747,29.422-103.2,36.324C100.552,187.98,100.282,188.008,100.013,188.008z"></path></g></g><g><g><path d="M256,359.997c-2.211,0-4-1.789-4-4s1.789-4,4-4c23.685,0,55.104-17.928,82.007-46.768       c29.7-31.856,49.057-71.82,53.135-109.652c0.234-2.195,2.093-3.785,4.405-3.547c2.195,0.234,3.781,2.207,3.547,4.406       C390.024,280.685,310.791,359.997,256,359.997z"></path></g></g><g><g><path d="M411.982,383.986c-2.21,0-3.999-1.789-3.999-4V148.012c0-2.21,1.789-4,3.999-4c2.211,0,4,1.789,4,4v231.975       C415.982,382.197,414.193,383.986,411.982,383.986z"></path></g></g><g><g><path d="M411.982,188.008c-0.266,0-0.531-0.027-0.812-0.082c-33.457-6.906-68.18-19.123-103.191-36.324       c-1.984-0.973-2.805-3.371-1.828-5.352c0.969-1.984,3.359-2.808,5.344-1.828c34.418,16.901,68.492,28.903,101.301,35.668       c2.156,0.445,3.547,2.562,3.109,4.726C415.514,186.707,413.842,188.008,411.982,188.008z"></path></g></g></g><g><g><g><path d="M100.017,136.013c-2.21,0-3.999-1.789-3.999-4V52.022c0-2.211,1.789-4,3.999-4c2.211,0,4,1.789,4,4v79.991       C104.017,134.225,102.228,136.013,100.017,136.013z"></path></g></g><g><g><path d="M363.988,8.027H146.34c-2.211,0-4-1.789-4-4c0-2.21,1.789-3.999,4-3.999h217.648c2.211,0,4,1.789,4,3.999       C367.988,6.238,366.199,8.027,363.988,8.027z"></path></g></g><g><g><path d="M411.982,136.013c-2.21,0-3.999-1.789-3.999-4V52.022c0-2.211,1.789-4,3.999-4c2.211,0,4,1.789,4,4v79.991       C415.982,134.225,414.193,136.013,411.982,136.013z"></path></g></g><g><g><path d="M411.982,136.013H100.017c-2.21,0-3.999-1.789-3.999-4s1.789-4,3.999-4h311.966c2.211,0,4,1.789,4,4       S414.193,136.013,411.982,136.013z"></path></g></g><g><g><path d="M100.017,56.022c-2.21,0-3.999-1.789-3.999-4c0-28.669,23.325-51.994,51.994-51.994c2.211,0,4,1.789,4,3.999       c0,2.211-1.789,4-4,4c-24.259,0-43.995,19.736-43.995,43.995C104.017,54.233,102.228,56.022,100.017,56.022z"></path></g></g><g><g><path d="M411.99,56.022c-2.21,0-3.999-1.789-3.999-4c0-24.259-19.74-43.995-43.995-43.995c-2.211,0-4-1.789-4-4       c0-2.21,1.789-3.999,4-3.999c28.669,0,51.994,23.325,51.994,51.994C415.99,54.233,414.201,56.022,411.99,56.022z"></path></g></g></g><g><g><path d="M256.004,96.018c-1.059,0-2.078-0.422-2.828-1.172l-23.196-23.192c-7.952-7.96-7.952-20.904,0-28.856      c6.827-6.827,18.252-7.765,26.024-2.367c7.761-5.39,19.197-4.464,26.024,2.367c3.843,3.855,5.968,8.976,5.968,14.428      c0,5.453-2.125,10.573-5.976,14.429l-23.188,23.192C258.082,95.596,257.066,96.018,256.004,96.018z M244.407,44.82      c-3.316,0-6.429,1.289-8.772,3.632c-4.835,4.836-4.831,12.706,0.004,17.545l20.365,20.365l20.361-20.365      c2.343-2.343,3.632-5.456,3.632-8.772c0-3.315-1.289-6.429-3.632-8.772c-4.68-4.687-12.847-4.687-17.533,0      c-1.496,1.496-4.152,1.504-5.656,0C250.833,46.109,247.72,44.82,244.407,44.82z"></path></g></g></g></g></svg>