<svg fill="#FFFFFF" xmlns="http://www.w3.org/2000/svg" xmlns:xlink="http://www.w3.org/1999/xlink" version="1.1" x="0px" y="0px" viewBox="0 0 48 48" style="enable-background:new 0 0 48 48;" xml:space="preserve"><style type="text/css">
	.st0{fill:none;stroke:#FFFFFF;stroke-linecap:round;stroke-linejoin:round;stroke-miterlimit:10;}
	.st1{fill:none;stroke:#FFFFFF;stroke-width:2;stroke-linecap:round;stroke-linejoin:round;stroke-miterlimit:10;}
</style><g><path d="M32.5,26.6H15.5c-0.6,0-1,0.4-1,1s0.4,1,1,1h17.1c0.6,0,1-0.4,1-1S33.1,26.6,32.5,26.6z"></path><path d="M32.5,20.4H15.5c-0.6,0-1,0.4-1,1s0.4,1,1,1h17.1c0.6,0,1-0.4,1-1S33.1,20.4,32.5,20.4z"></path><path d="M32.5,14.2H15.5c-0.6,0-1,0.4-1,1s0.4,1,1,1h17.1c0.6,0,1-0.4,1-1S33.1,14.2,32.5,14.2z"></path><path d="M24,0.6C10.3,0.6,0,9.1,0,20.4c0,6.8,3.7,13.1,9.9,17.1C9,39.8,6.8,43,4,45.7c-0.3,0.3-0.4,0.8-0.2,1.2   c0.2,0.4,0.6,0.6,1,0.6c6.4-0.9,10-3,14.7-6.2C34.4,43.7,48,33.6,48,20.4C48,9.1,37.7,0.6,24,0.6z M19.5,39.2   c-0.3-0.1-0.5,0-0.7,0.2c-3.9,2.6-6.8,4.5-11.2,5.5c2-2.3,3.9-5.1,4.5-7.5c0.1-0.4-0.1-0.9-0.5-1.1C5.6,32.6,2,26.7,2,20.4   C2,10.3,11.5,2.6,24,2.6s22,7.6,22,17.8C46,32.5,33.2,41.7,19.5,39.2z"></path></g></svg>