<svg fill="#FFFFFF" xmlns="http://www.w3.org/2000/svg" xmlns:xlink="http://www.w3.org/1999/xlink" version="1.1" x="0px" y="0px" viewBox="0 0 52 52" style="enable-background:new 0 0 52 52;" xml:space="preserve"><style type="text/css">
	.st0{fill:none;stroke:#FFFFFF;stroke-width:2;stroke-linejoin:round;stroke-miterlimit:10;}
	.st1{fill:none;stroke:#FFFFFF;stroke-width:2;stroke-linecap:round;stroke-linejoin:round;stroke-miterlimit:10;}
	.st2{fill:none;stroke:#FFFFFF;stroke-width:2;stroke-miterlimit:10;}
	.st3{fill:none;stroke:#FFFFFF;stroke-width:2;stroke-linecap:round;stroke-miterlimit:10;}
</style><g><rect x="20.1" y="20.5" class="st0" width="11.9" height="8.8"></rect><line class="st0" x1="26" y1="14.6" x2="26" y2="14.6"></line><line class="st0" x1="26.1" y1="24.9" x2="26.1" y2="26.9"></line><polyline class="st1" points="49,20.9 49,49 3,49 3,20.9  "></polyline><polyline class="st1" points="49,20.9 26,39 3,20.9  "></polyline><line class="st1" x1="3" y1="49" x2="20.9" y2="35"></line><line class="st1" x1="31.1" y1="35" x2="49" y2="49"></line><line class="st1" x1="43.1" y1="16.4" x2="49" y2="21"></line><polyline class="st1" points="19.8,7.9 26,3 32.3,8  "></polyline><line class="st1" x1="3" y1="21" x2="8.9" y2="16.5"></line><polyline class="st1" points="9,25.3 9,8 43,8 43,25.3  "></polyline><path class="st0" d="M30.2,20.4h-8.5v-3.2c0-2.4,1.9-4.3,4.3-4.3h0c2.4,0,4.3,1.9,4.3,4.3V20.4z"></path></g></svg>