<svg fill="#2468B3" xmlns="http://www.w3.org/2000/svg" viewBox="0 0 120 120" x="0px" y="0px"><title>Fax</title><rect x="17.5" y="40" width="12.5" height="52.5" rx="2.5" ry="2.5"></rect><rect x="50" y="17.5" width="40" height="35"></rect><path d="M92.5,42.5v10h5V55h-55V52.5h5v-10h-15V90a5,5,0,0,1-5,5H20a5,5,0,0,1-5-5V42.5H10v60H110v-60ZM45,87.5H37.5V80H45Zm0-10H37.5V70H45Zm0-10H37.5V60H45Zm10,20H47.5V80H55Zm0-10H47.5V70H55Zm0-10H47.5V60H55Zm10,20H57.5V80H65Zm0-10H57.5V70H65Zm0-10H57.5V60H65Zm41.25,20h-20V85h20Zm0-5h-20V80h20Zm0-5H68.75V60h37.5Z"></path><rect x="40" y="62.5" width="2.5" height="2.5"></rect><rect x="50" y="62.5" width="2.5" height="2.5"></rect><rect x="60" y="62.5" width="2.5" height="2.5"></rect><rect x="40" y="72.5" width="2.5" height="2.5"></rect><rect x="50" y="72.5" width="2.5" height="2.5"></rect><rect x="60" y="72.5" width="2.5" height="2.5"></rect><rect x="40" y="82.5" width="2.5" height="2.5"></rect><rect x="50" y="82.5" width="2.5" height="2.5"></rect><rect x="60" y="82.5" width="2.5" height="2.5"></rect><rect x="71.25" y="62.5" width="32.5" height="12.5"></rect></svg>