<svg fill="#1F68B3" xmlns="http://www.w3.org/2000/svg" xmlns:xlink="http://www.w3.org/1999/xlink" version="1.1" x="0px" y="0px" viewBox="0 0 95 95" enable-background="new 0 0 95 95" xml:space="preserve"><g><rect x="67.508" y="42.717" width="3.707" height="11.121"/><rect x="72.45" y="42.717" width="3.707" height="11.121"/><path d="M74.704,40.779c0,0-1.043-7.689-6.278-10.535c-5.237-2.847-2.439-9.356-2.439-9.356s-4.139,6.295-0.567,10.14   C68.991,34.873,71.284,33.816,74.704,40.779z"/><path d="M70.857,41.47c0,0-1.361-5.771-5.556-7.551c-4.193-1.778-2.548-6.937-2.548-6.937s-2.683,5.093,0.319,7.756   C66.074,37.401,67.74,36.427,70.857,41.47z"/><path d="M78.483,18.461C62.016,1.994,35.317,1.994,18.85,18.46c-16.467,16.467-16.467,43.166,0,59.633   C35.317,94.56,62.016,94.56,78.483,78.093C94.95,61.626,94.95,34.928,78.483,18.461z M73.975,22.969   c13.216,13.216,13.918,34.187,2.14,48.248L25.724,20.829C39.786,9.051,60.757,9.75,73.975,22.969z M23.358,73.586   c-13.216-13.217-13.918-34.188-2.14-48.25l50.39,50.39C57.545,87.503,36.575,86.802,23.358,73.586z"/><polygon points="20.553,42.717 20.553,53.838 48.333,53.838 37.212,42.717  "/><polygon points="65.859,53.838 65.859,42.717 49,42.717 60.122,53.838  "/></g></svg>