<svg fill="#BF2406" xmlns="http://www.w3.org/2000/svg" xmlns:xlink="http://www.w3.org/1999/xlink" version="1.1" x="0px" y="0px" viewBox="0 0 100 100" style="enable-background:new 0 0 100 100;" xml:space="preserve"><path d="M14.7,27.2L2.2,27.1L19.3,9.6l-0.1,13C19.1,25.2,17.1,27.2,14.7,27.2z M51.6,66.4c3.8,0.3,8.3,1.3,9.5,4.1  c0.4,0.9,0.7,2.4-0.5,4.4c-0.5,0.8-1.2,1.2-2.1,1.2c0,0,0,0,0,0c-0.7,0-2.9,0-8.3-6.7c-0.5,0-1.1,0-1.6,0c-0.7,0-1.1,0-1.3,0.1  c-6,0.8-12.8,3-18.6,6c-0.4,0.7-0.7,1.4-1.1,2c-0.1,0.2-0.3,0.5-0.5,0.8c-3.2,5.6-6.7,10.7-9.8,10.7c-0.7,0-1.6-0.2-2.4-1.3  c-0.7-0.9-0.9-2-0.8-3.1c0.5-3.1,4-5.9,7.1-8l0.1-0.1c1.6-1.1,3.4-2.2,5.2-3.2c2.5-5.3,4.7-12.8,6.4-19.5h-0.9  c-4.2,0-7.6-3.4-7.6-7.6V23.1c0-4.2,3.4-7.6,7.6-7.6h37.4c0-0.6,0-0.9,0-0.9c0-2.8-2.4-5.1-5.3-5.1H22.2l-0.1,13.1  c0,4.2-3.4,7.6-7.5,7.6L2,30.2l0,0v57.4c0,2.8,2.4,5.1,5.3,5.1h62c0.1-2.6,0.1-21,0.2-39.2H43.1C45.7,58,48.7,62.6,51.6,66.4z   M39.8,53.4H36c-1.4,6-3.2,12.3-5.3,17.5l0.3-0.1L30.9,71c5.2-2.3,10.9-3.9,16.1-4.7c0.2,0,0.5-0.1,0.8-0.1l-0.1-0.2l0.1,0  C45,62.3,42.3,57.8,39.8,53.4z M58.7,71.8c-0.3-0.7-1.7-1.5-4.1-2c2.1,2.3,3.4,3.1,3.9,3.2C58.7,72.5,58.8,72.1,58.7,71.8z M58.6,73  L58.6,73l0,1.5L58.6,73z M17.1,84.8c0,0.3,0,0.5,0.2,0.8c0.1,0.2,0.2,0.2,0.2,0.2c0.7,0,2.4-1,6.4-7.6c-0.3,0.2-0.6,0.4-0.8,0.6  l-0.1,0.1C19.3,81.3,17.3,83.4,17.1,84.8z M63.6,29.8h-1.2v8.4h1.2c1,0,1.7-0.1,2.1-0.3c0.4-0.2,0.8-0.6,1-1.2  c0.2-0.6,0.4-1.4,0.4-2.7c0-1.6-0.3-2.8-0.8-3.4C65.8,30.1,64.9,29.8,63.6,29.8z M48.2,29.5h-1.4v3.4H48c0.9,0,1.6-0.2,1.9-0.5  c0.4-0.3,0.6-0.7,0.6-1.2c0-0.5-0.2-0.9-0.5-1.2C49.7,29.6,49.1,29.5,48.2,29.5z M98,23.9v21.2c0,2.8-2.3,5.1-5.1,5.1H33  c-2.8,0-5.1-2.3-5.1-5.1V23.9c0-2.8,2.3-5.1,5.1-5.1h60C95.8,18.8,98,21.1,98,23.9z M55.1,31.1c0-1.5-0.4-2.7-1.3-3.5  c-0.9-0.8-2.2-1.2-3.9-1.2H42v15.4h4.8V36h2.6c1.9,0,3.4-0.4,4.3-1.3C54.6,33.8,55.1,32.6,55.1,31.1z M71.9,34c0-1.1-0.1-2.1-0.4-3  c-0.3-0.9-0.7-1.8-1.2-2.5c-0.6-0.7-1.3-1.3-2.1-1.6c-0.9-0.4-2-0.6-3.4-0.6h-7.1v15.4h7.1c0.8,0,1.8-0.1,2.8-0.4  c0.8-0.2,1.5-0.6,2.1-1.2c0.7-0.6,1.2-1.4,1.6-2.3C71.7,36.9,71.9,35.6,71.9,34z M86.2,26.3H74.4v15.4h4.8v-6.3h6v-3.1h-6v-2.7h7  V26.3z"></path></svg>