<svg fill="#1F68B3" xmlns="http://www.w3.org/2000/svg" xmlns:xlink="http://www.w3.org/1999/xlink" version="1.1" x="0px" y="0px" viewBox="0.5 24.5 24 24" enable-background="new 0.5 24.5 24 24" xml:space="preserve"><g><circle cx="6.5" cy="27.5" r="2"></circle><path d="M23.5,27.5h-10c-0.55,0-1,0.45-1,1v4h-2v1h2v4c0,0.55,0.45,1,1,1h10c0.55,0,1-0.45,1-1v-9C24.5,27.95,24.05,27.5,23.5,27.5   z M23.5,37.5h-10v-9h10V37.5z"></path><path d="M18.5,36.5c1.837-1.837,3.654-2.84,3.941-4.539c0.035-0.148,0.059-0.302,0.059-0.461c0-1.104-0.896-2-2-2s-2,0.896-2,2   c0-1.104-0.896-2-2-2s-2,0.896-2,2c0,0.159,0.023,0.313,0.059,0.461C14.846,33.66,16.663,34.663,18.5,36.5z"></path><path d="M7.5,32.5h3c0-1.1-0.9-2-2-2h-4c-1.1,0-2,0.9-2,2v6c0,1.1,0.9,2,2,2v7c0,0.55,0.45,1,1,1h2c0.55,0,1-0.45,1-1v-7   c1.1,0,2-0.9,2-2v-5h-3V32.5z"></path></g></svg>