<svg fill="#1F68B3" xmlns="http://www.w3.org/2000/svg" xmlns:xlink="http://www.w3.org/1999/xlink" version="1.1" x="0px" y="0px" viewBox="0 0 52 52" style="enable-background:new 0 0 52 52;" xml:space="preserve"><g><rect x="25.4" y="4" width="23.1" height="7.9"></rect><path d="M2.4,31.2c-2.9,2.9-3.2,7.6-0.7,10.8l11.5-11.5C10,28,5.3,28.3,2.4,31.2z"></path><path d="M3.2,43.5c3.2,2.5,7.8,2.2,10.8-0.7c2.9-2.9,3.2-7.6,0.7-10.8L3.2,43.5z"></path><path d="M13.2,8.4C10,5.9,5.3,6.2,2.4,9.1s-3.2,7.6-0.7,10.8L13.2,8.4z"></path><path d="M3.2,21.4c3.2,2.5,7.8,2.2,10.8-0.7c2.9-2.9,3.2-7.6,0.7-10.8L3.2,21.4z"></path><path d="M38.4,30.2V26h-2.8v4.3c0,0.6-0.5,1.1-1.1,1.1h-4.3v2.8h4.3c0.6,0,1.1,0.5,1.1,1.1v4.3h2.8v-4.3c0-0.6,0.5-1.1,1.1-1.1h4.3   v-2.8h-4.3C38.9,31.3,38.4,30.8,38.4,30.2z"></path><path d="M50.3,19.6c-1.9-1.3-3.2-3.2-3.7-5.5H27.4c-0.5,2.2-1.9,4.2-3.7,5.5c-1.1,0.7-1.7,1.9-1.7,3.2v21.3c0,2.2,1.8,3.9,3.9,3.9   h22.2c2.2,0,3.9-1.8,3.9-3.9V22.8C52,21.5,51.4,20.3,50.3,19.6z M45.9,35.2c0,0.6-0.5,1.1-1.1,1.1h-4.3v4.3c0,0.6-0.5,1.1-1.1,1.1   h-5c-0.6,0-1.1-0.5-1.1-1.1v-4.3h-4.3c-0.6,0-1.1-0.5-1.1-1.1v-5c0-0.6,0.5-1.1,1.1-1.1h4.3v-4.3c0-0.6,0.5-1.1,1.1-1.1h5   c0.6,0,1.1,0.5,1.1,1.1v4.3h4.3c0.6,0,1.1,0.5,1.1,1.1V35.2z"></path></g></svg>