<svg fill="#1F68B3" xmlns="http://www.w3.org/2000/svg" xmlns:xlink="http://www.w3.org/1999/xlink" version="1.1" x="0px" y="0px" viewBox="0 0 100 100" enable-background="new 0 0 100 100" xml:space="preserve"><path d="M63.9,17.2c-2,2.2-3.7,4.7-3.7,4.7c-4.3-7.1-9.8-6.6-9.8-6.6C55.7,9.1,60.7,7.5,63,7.1c0.2-1.5,0.9-2.7,2-3.6  c-9,0.8-18.5,8.3-23.7,19.8c-1.8,4.1-2.9,8.3-3.4,12.3c-0.4,3.9-2.8,7.3-6.3,9.1c-4.7,2.4-9.2,6.2-12.9,11.1  c-10,13.3-10.3,29.8-0.7,37c9.6,7.2,25.4,2.2,35.3-11.1c3.8-5.1,6.2-10.7,7.2-16c0.6-3.2,2.6-6.1,5.4-7.7c0.7-0.4,1.4-0.8,2.1-1.3  L63.9,17.2z M49.7,18.1c0,0,2.9-0.6,5.4,3.2c0,0-3.8,1-5.4,6.1c0,0-2-2.2-4.2,0C45.5,27.4,47.1,21.3,49.7,18.1z M44.4,30.6  c4.3-2.6,4.6,0.2,3.8,1.2c-0.8,1-1.2,4.6-1.2,4.6c-1.4-2.2-5.8,1.9-5.8,1.9C42,35.7,44.4,30.6,44.4,30.6z M39,45c0,0,7-0.7,7,3.9  c0,0-8,0.5-12.1,3.9c0,0-0.5-3-3.5-2.3C30.4,50.5,35.1,46.3,39,45z M27.7,52.6c5.1,0.1,3.7,2.7,2.5,3.1c-1.2,0.4-3.5,3.2-3.5,3.2  c0-2.6-5.9-1.5-5.9-1.5C23,55.5,27.7,52.6,27.7,52.6z M19.6,60c0,0,3.6-1.4,7.6,3.1c0,0-3.7,6.7-4.4,9.6c0,0-6.8-3.3-9.1,0  C13.7,72.7,16.3,62.8,19.6,60z M19.5,82.5c0,0-3.2-0.7-3.8,2.7c0,0-2.4-6.4-2.2-10.9c0,0,2.2-2.4,6.9-0.7  C20.5,73.7,17.7,77,19.5,82.5z M28.5,81.5c0,0-2.9-3.7-6.1,0c0,0,2.4-10,6.1-15.3c0,0,4.2-1.1,7.9,5.3C36.4,71.5,30.8,73,28.5,81.5z   M37.7,68.9c0.1-3.2-6.7-5.7-6.7-5.7c2.3-11.7,17.6-11.1,17.6-11.1c6.1,0,6,5.4,6,5.4C46.7,58.4,37.7,68.9,37.7,68.9z M49.9,42.2  c0,0-1.1-2.8-3.9-1.6c0,0,3.8-5,7.4-7.1c0,0,2.9,0.5,3.9,5C57.3,38.6,53.3,38.1,49.9,42.2z M57.8,26c-0.8,1-1.2,4.6-1.2,4.6  c-1.4-2.2-5.8,1.9-5.8,1.9c0.7-2.6,3.1-7.7,3.1-7.7C58.4,22.2,58.6,25.1,57.8,26z"></path><circle cx="76.9" cy="90" r="7.4"></circle><path d="M76.9,77.2L76.9,77.2c-2.8,0-5.1-2.1-5.3-4.8L64.9,8.2C64.6,5,67,2.2,70.2,2.2h13.3c3.2,0,5.7,2.8,5.3,5.9l-6.6,64.2  C81.9,75.1,79.6,77.2,76.9,77.2z"></path></svg>