<svg fill="#1F68B3" xmlns="http://www.w3.org/2000/svg" xmlns:xlink="http://www.w3.org/1999/xlink" version="1.1" x="0px" y="0px" viewBox="0 0 34 34" style="enable-background:new 0 0 34 34;" xml:space="preserve"><path d="M13.3,12.2H5.8v-1h7.5V12.2z M20.9,13.7H5.8v1h15.1V13.7z M24.3,32.6L24.3,32.6l-22,0.1v-27h6.3V3.8h2.2  c0-1.4,1.1-2.5,2.5-2.5s2.5,1.1,2.5,2.5H18v1.8h6.2v10.1c4.2,0.5,7.5,4.1,7.5,8.4S28.5,32.1,24.3,32.6z M12.8,3.8  c0,0.2,0.1,0.3,0.1,0.3l0.4,0.4l0.4-0.4c0.1-0.1,0.1-0.2,0.1-0.3c0-0.3-0.2-0.5-0.5-0.5S12.8,3.6,12.8,3.8z M10.5,7.7H16V5.8h-5.5  V7.7z M17.8,30.7c-1.5-1.2-2.5-3-2.9-5l-1.5,2.7l-1.9-3.2l-0.6,1.3H5.8v-1h4.5l1.1-2.5l2,3.4l1.4-2.6c0.1-1.5,0.5-2.9,1.3-4.2H5.8  v-1h11c0.5-0.6,1-1.1,1.7-1.5H5.8v-1h14.7c0.6-0.2,1.2-0.4,1.8-0.4V7.7H18v2H8.5v-2H4.2v23H17.8z M29.8,24.2c0-3.6-2.9-6.5-6.5-6.5  s-6.5,2.9-6.5,6.5s2.9,6.5,6.5,6.5S29.8,27.7,29.8,24.2z M25.2,20.8l-1.9,1.9l-1.9-1.9l-1.4,1.4l1.9,1.9l-1.9,1.9l1.4,1.4l1.9-1.9  l1.9,1.9l1.4-1.4l-1.9-1.9l1.9-1.9L25.2,20.8z"></path></svg>