<svg fill="#1F68B3" xmlns="http://www.w3.org/2000/svg" xmlns:xlink="http://www.w3.org/1999/xlink" version="1.1" x="0px" y="0px" viewBox="0 0 100 100" style="enable-background:new 0 0 100 100;" xml:space="preserve"><style type="text/css">
	.st0{display:none;}
	.st1{display:inline;stroke:#1F68B3;stroke-miterlimit:10;}
	.st2{fill:none;}
	.st3{fill:#1F68B3;}
	.st4{clip-path:url(#SVGID_2_);}
</style><g class="st0"><rect x="-326.9" y="-219.6" class="st1" width="4427.1" height="779.8"></rect></g><g><g><g><path d="M87.5,2.4c-0.6-0.1-1.3,0.1-1.8,0.5L65.4,21c-0.1,0.1-0.2,0.2-0.3,0.4L61.7,26c-3.6-9.3-12.3-15.9-22.6-15.9     c-13.4,0-24.3,11.3-24.3,25.3c0,13.9,10.9,25.3,24.3,25.3c13.1,0,23.8-10.8,24.3-24.4l10.1-5.5c0.1-0.1,0.3-0.2,0.4-0.3     l20.4-18.1c0.4-0.4,0.7-0.9,0.7-1.5C95.1,6.9,91.2,3.1,87.5,2.4z M39.2,56.5C28.1,56.5,19,47.1,19,35.4c0-0.2,0-0.4,0-0.5     c12-0.9,21.7-9.5,23.1-20.4c1.2,0.2,2.3,0.5,3.5,0.9c1.2,7,5.7,13,12.1,16.4l-2.5,3.5l-7.5,6.5c-2-1.8-4.7-3-7.7-3     c-6.2,0-11.2,4.8-11.2,10.8c0,1.1,0.9,2.1,2.1,2.1c1.1,0,2.1-0.9,2.1-2.1c0-3.7,3.2-6.6,7.1-6.6c3.9,0,7.1,3,7.1,6.6     c0,1.1,0.9,2.1,2.1,2.1c1.1,0,2.1-0.9,2.1-2.1c0-1.3-0.2-2.5-0.7-3.7l8.1-7l0.5-0.3C57.6,48.8,49.2,56.5,39.2,56.5z M71.3,27.3     l-8.1,4.4c0-0.2,0-0.3-0.1-0.5l5.2-7.3L87.6,6.8c1.4,0.6,2.7,2.1,3.1,3.4L71.3,27.3z"></path><path d="M80.7,15c-0.2-0.2-0.4-0.3-0.6-0.3c-0.2,0-0.5,0.1-0.6,0.2l-5.2,4.7c-0.2,0.2-0.3,0.4-0.3,0.6c0,0.2,0.1,0.5,0.2,0.6     l0.9,1c0.2,0.2,0.4,0.3,0.7,0.3c0.2,0,0.4-0.1,0.6-0.2l5.2-4.7c0.4-0.3,0.4-0.9,0.1-1.3L80.7,15z"></path></g><path d="M39.5,63.1C21,63.1,5.9,77.5,5,95.9c0,0.5,0.1,0.9,0.5,1.2s0.8,0.5,1.2,0.5h65.6c0.5,0,0.9-0.2,1.2-0.5s0.5-0.8,0.5-1.2    C73,77.5,57.9,63.1,39.5,63.1z"></path></g></g></svg>