<svg fill="#1F68B3" xmlns="http://www.w3.org/2000/svg" data-name="Layer 1" viewBox="0 0 100 100" x="0px" y="0px"><title>Artboard 24</title><path d="M32.63,17.15a6.4,6.4,0,0,0,1.2-4.53A7.75,7.75,0,0,0,27.14,6a7,7,0,0,0-5,3A7.23,7.23,0,0,0,21,14.56a7.82,7.82,0,0,0,4.21,5.63,5.34,5.34,0,0,1,1.6,1.14A2.73,2.73,0,0,1,27.62,23a1.46,1.46,0,0,1-1,1.54,4,4,0,0,1-1.29.27,5.89,5.89,0,0,1-1.58-.19,11.43,11.43,0,0,1-8.14-8.3A11.9,11.9,0,0,1,18.8,4.94a12.12,12.12,0,0,1,3.12-2.19,11.37,11.37,0,0,1,7.44-1.49,11.64,11.64,0,0,1,8.42,17.3A8.52,8.52,0,0,1,33.5,22.3a6.28,6.28,0,0,1-4.84-.06c-.84-.42-1.24-1-.92-1.8.17-.39.58-.92.85-1A5.77,5.77,0,0,0,32.63,17.15ZM43.77,30.2a8.61,8.61,0,0,0-3.64-1.52,4.85,4.85,0,0,0-2.5.2c-.54.24-.75.53-.64.88.19.67,1.24,1.13,2.45,2a9.08,9.08,0,0,1,3.36,4.24,6.2,6.2,0,0,1,.34,2.77c0,.19-.06.53-.11.84l-.15.93-.3,1.87L41.4,50,40.29,57.4a4.55,4.55,0,0,1-1,2.2,4.66,4.66,0,0,1-.89.82,5.72,5.72,0,0,1-.52.32l-.27.13-.14.06-.07,0h-.07l-1.64,2q-1.61,12.08-3.07,24.18L31.91,93a1,1,0,0,1-.56.74.94.94,0,0,1-.23.08l-.12,0h-.27l-1.52,0-3,0-1.52,0h-.47a1.17,1.17,0,0,1-.27-.06,1.2,1.2,0,0,1-.74-.79,1,1,0,0,1,0-.16l-.05-.34L23,91.86l-.23-1.51C22,81.26,21.07,72.13,20,63a2.87,2.87,0,0,0-1.79-2.31l-.11,0a4.16,4.16,0,0,1-2.47-2.72,3.71,3.71,0,0,1-.1-.46l-.09-.66-.21-1.63-.42-3.26-1.72-13A5.2,5.2,0,0,1,14.27,35a5.27,5.27,0,0,1,3.63-1.87l.26,0h1.95l.8,1L23,36.68,24,38l.26.32.13.16.17.2c.09.1.19.2.29.29a3.94,3.94,0,0,0,3,1h-.45a3.8,3.8,0,0,0,2-.33,4,4,0,0,0,1.25-.88l.17-.18.1-.12.64-.79,1.28-1.57L35.36,33c.08-.1.16-.21.25-.33a6.45,6.45,0,0,0,.69-.25c.14.11.12.1,0,0l.23-.11c.64-.37.54-.72,0-1a5.91,5.91,0,0,0-1.17-.44l-.79-.2-.43-.1a1.34,1.34,0,0,1-.2,0,.05.05,0,0,0,0,0s-.09.06-.16.11l-.21.18-.42.36-.84.74-1.7,1.55L28.83,35l-.86.85c-.06.05-.18.19-.18.17h0a.08.08,0,0,1,0-.07.07.07,0,0,0,0-.06.07.07,0,0,0-.1,0h.06l-.08-.12-.62-1-1.29-1.93L24.31,31l-.68-1-.35-.49-.17-.24,0-.06,0,0L22.91,29a2.17,2.17,0,0,0-1.43-.67h-.25l-.3,0-.6,0-1.21-.06a12.59,12.59,0,0,0-2.82.1,10.05,10.05,0,0,0-5.4,2.76,10.29,10.29,0,0,0-2.7,4.47,10.08,10.08,0,0,0-.43,2.62,12.19,12.19,0,0,0,0,1.35l.11,1.07.94,8.34.95,8.34.06.52.09.67a10.59,10.59,0,0,0,.34,1.4,9.66,9.66,0,0,0,1.3,2.58,9.81,9.81,0,0,0,2.93,2.7q1.12,9.16,2.34,18.32l1.38,9.86a9.32,9.32,0,0,0,.17.94,5.83,5.83,0,0,0,.39,1.11,6.09,6.09,0,0,0,1.38,1.89,6,6,0,0,0,2,1.22,6.3,6.3,0,0,0,1.13.3c.19,0,.39.06.58.07h.52l5-.09,1.14,0c.22,0,.29,0,.71,0a5.52,5.52,0,0,0,1-.14,6,6,0,0,0,4.47-4.16,6.84,6.84,0,0,0,.21-1l.09-.56.34-2.25Q39.31,78,41,65.38a9.93,9.93,0,0,0,4.75-7.25l.93-7.65.86-7.58.2-1.9.1-.95c0-.17,0-.28,0-.51l0-.64a10.88,10.88,0,0,0-1-4.9A9.91,9.91,0,0,0,43.77,30.2ZM67.23,81.9a22.71,22.71,0,0,0-2.76-1q-.72-.22-1.47-.4a9,9,0,0,1-1.33-.36,3.09,3.09,0,0,1-2-3c.32-7.52.76-15.13.78-22.76a5.52,5.52,0,0,0,3.5.31c.19.06.37.13.56.17a4.87,4.87,0,0,0,3.52-.3c.33-.18.61-.88.58-2.27s-.26-2.2-.6-2.35a4.28,4.28,0,0,0-1.84-.52,21,21,0,0,0-3,.57,3.63,3.63,0,0,0-2.81-1.08c0-1-.06-2-.11-3.06L60.49,42c.13-4.11.21-8.23.18-12.34l0-2.89a1.51,1.51,0,0,1,.31-.94,1.66,1.66,0,0,1,.89-.61.69.69,0,0,1,.14,0l.07,0h.19l.77,0L64.55,25c2.33-.18,4.26-.88,4.09-2.27s-1.81-2.2-4.2-2.35l-1.61-.1-.83,0a7,7,0,0,0-1.2.07,6.76,6.76,0,0,0-5.37,4.55A7.21,7.21,0,0,0,55.15,26c-.05.41-.07.88-.07,1.09q0,1.62,0,3.23c.05,6.93.36,13.85.57,20.78a136.19,136.19,0,0,0-1.08,18.78v4.72l0,2.36,0,.43c0,.16,0,.33,0,.49a7.62,7.62,0,0,0,.18,1,7.46,7.46,0,0,0,.73,1.84A7.56,7.56,0,0,0,62,84.57c1.61,0,3.16,0,4.73.08a2.69,2.69,0,0,0,1.71-.89C69,83,68.29,82.38,67.23,81.9ZM88.78,47.16a15.68,15.68,0,0,0-3,2.25C84.43,50.85,83.24,52.48,82,54c-.25.08-.48.18-.71.28a42.42,42.42,0,0,1-3.34-3.41c-.1-.12-.66.07-1,.28a2.46,2.46,0,0,0-1.07,1.56,4.9,4.9,0,0,0,.71,4.19c.75,1,1.46,2,2.23,3a2.31,2.31,0,0,0,3.25.43l.56-.43a17.69,17.69,0,0,0,3.75-3.69c.3-.22.61-.44.91-.67a19,19,0,0,0,4.78-5.2c.34-.6.24-1.49-.78-2.43S89.37,46.78,88.78,47.16Zm0,28a15.68,15.68,0,0,0-3,2.25C84.43,78.85,83.24,80.48,82,82c-.25.08-.48.18-.71.28a42.42,42.42,0,0,1-3.34-3.41c-.1-.12-.66.07-1,.28a2.46,2.46,0,0,0-1.07,1.56,4.9,4.9,0,0,0,.71,4.19c.75,1,1.46,2,2.23,3a2.31,2.31,0,0,0,3.25.43l.56-.43a17.69,17.69,0,0,0,3.75-3.69c.3-.22.61-.44.91-.67a19,19,0,0,0,4.78-5.2c.34-.6.24-1.49-.78-2.43S89.37,74.78,88.78,75.16Zm0-58.26a15.68,15.68,0,0,0-3,2.25c-1.37,1.44-2.55,3.06-3.81,4.61-.25.08-.48.18-.71.28a42.42,42.42,0,0,1-3.34-3.41c-.1-.12-.66.07-1,.28a2.46,2.46,0,0,0-1.07,1.56,4.9,4.9,0,0,0,.71,4.19c.75,1,1.46,2,2.23,3a2.31,2.31,0,0,0,3.25.43l.56-.43A17.69,17.69,0,0,0,86.38,26c.3-.22.61-.44.91-.67a19,19,0,0,0,4.78-5.2c.34-.6.24-1.49-.78-2.43S89.37,16.52,88.78,16.9Z"></path></svg>