<svg fill="#1F68B3" xmlns="http://www.w3.org/2000/svg" xmlns:xlink="http://www.w3.org/1999/xlink" version="1.1" x="0px" y="0px" viewBox="0 0 100 100" enable-background="new 0 0 100 100" xml:space="preserve"><g><g><path d="M92.985,95H68.806c-1.113,0-2.015-0.902-2.015-2.015V49.213c0-1.112,0.902-2.015,2.015-2.015h24.179    c1.113,0,2.015,0.902,2.015,2.015v43.772C95,94.098,94.098,95,92.985,95z M70.821,90.97H90.97V51.228H70.821V90.97z"></path></g></g><g><g><path d="M31.194,95H7.015C5.902,95,5,94.098,5,92.985V49.213c0-1.112,0.902-2.015,2.015-2.015h24.179    c1.113,0,2.015,0.902,2.015,2.015v43.772C33.209,94.098,32.307,95,31.194,95z M9.03,90.97h20.149V51.228H9.03V90.97z"></path></g></g><g><path d="M68.806,5H31.194c-1.112,0-2.015,0.902-2.015,2.015v85.97c0,1.113,0.902,2.015,2.015,2.015h37.612   c1.112,0,2.015-0.902,2.015-2.015V7.015C70.821,5.902,69.918,5,68.806,5z M59.403,91.196H40.597v-22.39h18.806V91.196z    M60.746,35.101h-6.839v6.84h-7.813v-6.84h-6.839v-7.813h6.839v-6.84h7.813v6.84h6.839V35.101z"></path></g></svg>