<svg fill="#1F68B3" xmlns="http://www.w3.org/2000/svg" xmlns:xlink="http://www.w3.org/1999/xlink" version="1.1" x="0px" y="0px" viewBox="0 0 64 64" enable-background="new 0 0 64 64" xml:space="preserve"><g><path fill="#1F68B3" d="M63.725,23.459H32.129v8.376h1.991V61.5h27.612V31.836h1.991V23.459z M58.482,58.252H37.369V31.836h21.113   V58.252z"></path><path fill="#1F68B3" d="M56.126,52.531v2.778c0,0.189-0.037,0.366-0.055,0.574H39.738v-2.964c-0.015-0.217-0.018-0.443,0-0.681   v-0.189h0.015c0.009-0.067,0.009-0.128,0.018-0.195h5.88v-1.902h-5.898v-4.201h5.938v-1.85h-5.938V39.7h5.898v-1.902h-5.88   c-0.009-0.067-0.009-0.131-0.018-0.195h-0.015v-0.192c-0.018-0.238-0.015-0.464,0-0.681v-2.964h16.332   c0.018,0.211,0.055,0.388,0.055,0.577v2.778C56.126,42.258,56.132,47.393,56.126,52.531z"></path><g><polygon fill="#1F68B3" points="29.448,32.169 29.448,37.332 23.334,37.332 23.334,43.463 18.137,43.463 18.137,37.408     12.023,37.408 12.023,32.186 18.078,32.186 18.078,26.072 23.317,26.072 23.317,32.169   "></polygon><path fill="#1F68B3" d="M32.543,12.928h-0.034c0-3.347-0.034-5.29,0.017-8.468c0.017-0.74-0.16-1.295-0.648-1.707    C31.685,2.584,31.441,2.5,31.189,2.5H10.392c-0.311,0-0.631,0.101-0.858,0.32c-0.429,0.404-0.589,0.942-0.572,1.64    c0.05,3.179,0.017,5.121,0.017,8.468h-0.05c-4.777,0-8.653,3.877-8.653,8.662v25.187c0,4.777,3.877,8.653,8.653,8.653H30.76    v-3.776H8.929c-0.833,0-1.606-0.21-2.287-0.572c-1.295-0.698-2.237-1.943-2.506-3.423c-0.059-0.294-0.084-0.58-0.084-0.883V21.59    c0-2.691,2.186-4.878,4.878-4.878h23.614c2.17,0,4.011,1.421,4.642,3.381h3.877C40.355,16.023,36.806,12.928,32.543,12.928z     M15.993,10.598h-3.751V5.637h3.751V10.598z M22.729,10.598H18.97V5.637h3.759V10.598z M29.448,10.598h-3.759V5.637h3.759V10.598z    "></path></g></g></svg>