<svg fill="#1F68B3" xmlns="http://www.w3.org/2000/svg" xmlns:xlink="http://www.w3.org/1999/xlink" version="1.1" x="0px" y="0px" viewBox="0 0 100 100" enable-background="new 0 0 100 100" xml:space="preserve"><polygon points="42.721,51.553 42.319,52.367 38.489,60.14 34.565,52.308 34.187,51.553 38.453,51.553 "></polygon><g><circle cx="50.161" cy="66.727" r="0.984"></circle><path d="M47.761,66.689c0,1.305,1.061,2.366,2.364,2.366s2.365-1.061,2.365-2.366c0-1.304-1.062-2.365-2.365-2.365   S47.761,65.385,47.761,66.689z M50.161,64.711c1.111,0,2.016,0.904,2.016,2.016c0,1.111-0.904,2.016-2.016,2.016   s-2.015-0.904-2.015-2.016C48.146,65.615,49.05,64.711,50.161,64.711z"></path><path d="M52.831,53.27c0.187,1.898,0.243,5.121-0.836,8.409c2.035,0.763,3.495,2.712,3.495,5.01c0,2.958-2.407,5.366-5.365,5.366   s-5.364-2.407-5.364-5.366c0-2.527,1.761-4.637,4.116-5.204c1.759-4.464,0.785-9.25,0.774-9.299   c-0.02-0.091-0.027-0.182-0.03-0.272c-0.881-0.311-1.806-0.602-2.808-0.887l-8.102,14.235l-9.276-13.875   c-0.969,0.319-1.906,0.705-2.827,1.119l0.056,9.892c1.48,0.312,2.409,1.055,2.956,1.707c1.249,1.486,1.43,3.427,1.396,4.649   c0.507,0.502,0.821,1.197,0.821,1.965c0,1.527-1.243,2.77-2.771,2.77s-2.771-1.242-2.771-2.77c0-1.151,0.707-2.14,1.709-2.557   c-0.04-0.725-0.207-1.567-0.688-2.134c-0.447-0.527-1.151-0.784-2.152-0.784c-1.012,0-1.731,0.263-2.2,0.803   c-0.495,0.57-0.687,1.409-0.746,2.132c0.979,0.428,1.668,1.403,1.668,2.539c0,1.527-1.243,2.77-2.771,2.77s-2.77-1.242-2.77-2.77   c0-0.779,0.325-1.481,0.844-1.985c-0.005-1.216,0.219-3.155,1.494-4.637c0.559-0.648,1.498-1.387,2.979-1.699l-0.047-8.342   C14.941,59.216,9.12,68.671,9.12,79.498h37.546c2.737-7.87,11.075-5.121,11.075-5.121V56.718   C56.109,55.223,54.535,54.14,52.831,53.27z"></path></g><circle cx="38.49" cy="32.104" r="16.268"></circle><g><path d="M88.049,84.215c-0.184,0-0.327-0.007-0.417-0.014H62.917c-0.828,0-1.5-0.671-1.5-1.5s0.672-1.5,1.5-1.5h24.774   c0.047,0,0.095,0.002,0.142,0.007c0.359,0.027,1.531-0.011,2.133-0.564c0.113-0.104,0.456-0.42,0.456-1.311V57.367   c0-1.394-1.134-2.527-2.528-2.527H62.917c-1.394,0-2.527,1.134-2.527,2.527v16.61c0,0.829-0.672,1.5-1.5,1.5s-1.5-0.671-1.5-1.5   v-16.61c0-3.048,2.479-5.527,5.527-5.527h24.977c3.048,0,5.528,2.479,5.528,5.527v21.965c0,1.837-0.785,2.937-1.443,3.536   C90.677,84.053,88.914,84.215,88.049,84.215z"></path></g><g><path d="M91.922,61.569H58.89c-0.828,0-1.5-0.671-1.5-1.5s0.672-1.5,1.5-1.5h33.032c0.828,0,1.5,0.671,1.5,1.5   S92.75,61.569,91.922,61.569z"></path></g><g><path d="M54.316,89.938c-4.934,0-8.948-4.014-8.948-8.948c0-4.934,4.015-8.948,8.948-8.948c4.935,0,8.949,4.014,8.949,8.948   C63.266,85.923,59.251,89.938,54.316,89.938z M54.316,75.042c-3.28,0-5.948,2.668-5.948,5.948s2.668,5.948,5.948,5.948   s5.949-2.668,5.949-5.948S57.597,75.042,54.316,75.042z"></path></g><g><path d="M57.243,84.257c-0.265,0-0.532-0.069-0.774-0.216l-2.928-1.768c-0.449-0.271-0.725-0.759-0.725-1.284v-4.081   c0-0.829,0.672-1.5,1.5-1.5s1.5,0.671,1.5,1.5v3.234l2.203,1.33c0.709,0.428,0.937,1.35,0.509,2.06   C58.246,83.999,57.751,84.257,57.243,84.257z"></path></g><path d="M58.89,60.569l1.213,7.354l-1.361,6.454c5.419,2.797,3.55,8.492,3.55,8.492h4.737H88.59c2.547,0,3.389-3.224,3.389-3.224  V60.569H58.89z M66.767,77.418c-1.158,0-2.098-0.939-2.098-2.098c0-1.159,0.939-2.098,2.098-2.098s2.098,0.939,2.098,2.098  C68.864,76.479,67.925,77.418,66.767,77.418z M66.767,68.021c-1.158,0-2.098-0.939-2.098-2.098c0-1.158,0.939-2.098,2.098-2.098  s2.098,0.94,2.098,2.098C68.864,67.082,67.925,68.021,66.767,68.021z M75.822,63.825c1.158,0,2.098,0.94,2.098,2.098  c0,1.159-0.939,2.098-2.098,2.098c-1.159,0-2.098-0.939-2.098-2.098C73.725,64.765,74.663,63.825,75.822,63.825z M75.852,77.418  c-1.158,0-2.098-0.939-2.098-2.098c0-1.159,0.939-2.098,2.098-2.098s2.098,0.939,2.098,2.098  C77.949,76.479,77.01,77.418,75.852,77.418z M84.852,77.418c-1.158,0-2.098-0.939-2.098-2.098c0-1.159,0.939-2.098,2.098-2.098  s2.098,0.939,2.098,2.098C86.949,76.479,86.01,77.418,84.852,77.418z M84.877,68.021c-1.158,0-2.098-0.939-2.098-2.098  c0-1.158,0.939-2.098,2.098-2.098c1.159,0,2.099,0.94,2.099,2.098C86.976,67.082,86.036,68.021,84.877,68.021z"></path><g><path d="M66.955,56.829c-0.828,0-1.5-0.671-1.5-1.5v-5.064c0-0.829,0.672-1.5,1.5-1.5s1.5,0.671,1.5,1.5v5.064   C68.455,56.158,67.783,56.829,66.955,56.829z"></path></g><g><path d="M75.011,56.829c-0.828,0-1.5-0.671-1.5-1.5v-5.064c0-0.829,0.672-1.5,1.5-1.5s1.5,0.671,1.5,1.5v5.064   C76.511,56.158,75.839,56.829,75.011,56.829z"></path></g><g><path d="M83.066,56.829c-0.828,0-1.5-0.671-1.5-1.5v-5.064c0-0.829,0.672-1.5,1.5-1.5s1.5,0.671,1.5,1.5v5.064   C84.566,56.158,83.895,56.829,83.066,56.829z"></path></g></svg>