<svg fill="#1F68B3" xmlns="http://www.w3.org/2000/svg" xmlns:xlink="http://www.w3.org/1999/xlink" version="1.1" x="0px" y="0px" viewBox="0 0 100 100" enable-background="new 0 0 100 100" xml:space="preserve"><path d="M81.925,42.728c0.002,0.009,0.002,0.017,0.005,0.024c0.004,0.016,0.008,0.027,0.01,0.042L81.925,42.728z"></path><path d="M56.523,33.09c7.754,0,14.045-6.287,14.045-14.045C70.568,11.289,64.277,5,56.523,5c-7.754,0-14.044,6.289-14.045,14.045  C42.478,26.803,48.768,33.09,56.523,33.09z"></path><path d="M31.107,52.014c7.756,0,14.049-6.285,14.049-14.047c0-7.755-6.293-14.043-14.049-14.043  c-7.754,0-14.045,6.288-14.045,14.043C17.062,45.729,23.353,52.014,31.107,52.014z"></path><path d="M56.523,36.539c-2.996,0-5.813-0.76-8.281-2.09c0.234,1.137,0.368,2.311,0.368,3.518c0,2.815-0.685,5.469-1.872,7.828  c1.857,0.924,3.596,1.816,5.175,2.852c3.909-3.178,8.75-4.908,13.858-4.908c5.887-0.001,11.418,2.29,15.578,6.452  c0.283,0.283,0.537,0.588,0.803,0.883c0.324-0.863,0.49-1.806,0.457-2.793c0,0-0.094-2.682-0.68-5.529  c-1.601-7.828-5.334-9.822-11.637-12.953C67.088,33.895,62.113,36.539,56.523,36.539z"></path><path d="M49.363,51.109c-1.32-0.803-2.809-1.558-4.484-2.39c-3.204,4.097-8.178,6.742-13.771,6.742  c-5.588,0-10.563-2.646-13.767-6.736c-6.312,3.135-10.046,5.127-11.642,12.992c-0.622,3.066-0.696,5.484-0.696,5.484  c-0.123,4.09,3.124,7.438,7.218,7.438h33.41C42.246,66.928,43.493,57.676,49.363,51.109z"></path><path d="M93.909,88.674L83.254,78.02c-0.702-0.703-1.633-1.092-2.622-1.092c-0.004,0-0.006,0-0.008-0.002  c-0.021,0-0.038,0.002-0.058,0.004c2.422-3.199,3.735-7.076,3.738-11.16c0-4.949-1.929-9.604-5.431-13.104  c-3.5-3.5-8.151-5.43-13.104-5.428c-4.947,0-9.604,1.928-13.104,5.428c-7.223,7.225-7.223,18.98,0,26.207  c3.5,3.5,8.152,5.428,13.102,5.428c4.082,0,7.963-1.314,11.16-3.738c0,0.023-0.002,0.045-0.002,0.066  c0.002,0.99,0.391,1.922,1.092,2.623L88.676,93.91c0.7,0.699,1.633,1.088,2.624,1.09c0-0.002,0.002,0,0.007,0  c0.986,0,1.916-0.385,2.61-1.082c0.7-0.699,1.085-1.631,1.083-2.621S94.611,89.375,93.909,88.674z M76.001,75.999  c-2.733,2.731-6.366,4.237-10.231,4.237c-3.861,0-7.494-1.504-10.227-4.236c-5.639-5.643-5.639-14.82,0-20.459  c2.732-2.732,6.365-4.238,10.229-4.238c3.865,0,7.498,1.506,10.229,4.238c2.733,2.732,4.237,6.365,4.237,10.229  C80.238,69.634,78.732,73.266,76.001,75.999z"></path></svg>