<svg fill="#1F68B3" xmlns="http://www.w3.org/2000/svg" xmlns:xlink="http://www.w3.org/1999/xlink" version="1.1" x="0px" y="0px" viewBox="0 0 100 100" enable-background="new 0 0 100 100" xml:space="preserve"><g><g><g><path fill="#1F68B3" d="M8.8,92.1c2.3,2.3,6,2.3,8.3,0L28,81.2c7.2,3.7,16.2,2.5,22.2-3.5c7.5-7.5,7.5-19.5,0-27     c-7.5-7.5-19.5-7.5-27,0c-6,6-7.2,15-3.5,22.2L8.8,83.8C6.5,86.1,6.5,89.8,8.8,92.1z M27.2,54.7c5.3-5.3,13.8-5.3,19.1,0     c5.3,5.3,5.3,13.8,0,19.1C41,79,32.4,79,27.2,73.8C21.9,68.5,21.9,60,27.2,54.7z M19.3,76.7l0.4-0.4c0.4-0.4,0.9-0.4,1.3,0     c0.4,0.4,0.4,0.9,0,1.3l-0.4,0.4c-0.2,0.2-0.4,0.3-0.7,0.3s-0.5-0.1-0.7-0.3C19,77.7,19,77.1,19.3,76.7z M9.8,86.3l7.3-7.3     c0.4-0.4,0.9-0.4,1.3,0c0.4,0.4,0.4,0.9,0,1.3l-7.3,7.3c-0.2,0.2-0.4,0.3-0.7,0.3s-0.5-0.1-0.7-0.3C9.5,87.2,9.5,86.6,9.8,86.3z"></path><g><path fill="#1F68B3" d="M38.3,65c0.8,0.4,1.2,1.2,1,2c-0.2,0.9-0.2,1.9-0.2,2.9c0.1,1.5,0.6,2.9,1.3,4.1      c1.4-0.5,2.6-1.3,3.7-2.4c1.4-1.4,2.3-3.1,2.7-4.8c-0.4-0.8-0.7-1.7-0.7-2.7c0-2-1.6-3.6-3.6-3.6c-0.6,0-1-0.5-1-1      c0-0.6,0.5-1,1-1c1.4,0,2.7,0.5,3.6,1.4c-0.5-1.1-1.2-2.1-2.1-3c-2-2-4.6-3.1-7.4-3.1c-1.5,0-2.9,0.3-4.1,0.9      c0,0.4-0.1,0.7-0.1,1.1C32.5,59.8,34.9,63.3,38.3,65z"></path><path fill="#1F68B3" d="M81.2,47.1c1.4-1.7,2.2-3.9,2.2-6.3c0-4.1-2.4-7.6-5.8-9.2c-0.8-0.4-1.2-1.2-1-2      c0.2-0.9,0.2-1.9,0.2-2.9c-0.4-5-4.5-9-9.5-9.3c-3.1-0.2-6,1-8,3c-0.7,0.7-1.9,0.7-2.7,0c-2-2-4.8-3.2-8-3      c-5,0.3-9.1,4.3-9.5,9.3c-0.1,1,0,1.9,0.2,2.9c0.2,0.8-0.2,1.7-1,2c-3.4,1.7-5.8,5.2-5.8,9.2c0,0.6,0.1,1.2,0.2,1.8      c1.3-0.2,2.7-0.4,4.1-0.4c3.7,0,7.3,0.9,10.4,2.6c-0.1-0.8-0.4-1.7-1-2.3c-0.4-0.4-0.4-1,0-1.4c0.4-0.4,1-0.4,1.4,0      c1.3,1.3,1.9,3.2,1.6,5c1.1,0.8,2.2,1.7,3.2,2.7c8.1,8.1,8.6,21,1.5,29.6c1.1-0.5,2-1.2,2.8-2c0.7-0.7,1.9-0.7,2.7,0      c2,2,4.8,3.2,8,3c5-0.3,9.1-4.3,9.5-9.3c0.1-1,0-1.9-0.2-2.9c-0.2-0.8,0.2-1.7,1-2c3.4-1.7,5.8-5.2,5.8-9.2      c0-2.4-0.8-4.6-2.2-6.3C80.7,48.7,80.7,47.8,81.2,47.1z M54.5,38.7c0.6,0,1,0.5,1,1c0,0.6-0.5,1-1,1c-3.1,0-5.6-2.5-5.6-5.6      c0-2-1.6-3.6-3.6-3.6c-0.6,0-1-0.5-1-1c0-0.6,0.5-1,1-1c1.9,0,3.6,1,4.6,2.4c1-1.5,2.7-2.4,4.6-2.4c0.6,0,1,0.5,1,1      c0,0.6-0.5,1-1,1c-2,0-3.6,1.6-3.6,3.6C50.9,37,52.5,38.7,54.5,38.7z M61.9,28.7c0.4-0.4,1-0.4,1.4,0c1.4,1.4,3.7,1.4,5.1,0      c1.4-1.4,1.4-3.7,0-5.1c-0.4-0.4-0.4-1,0-1.4c0.4-0.4,1-0.4,1.4,0c2.2,2.2,2.2,5.8,0,8c-1.4,1.4-1.4,3.7,0,5.1      c0.4,0.4,0.4,1,0,1.4c-0.4,0.4-1,0.4-1.4,0c-1.4-1.4-1.9-3.2-1.6-5c-1.8,0.3-3.6-0.2-5-1.6C61.5,29.7,61.5,29.1,61.9,28.7z       M68.1,73c0.4,0.4,0.4,1,0,1.4c-0.4,0.4-1,0.4-1.4,0c-1.4-1.4-1.9-3.2-1.6-5c-1.8,0.3-3.6-0.2-5-1.6c-0.4-0.4-0.4-1,0-1.4      c0.4-0.4,1-0.4,1.4,0c1.4,1.4,3.7,1.4,5.1,0c1.4-1.4,1.4-3.7,0-5.1c-0.4-0.4-0.4-1,0-1.4c0.4-0.4,1-0.4,1.4,0      c2.2,2.2,2.2,5.8,0,8C66.7,69.3,66.7,71.6,68.1,73z M71.8,51.8c0.6,0,1,0.5,1,1s-0.5,1-1,1c-3.1,0-5.6-2.5-5.6-5.6      c0-2-1.6-3.6-3.6-3.6c-0.6,0-1-0.5-1-1c0-0.6,0.5-1,1-1c1.9,0,3.6,1,4.6,2.4c1-1.5,2.7-2.4,4.6-2.4c0.6,0,1,0.5,1,1      c0,0.6-0.5,1-1,1c-2,0-3.6,1.6-3.6,3.6C68.2,50.2,69.8,51.8,71.8,51.8z"></path></g></g></g></g></svg>