<svg fill="#1F68B3" xmlns="http://www.w3.org/2000/svg" xmlns:xlink="http://www.w3.org/1999/xlink" version="1.1" x="0px" y="0px" viewBox="0 0 100 100" style="enable-background:new 0 0 100 100;" xml:space="preserve"><path d="M88.4,29.6l-0.1-0.4c-0.2-0.6-0.5-1-0.9-1.5L63.4,3.6c-0.3-0.3-0.6-0.5-1-0.7l-1.3-0.4L23.3,2.4c-6.1,0-11.2,5-11.2,11.2  v73.2c0,6.1,5,11.2,11.2,11.2h54.1c6.1,0,11.2-5,11.2-11.2V30.7L88.4,29.6z M63.6,15.2l12.5,12.7h-9.4c-1.7,0-3.1-1.4-3.1-3.1V15.2z   M43.6,51.9L43.6,51.9c-0.8,0-1.5-0.5-1.7-1.2l-5.7-15.8l-3.1,6c-0.3,0.6-1,1-1.7,1h-7.9c-1,0-1.9-0.8-1.9-1.9s0.8-1.9,1.9-1.9h6.7  l4.5-8.8c0.3-0.7,1-1.1,1.8-1c0.7,0,1.4,0.5,1.6,1.2l5.6,15.5L48.9,34c0.3-0.7,1-1.1,1.7-1.1c0.7,0,1.4,0.4,1.7,1.1l1.9,4.2h9.4  c1,0,1.9,0.8,1.9,1.9S64.6,42,63.6,42H53c-0.7,0-1.4-0.4-1.7-1.1l-0.8-1.6l-5.3,11.5C45,51.4,44.4,51.9,43.6,51.9z M77.7,85.4H62.6  v-3.7h15.1V85.4z M77.7,75.7H49.5V72h28.2V75.7z M77.7,66.4H49.5v-3.7h28.2V66.4z"></path></svg>