<svg fill="#1F68B3" xmlns="http://www.w3.org/2000/svg" data-name="Layer 1" viewBox="0 0 100 100" x="0px" y="0px"><title>Artboard 65</title><path d="M99,55.68a12.31,12.31,0,0,1-3.58,9.54L78.08,82.54v5.7H53.9L54,79.65a24.74,24.74,0,0,1,7.24-17.39L76,47.44a5,5,0,0,1,7.38.36,5.13,5.13,0,0,1-.48,6.84l-7.12,7.12a1.65,1.65,0,0,0,.2,2.51A1.7,1.7,0,0,0,78.2,64l8.19-8.19a5.87,5.87,0,0,0,1.71-4.49l-1.27-19a5.17,5.17,0,0,1,10.33-.65Zm-77,32.56H46.1L46,79.65a24.73,24.73,0,0,0-7.24-17.39L24,47.44a5,5,0,0,0-7.38.36,5.13,5.13,0,0,0,.48,6.84l7.12,7.12a1.65,1.65,0,0,1-.2,2.51A1.7,1.7,0,0,1,21.8,64l-8.19-8.19a5.87,5.87,0,0,1-1.71-4.49l1.27-19a5.17,5.17,0,0,0-10.33-.65L1,55.68a12.31,12.31,0,0,0,3.58,9.54L21.92,82.54ZM78,27.66A15.86,15.86,0,0,0,50.88,16.44l-.87.87-.89-.89A15.85,15.85,0,1,0,26.7,38.85L48.31,60.45a2.42,2.42,0,0,0,3.42,0L73.3,38.88A15.8,15.8,0,0,0,78,27.66Z"></path></svg>