<svg fill="#1F68B3" xmlns="http://www.w3.org/2000/svg" viewBox="0 0 24 24" enable-background="new 0 0 24 24" x="0px" y="0px"><g><path d="M1 24c-.26 0-.521-.102-.717-.303-.385-.396-.376-1.029.02-1.414l2.261-2.2c.396-.386 1.028-.376 1.414.02.385.396.376 1.029-.02 1.414l-2.261 2.2c-.194.189-.446.283-.697.283zM20.066 24c-.261 0-.521-.102-.717-.303l-2.139-2.2c-.385-.396-.376-1.029.02-1.414.396-.386 1.03-.375 1.414.02l2.139 2.2c.385.396.376 1.029-.02 1.414-.194.189-.446.283-.697.283zM18.6 6.4c-.553 0-1-.448-1-1v-2.2c0-.552.447-1 1-1s1 .448 1 1v2.2c0 .552-.448 1-1 1zM20.8 6.4h-2.2c-.553 0-1-.448-1-1s.447-1 1-1h1.786l.926-.926-.226-.113c-.193-.097-.351-.254-.447-.447l-.113-.226-1.219 1.219c-.391.391-1.023.391-1.414 0s-.391-1.023 0-1.414l2.2-2.2c.226-.228.543-.332.867-.28.317.052.591.252.734.54l.584 1.169 1.169.584c.287.144.488.417.54.734s-.053.64-.28.867l-2.2 2.2c-.188.187-.442.293-.707.293zM11 14c-.256 0-.512-.098-.707-.293-.391-.391-.391-1.023 0-1.414l7.6-7.6c.391-.391 1.023-.391 1.414 0s.391 1.023 0 1.414l-7.6 7.6c-.195.195-.451.293-.707.293zM11 14.77c-.976 0-1.769-.794-1.769-1.77s.793-1.769 1.769-1.769 1.769.793 1.769 1.769-.793 1.77-1.769 1.77zm0-2c-.127 0-.231.104-.231.23 0 .254.462.254.462 0 0-.127-.104-.23-.231-.23zM11 18c-2.757 0-5-2.243-5-5s2.243-5 5-5c1.335 0 2.591.52 3.535 1.464.391.391.391 1.023 0 1.414s-1.023.391-1.414 0c-.566-.566-1.32-.878-2.121-.878-1.654 0-3 1.346-3 3s1.346 3 3 3 3-1.346 3-3c0-.552.447-1 1-1s1 .448 1 1c0 2.757-2.243 5-5 5zM11 21c-4.411 0-8-3.589-8-8s3.589-8 8-8c2.136 0 4.145.832 5.657 2.343.391.391.391 1.023 0 1.415-.391.391-1.023.39-1.414 0-1.134-1.134-2.641-1.758-4.243-1.758-3.309 0-6 2.691-6 6s2.691 6 6 6 6-2.691 6-6c0-.749-.148-1.497-.441-2.223-.206-.512.042-1.095.554-1.301.514-.207 1.095.04 1.302.553.388.965.585 1.964.585 2.971 0 4.411-3.589 8-8 8zM11 24c-6.065 0-11-4.935-11-11s4.935-11 11-11c2.938 0 5.701 1.144 7.778 3.222.391.391.391 1.023 0 1.414s-1.023.391-1.414 0c-1.7-1.7-3.96-2.636-6.364-2.636-4.962 0-9 4.038-9 9 0 4.963 4.038 9 9 9 4.963 0 9-4.037 9-9 0-1.524-.398-3.041-1.152-4.384-.271-.481-.099-1.091.383-1.361.479-.271 1.091-.1 1.361.383.921 1.641 1.408 3.495 1.408 5.362 0 6.065-4.935 11-11 11z"></path></g></svg>