<svg fill="#1F68B3" xmlns="http://www.w3.org/2000/svg" xmlns:xlink="http://www.w3.org/1999/xlink" version="1.1" x="0px" y="0px" viewBox="0 0 100 100" enable-background="new 0 0 100 100" xml:space="preserve"><path d="M40.967,16.631h18.066c1.697,0,3.074-1.377,3.074-3.076V8.412c0-1.7-1.377-3.075-3.074-3.075H40.967  c-1.697,0-3.074,1.376-3.074,3.075v5.143C37.893,15.255,39.27,16.631,40.967,16.631z M71.865,11.483h-6.758v2.071  c0,3.351-2.725,6.076-6.074,6.076H40.967c-3.35,0-6.074-2.726-6.074-6.076v-2.071h-6.76c-6.352,0-11.52,5.165-11.52,11.515v60.15  c0,6.35,5.168,11.515,11.52,11.515l43.732-0.004c6.354,0,11.521-5.165,11.521-11.515V22.998  C83.387,16.648,78.219,11.483,71.865,11.483z M50,26.46c7.824,0,14.167,6.344,14.167,14.167S57.824,54.793,50,54.793  S35.833,48.45,35.833,40.627S42.176,26.46,50,26.46z M61.043,83.134H38.957v-3h22.086V83.134z M72.093,74.044H27.907v-3h44.186  V74.044z M72.093,64.954H27.907v-3h44.186V64.954z M47.165,49.134h5.671v-5.675h5.672v-5.668h-5.672v-5.672h-5.671v5.672h-5.673  v5.668h5.673V49.134z"></path></svg>