<svg fill="#1F68B3" xmlns="http://www.w3.org/2000/svg" xmlns:xlink="http://www.w3.org/1999/xlink" version="1.0" x="0px" y="0px" viewBox="0 0 32 32" enable-background="new 0 0 32 32" xml:space="preserve"><path d="M24,4H8V2c0-1.105,0.894-2,1.999-2H22c1.105,0,2,0.895,2,2V4z M30,4v26c0,1.105-0.895,2-2,2H3.999C2.894,32,2,31.105,2,30V4  c0-1.105,0.894-2,1.999-2H6v4h20V2h2C29.105,2,30,2.895,30,4z M28,19c0-0.553-0.447-1-1-1h-5.684c-0.555,0-1.039,0.311-1.316,1  l-1.199,2.4L14.406,15C14,14.5,13.553,14,13,14s-1.103,0.438-1.406,1L10,18H5c-0.553,0-1,0.447-1,1s0.447,1,1,1h5.75  c0.553,0,0.957-0.293,1.25-1l1.2-2.4l4.394,6.4c0.488,0.703,0.854,1,1.406,1s1.062-0.156,1.406-1L22,20h5C27.553,20,28,19.553,28,19  z"></path></svg>