<svg fill="#1F68B3" xmlns="http://www.w3.org/2000/svg" xmlns:xlink="http://www.w3.org/1999/xlink" version="1.1" x="0px" y="0px" viewBox="0 0 100 100" enable-background="new 0 0 100 100" xml:space="preserve"><path d="M90.946,26.582c-2.979-2.978-7.807-2.977-10.784,0c-2.066,2.066-2.695,5.023-1.895,7.635L60.9,50.956  c-1.834-0.749-3.898-0.754-5.735-0.017l-7.028-7.029c0.834-2.629,0.215-5.618-1.87-7.703c-2.978-2.978-7.806-2.978-10.783,0  c-2.085,2.085-2.704,5.074-1.87,7.703L16.76,60.765c-2.629-0.834-5.62-0.215-7.705,1.87c-2.978,2.978-2.978,7.806,0,10.784  c2.979,2.977,7.807,2.977,10.784-0.001c2.085-2.085,2.704-5.075,1.87-7.703L38.563,48.86c1.503,0.477,3.12,0.477,4.623,0  l7.409,7.409c-0.582,2.483,0.087,5.2,2.023,7.137c2.978,2.978,7.806,2.978,10.783,0c1.926-1.926,2.599-4.625,2.033-7.099  l17.738-17.096c2.645,0.868,5.669,0.257,7.771-1.846C93.923,34.389,93.923,29.561,90.946,26.582z"></path></svg>