<svg fill="#1F68B3" xmlns="http://www.w3.org/2000/svg" xmlns:xlink="http://www.w3.org/1999/xlink" version="1.1" x="0px" y="0px" viewBox="0 0 50 50" style="enable-background:new 0 0 50 50;" xml:space="preserve"><g><polygon points="23.2,10.1 26.8,10.1 26.8,6.9 30,6.9 30,3.2 26.8,3.2 26.8,0 23.2,0 23.2,3.2 20,3.2 20,6.9 23.2,6.9  "></polygon><rect x="18.3" y="41" width="5.8" height="9"></rect><rect x="26" y="41" width="5.8" height="9"></rect><path d="M38.4,5H32v3.7h-3.2V12h-7.5V8.8H18V5h-6.5c-1.1,0-2,0.9-2,2V50h6.8v-9.9c0-0.5,0.4-1,1-1h15.4c0.5,0,1,0.4,1,1V50h6.8V7.1   C40.5,6,39.6,5,38.4,5z M18.6,36h-5.4v-3.9h5.4V36z M18.6,27.5h-5.4v-3.9h5.4V27.5z M18.6,19h-5.4v-3.9h5.4V19z M27.8,36h-5.4v-3.9   h5.4V36z M27.8,27.5h-5.4v-3.9h5.4V27.5z M27.8,19h-5.4v-3.9h5.4V19z M37,36h-5.4v-3.9H37V36z M37,27.5h-5.4v-3.9H37V27.5z M37,19   h-5.4v-3.9H37V19z"></path></g></svg>