<svg fill="#1F68B3" xmlns="http://www.w3.org/2000/svg" data-name="Layer 1" viewBox="0 0 100 100" x="0px" y="0px"><title>Artboard 2</title><path d="M6.33,99l7.51-.68a3.1,3.1,0,0,0,2.1-1.1L26.46,84.6a11.82,11.82,0,0,0,3.29,1.64l.44.13a4.76,4.76,0,0,0,4.86-1.55l3.09-3.7a25.58,25.58,0,0,0,8.1.83,7.69,7.69,0,0,0,5.4-2.8l21.68-26,1.95,1.62a4.69,4.69,0,0,0,6.26-.12,4.56,4.56,0,0,0-.27-6.75l-34.83-29a4.69,4.69,0,0,0-6.26.12,4.56,4.56,0,0,0,.27,6.75l2.1,1.75-21.68,26a7.69,7.69,0,0,0-1.78,5.82,25.61,25.61,0,0,0,2.27,7.81l-3.09,3.7a4.75,4.75,0,0,0-.65,5.06l.19.39a11.71,11.71,0,0,0,2.21,3L5.25,96.93A1.26,1.26,0,0,0,6.33,99ZM30,56.68,49.53,33.32l16.85,14-4.14,5L50.31,42.38,35,60.78A3.2,3.2,0,1,1,30,56.68Z"></path><path d="M64.34,26.21l8.85-10.61,6.32,5.27L70.66,31.47l5.86,4.89,8.85-10.61,3,2.48a4.09,4.09,0,0,0,5.23-6.28l-24-20a4.09,4.09,0,0,0-5.75.52h0a4.09,4.09,0,0,0,.52,5.75l3,2.48L58.48,21.32Z"></path></svg>