<svg fill="#1F68B3" xmlns:dc="http://purl.org/dc/elements/1.1/" xmlns:cc="http://creativecommons.org/ns#" xmlns:rdf="http://www.w3.org/1999/02/22-rdf-syntax-ns#" xmlns:svg="http://www.w3.org/2000/svg" xmlns="http://www.w3.org/2000/svg" version="1.1" viewBox="0 0 100 100" x="0px" y="0px"><g transform="translate(0,-952.36216)"><path d="m 31.804001,956.63627 c -6.404765,0.13213 -13.069924,2.94023 -17.539386,10.43623 -3.888614,6.52183 -3.816427,13.57985 -1.108965,20.60451 -12.90471815,10.47386 -20.5066962,54.44629 10.032223,52.01009 l 0,8.4059 55.101993,0 0,-2.9002 2.698208,0 0,-4.1432 c 27.311466,-4.1354 16.191608,-46.49196 6.163211,-53.22006 2.360953,-6.71669 2.285613,-13.52954 -1.146068,-20.1098 -9.096439,-17.44242 -32.749127,-10.47546 -36.022835,-2.58896 -2.141356,-4.41051 -9.943683,-8.66438 -18.178381,-8.49451 z m -17.555876,33.60084 c 6.187877,13.01359 20.957713,25.67829 35.993977,34.35939 16.310525,-9.4169 30.276302,-21.5559 35.897098,-34.19037 8.703376,6.20463 17.79683,43.62797 -5.151126,47.57427 l 0,-4.8461 -2.698208,0 0,-2.9002 -55.101993,0 0,6.6476 c -28.3528885,2.1192 -19.389016,-37.8031 -8.939748,-46.64459 z m 54.70829,43.86189 2.399323,0 0,4.1329 3.598985,0 0,2.3993 -3.598985,0 0,3.5969 -2.399323,0 0,-3.5969 -4.130795,0 0,-2.3993 4.130795,0 z m -41.254351,3.8649 10.127042,0 0,2.3993 -10.127042,0 z" style="color:#000000;clip-rule:nonzero;display:inline;overflow:visible;visibility:visible;opacity:1;isolation:auto;mix-blend-mode:normal;color-interpolation:sRGB;color-interpolation-filters:linearRGB;solid-color:#000000;solid-opacity:1;fill:#1F68B3;fill-opacity:1;fill-rule:nonzero;stroke:none;stroke-width:1;stroke-linecap:butt;stroke-linejoin:miter;stroke-miterlimit:4;stroke-dasharray:none;stroke-dashoffset:0;stroke-opacity:1;color-rendering:auto;image-rendering:auto;shape-rendering:auto;text-rendering:auto;enable-background:accumulate"></path></g></svg>