<svg fill="#1F68B3" xmlns="http://www.w3.org/2000/svg" xmlns:xlink="http://www.w3.org/1999/xlink" version="1.1" x="0px" y="0px" viewBox="0 0 100 100" style="enable-background:new 0 0 100 100;" xml:space="preserve"><path d="M40.8873,82.2723c1.9385,0.0002,3.8018,0.3682,5.5921,1.135c0.678,1.2737,1.975,2.1699,3.5201,2.1699  s2.8426-0.8964,3.5203-2.1701c1.7906-0.7671,3.6536-1.135,5.5928-1.1348c8.2139,0,17.6024,5.5656,26.8054,5.5656  c3.0645,0,6.109-0.6174,9.0819-2.2627V15.465c-2.9739,1.6458-6.0164,2.2626-9.0819,2.2626c-9.2031,0-18.5918-5.5655-26.8054-5.5655  c-3.2487,0-6.3159,0.8718-9.1127,3.3029c-2.7975-2.4318-5.863-3.3029-9.1129-3.3029c-8.2136,0-17.6024,5.5655-26.8052,5.5655  c-3.0645,0-6.109-0.6174-9.0819-2.2626v70.1101c2.9739,1.6458,6.0164,2.2627,9.0819,2.2627  C23.285,87.8378,32.6737,82.2711,40.8873,82.2723z M54.0342,22.6502l1.2599-1.0951c1.0956-0.9526,2.1664-1.3234,3.8185-1.3234  c2.7764,0,6.4174,1.1205,10.2723,2.3069c4.9625,1.5273,10.5871,3.2585,16.5331,3.2585c0.3391,0,0.6768-0.0056,1.0124-0.0172v53.9514  c-0.3278,0.0247-0.6649,0.037-1.0124,0.037c-3.5186,0-7.5344-1.236-11.7856-2.5444c-4.8257-1.4852-9.816-3.0212-15.0195-3.0212  c-1.7657-0.0002-3.456,0.1958-5.0787,0.5571V22.6502z M13.0695,25.78c0.3356,0.0116,0.6733,0.0172,1.0124,0.0172  c5.946,0,11.5704-1.731,16.5328-3.2585c3.855-1.1865,7.496-2.3069,10.2723-2.3069c1.6524,0,2.7231,0.3711,3.8188,1.3237  l1.2589,1.0944v52.1101c-1.6219-0.3608-3.3115-0.5568-5.0764-0.5571c-0.0012,0-0.002,0-0.0035,0  c-5.2032,0-10.1935,1.5359-15.019,3.0212c-4.2507,1.3083-8.2657,2.5444-11.7839,2.5444c-0.3475,0-0.6846-0.0123-1.0124-0.037V25.78z  "></path><circle cx="70.4824" cy="36.9214" r="4.8437"></circle><polygon points="80.1697,61.1399 75.326,61.1399 75.326,46.6088 70.4824,46.6088 65.6387,46.6088 60.795,46.6088 60.795,51.4525   65.6387,51.4525 65.6387,61.1399 60.795,61.1399 60.795,65.9836 80.1697,65.9836 "></polygon></svg>