<svg fill="#1F68B3" xmlns="http://www.w3.org/2000/svg" xmlns:xlink="http://www.w3.org/1999/xlink" version="1.1" x="0px" y="0px" viewBox="0 0 64 64" enable-background="new 0 0 64 64" xml:space="preserve"><g><path d="M50,18c-5.514,0-10-4.486-10-10c0-1.104-0.896-2-2-2H26c-1.104,0-2,0.896-2,2c0,5.514-4.486,10-10,10c-1.104,0-2,0.896-2,2   v12c0,11.933,18.063,25.071,18.832,25.624C31.181,57.874,31.59,58,32,58s0.819-0.126,1.168-0.377C33.938,57.07,52,43.933,52,32V20   C52,18.896,51.104,18,50,18z M38,34h-4v4c0,1.104-0.896,2-2,2s-2-0.896-2-2v-4h-4c-1.104,0-2-0.896-2-2s0.896-2,2-2h4v-4   c0-1.104,0.896-2,2-2s2,0.896,2,2v4h4c1.104,0,2,0.896,2,2S39.104,34,38,34z"></path></g></svg>