<svg fill="#1F68B3" xmlns="http://www.w3.org/2000/svg" xmlns:xlink="http://www.w3.org/1999/xlink" version="1.1" x="0px" y="0px" viewBox="0 0 64 64" enable-background="new 0 0 64 64" xml:space="preserve"><g><g><g><path fill="#1F68B3" d="M50.387,24.28l-0.149,2.462c-8.845,0.44-15.879,7.746-15.879,16.697c0,7.051,4.379,13.092,10.568,15.536     c-0.923,0.475-1.969,0.739-3.069,0.739H27.439V33.318c8.001-0.765,14.331-7.605,14.34-15.844c0-0.114,0-0.22-0.009-0.334h1.908     C47.556,17.141,50.633,20.411,50.387,24.28z"></path><path fill="#1F68B3" d="M9.738,17.478c0-0.114,0-0.226,0.005-0.341H7.832c-3.877,0-6.95,3.27-6.708,7.139l1.82,29.135     c0.221,3.542,3.159,6.301,6.708,6.301h14.42V33.321C16.071,32.552,9.74,25.713,9.738,17.478z"></path></g><g><g><g><path fill="#1F68B3" d="M35.14,16.981c0,1.093-0.174,2.144-0.495,3.13l-0.072-0.021c0,0,0.048-0.134,0.123-0.39       c0.075-0.254,0.177-0.633,0.261-1.127c0.082-0.493,0.146-1.104,0.136-1.808c-0.01-0.703-0.1-1.5-0.314-2.343       c-0.046-0.174-0.098-0.353-0.154-0.532c0.008-0.011,0.014-0.021,0.022-0.032C34.967,14.84,35.14,15.891,35.14,16.981z"></path></g><g><circle fill="#1F68B3" cx="34.02" cy="25.285" r="1.92"></circle></g><g><circle fill="#1F68B3" cx="28.715" cy="28.676" r="1.622"></circle></g><g><circle fill="#1F68B3" cx="22.424" cy="28.92" r="1.435"></circle></g><g><circle fill="#1F68B3" cx="17.206" cy="26.28" r="0.888"></circle></g><g><path fill="#1F68B3" d="M38.962,17.423c0,1.32-0.195,2.596-0.558,3.799l-3.759-1.111c0.322-0.985,0.495-2.037,0.495-3.13       c0-1.09-0.173-2.141-0.493-3.124c-0.635-1.95-1.847-3.638-3.434-4.863c-0.046-0.036-0.093-0.072-0.139-0.107       c-0.703-0.534-1.498-0.991-2.352-1.341c-0.55-0.224-1.126-0.397-1.716-0.524l-0.223-0.049l-0.224-0.036       c-0.148-0.025-0.303-0.053-0.44-0.067l-0.212-0.024c-0.071-0.009-0.136-0.019-0.23-0.022l-0.258-0.015l-0.128-0.008       l-0.066-0.003l-0.031-0.002l-0.015-0.001h-0.013c-1.214-0.038-2.442,0.125-3.592,0.493c-1.161,0.376-2.246,0.942-3.186,1.652       c-0.938,0.711-1.738,1.55-2.359,2.446c-0.161,0.221-0.302,0.45-0.442,0.677c-0.069,0.114-0.129,0.229-0.195,0.343       c-0.066,0.114-0.125,0.23-0.18,0.345c-0.238,0.459-0.421,0.927-0.579,1.379c-0.074,0.229-0.151,0.452-0.207,0.676       c-0.028,0.111-0.062,0.221-0.085,0.331c-0.025,0.111-0.049,0.219-0.071,0.328c-0.011,0.053-0.023,0.107-0.034,0.158       c-0.01,0.054-0.019,0.107-0.028,0.161c-0.017,0.105-0.034,0.211-0.051,0.313c-0.031,0.206-0.048,0.397-0.071,0.588       c-0.017,0.2-0.027,0.41-0.039,0.604l-0.001,0.038c0,0,0,0.008-0.002,0.008v0.009l-0.001,0.069       c-0.002,0.045-0.002,0.091-0.003,0.134c0,0.091-0.002,0.177,0,0.263c0.001,0.343,0.018,0.658,0.044,0.941       c0.052,0.567,0.136,1.01,0.2,1.309c0.031,0.15,0.055,0.254,0.076,0.339c0.02,0.081,0.032,0.123,0.032,0.123l-1.182,0.338       c0,0-0.013-0.04-0.039-0.121c-0.025-0.074-0.067-0.211-0.114-0.374c-0.051-0.181-0.113-0.411-0.174-0.687       c-0.127-0.732-0.194-1.484-0.194-2.253c0-7.255,5.882-13.136,13.137-13.136c3.269,0,6.259,1.194,8.557,3.169       c1.011,0.868,1.888,1.887,2.594,3.022C38.235,12.493,38.962,14.873,38.962,17.423z"></path></g><g><path fill="#1F68B3" d="M31.872,13.719c-0.246-0.371-0.633-0.479-1.028-0.287c-0.433,0.212-0.854,0.459-1.266,0.701       l-0.101,0.059c-0.665,0.391-1.328,0.786-1.991,1.18l-1.128,0.669c-0.738-0.311-1.616-0.226-2.278,0.226       c-0.118,0.08-0.231,0.173-0.335,0.276c-0.819,0.811-0.942,2.092-0.291,3.046c0.445,0.652,1.183,1.041,1.973,1.041       c0.334,0,0.657-0.068,0.961-0.202c0.131-0.057,0.262-0.129,0.386-0.214c0.67-0.457,1.065-1.239,1.04-2.049       c0.639-0.552,1.623-1.384,2.417-2.056l0.068-0.058c0.743-0.629,1.331-1.125,1.455-1.239       C32.087,14.506,32.13,14.108,31.872,13.719z"></path></g></g></g></g><path fill="#1F68B3" d="M62.529,40.59c-1.609-6.55-8.142-10.612-14.701-9.197c-0.079,0.018-0.158,0.035-0.237,0.053   c-0.844,0.211-1.688,0.51-2.506,0.906c-0.58,0.281-1.117,0.58-1.627,0.914c-4.176,2.831-6.357,8.054-5.091,13.25   c1.635,6.665,8.37,10.753,15.044,9.118C60.076,53.998,64.164,47.263,62.529,40.59z M59.97,44.828c0,0.703-0.572,1.266-1.275,1.266   H42.201c-0.703,0-1.275-0.563-1.275-1.266v-2.55c0-0.703,0.572-1.266,1.275-1.266h16.494c0.703,0,1.275,0.563,1.275,1.266V44.828z"></path></g></svg>