<svg fill="#1F68B3" xmlns:xlink="http://www.w3.org/1999/xlink" xmlns="http://www.w3.org/2000/svg" stroke-width="0.501" stroke-linejoin="bevel" fill-rule="evenodd" version="1.1" overflow="visible" viewBox="0 0 75 75" x="0px" y="0px"><g fill="none" stroke="black" font-family="Times New Roman" font-size="16" transform="scale(1 -1)"><g transform="translate(0 -75)"><g><path d="M 12.618,19.657 L 12.618,55.344 C 12.618,59.228 15.771,62.381 19.655,62.381 L 55.344,62.381 C 59.228,62.381 62.381,59.228 62.381,55.344 L 62.381,19.657 C 62.381,15.773 59.228,12.62 55.344,12.62 L 19.655,12.62 C 15.771,12.62 12.618,15.773 12.618,19.657 Z M 39.4,20.435 L 39.4,24 L 37.817,24 L 41.081,28.496 L 44.521,24 L 43.003,24 L 43.003,20.435 L 53.297,20.435 L 53.297,24.142 L 50.816,24.142 L 45.118,31.525 L 50.279,38.672 L 52.649,38.672 L 52.649,42.378 L 44.264,42.378 L 44.264,38.876 L 45.578,38.876 L 42.612,34.79 L 36.595,42.475 L 37.304,42.574 C 39.839,43.72 41.107,45.539 41.107,48.033 C 41.107,49.62 40.557,51.043 39.458,52.299 C 38.359,53.556 36.564,54.185 34.07,54.185 L 21.508,54.185 L 21.508,50.478 L 23.848,50.478 L 23.848,35.948 L 21.508,35.948 L 21.508,32.241 L 31.63,32.241 L 31.63,35.948 L 29.559,35.948 L 29.559,41.848 L 30.745,41.848 L 33.2,38.672 L 33.178,38.672 L 38.528,31.699 L 33.178,24.142 L 30.618,24.142 L 30.618,20.435 L 39.4,20.435 Z M 29.559,45.35 L 29.559,50.478 L 32.036,50.478 C 33.003,50.478 33.763,50.267 34.316,49.846 C 34.867,49.426 35.144,48.79 35.144,47.937 C 35.144,46.213 33.933,45.35 31.515,45.35 L 29.559,45.35 Z" fill="#1F68B3" stroke-linejoin="miter" stroke-linecap="round" stroke-width="1.5" stroke="none" marker-start="none" marker-end="none" stroke-miterlimit="79.8403193612775"></path></g></g></g></svg>