<svg fill="#1F68B3" xmlns="http://www.w3.org/2000/svg" xmlns:xlink="http://www.w3.org/1999/xlink" version="1.1" x="0px" y="0px" viewBox="0 0 100 100" enable-background="new 0 0 100 100" xml:space="preserve"><path d="M68.933,31.252h8.791L61.166,14.695v8.799C61.166,27.772,64.649,31.252,68.933,31.252z M68.933,34.252  c-5.938,0-10.767-4.826-10.767-10.759v-10.92H27.917c-4.28,0-7.762,3.48-7.762,7.759V79.67c0,4.277,3.482,7.756,7.762,7.756  l44.162-0.004c4.281,0,7.766-3.479,7.766-7.756V34.252H68.933z M31.606,28.792h6.329v-6.331h6.328v6.331h6.331v6.324h-6.331v6.333  h-6.328v-6.333h-6.329V28.792z M68.394,75.764H31.606v-3h36.788V75.764z M68.394,64.262H31.606v-3h36.788V64.262z M68.394,52.76  H31.606v-3h36.788V52.76z"></path></svg>