<svg fill="#1F68B3" xmlns="http://www.w3.org/2000/svg" xmlns:xlink="http://www.w3.org/1999/xlink" version="1.1" x="0px" y="0px" viewBox="0 0 54 54" style="enable-background:new 0 0 54 54;" xml:space="preserve"><g><path d="M22.7,49.7c0,2.4,1.9,4.3,4.3,4.3c2.4,0,4.3-1.9,4.3-4.3c0-2.4-4.3-8.8-4.3-8.8S22.7,47.3,22.7,49.7z"></path><path d="M29.8,2.8C29.8,1.2,28.5,0,27,0c-1.5,0-2.8,1.2-2.8,2.8v0.1h5.6V2.8z"></path><path d="M27.9,35.6v-1.8c-0.3,0-0.6,0.1-0.9,0.1c-0.2,0-0.4,0-0.6,0c-0.1,0-0.2,0-0.4-0.1v1.8c0,0.5,0.4,0.9,0.9,0.9   S27.9,36.1,27.9,35.6z"></path><path d="M33,8h3V7.2c0-1.3-1.1-2.4-2.4-2.4H20.4c-1.3,0-2.4,1.1-2.4,2.4v11.4c0,3.6,2.1,6.7,5.1,8.2v1.1c0,2,1.5,3.9,3.5,4.1   c2.3,0.2,4.3-1.6,4.3-3.9v-1.3c2.8-1.4,4.8-4.2,5.1-7.5h-3c-0.5,0-0.9-0.4-0.9-0.9s0.4-0.9,0.9-0.9h3v-2.9h-3   c-0.5,0-0.9-0.4-0.9-0.9c0-0.5,0.4-0.9,0.9-0.9h3V9.8h-3c-0.5,0-0.9-0.4-0.9-0.9C32.1,8.4,32.5,8,33,8z"></path></g></svg>