<svg fill="#1F68B3" xmlns="http://www.w3.org/2000/svg" xmlns:xlink="http://www.w3.org/1999/xlink" version="1.1" x="0px" y="0px" viewBox="0 0 64 64" enable-background="new 0 0 64 64" xml:space="preserve"><g><path d="M52.08,14.067V8.921c0.397,0.14,0.822,0.221,1.266,0.221c2.092,0,3.793-1.702,3.793-3.793c0-2.091-1.701-3.793-3.793-3.793   c-1.691,0-3.127,1.114-3.614,2.646c-0.488-1.532-1.923-2.646-3.615-2.646c-2.091,0-3.793,1.702-3.793,3.793   c0,2.091,1.702,3.793,3.793,3.793c0.444,0,0.869-0.081,1.266-0.223v1.298H37.141c-5.605,0-10.163,4.559-10.163,10.163v22.901   c0,3.972-3.233,7.204-7.204,7.204h-0.176c-3.971,0-7.203-3.231-7.203-7.204V38.55c4.016-0.629,6.708-3.829,6.708-8.214   c0-4.956-3.501-10.498-8.188-10.498S2.727,25.38,2.727,30.337c0,4.384,2.692,7.585,6.708,8.214v4.731   c0,5.604,4.559,10.163,10.163,10.163h0.176c5.604,0,10.163-4.559,10.163-10.163V20.38c0-3.972,3.231-7.204,7.203-7.204h10.241v0.89   c-5.237,1.048-9.194,5.679-9.194,11.218v35.68c0,0.816,0.662,1.48,1.48,1.48h20.126c0.818,0,1.48-0.663,1.48-1.48v-35.68   C61.273,19.746,57.317,15.115,52.08,14.067L52.08,14.067z M5.686,30.337c0-3.805,2.59-7.539,5.228-7.539s5.228,3.734,5.228,7.539   c0,2.721-1.431,4.634-3.749,5.195v-6.576c0-0.818-0.662-1.48-1.48-1.48c-0.816,0-1.48,0.662-1.48,1.48v6.576   C7.118,34.971,5.686,33.058,5.686,30.337L5.686,30.337z M5.686,30.337"></path></g></svg>