<svg fill="#1F68B3" xmlns="http://www.w3.org/2000/svg" xmlns:xlink="http://www.w3.org/1999/xlink" version="1.1" x="0px" y="0px" viewBox="0 0 100 100" enable-background="new 0 0 100 100" xml:space="preserve"><path fill="#1F68B3" d="M79.418,30.809c-6.985-9.134-17.73-6.985-24.177-4.835c-3.807,1.269-6.662,1.411-8.374,1.317  c-0.18-1.065-0.381-2.204-0.601-3.38c0.643-0.949,1.339-1.853,2.083-2.703c1.568,1.072,5.445,2.532,10.963-3.419  c4.826-5.206,7.707-3.994,7.707-3.994s-21.155-9.398-19.534,5.948c-0.01,0.016-0.02,0.031-0.03,0.047  c-0.528,0.936-1.01,1.887-1.43,2.86c-1.355-6.914-3.348-14.558-5.651-15.421l-2.686,1.612c0,0,4.93,10.444,7.119,18.329  c-1.302,0.205-4.637,0.451-9.578-1.196c-6.447-2.149-17.193-4.298-24.177,4.835S5.276,57.937,7.826,65.195  c2.593,7.381,7.522,25.252,25.789,27.938c0,0,6.181,0.565,9.612-2.337c0,0,0.843-0.903,1.986-0.12  c1.103,0.755,5.636,3.049,11.907,2.458c18.267-2.686,23.01-20.961,25.521-27.938C85.246,57.956,86.403,39.943,79.418,30.809z"></path></svg>