<svg fill="#1F68B3" xmlns:dc="http://purl.org/dc/elements/1.1/" xmlns:cc="http://creativecommons.org/ns#" xmlns:rdf="http://www.w3.org/1999/02/22-rdf-syntax-ns#" xmlns:svg="http://www.w3.org/2000/svg" xmlns="http://www.w3.org/2000/svg" xmlns:sodipodi="http://sodipodi.sourceforge.net/DTD/sodipodi-0.dtd" xmlns:inkscape="http://www.inkscape.org/namespaces/inkscape" version="1.1" x="0px" y="0px" viewBox="0 0 579.09979 757.98187" enable-background="new 0 0 2000 2000" xml:space="preserve"><path style="" d="M 183.63404,0 C 159.909,0 139.071,12.502 127.319,31.2567 l -96.064,0 C 13.97,31.2567 0,45.2287 0,62.5137 l 0,664.20818 c 0,17.286 13.97,31.26 31.255,31.26 l 515.74104,0 c 17.254,0 31.257,-13.974 31.257,-31.26 l 0,-78.716 c 1.129,-4.758 1.129,-9.723 0,-14.478 l 0,-69.769 c 0,-0.214 0,-0.428 0,-0.643 l 0,-500.60218 c 0,-17.285 -13.972,-31.257 -31.257,-31.257 l -96.061,0 C 439.18504,12.502 418.34304,0 394.61804,0 l -210.984,0 z M 62.513,93.7707 l 60.612,0 c 10.444,23.0183 33.624,39.0702 60.50904,39.0702 l 210.984,0 c 26.861,0 50.053,-16.0519 60.505,-39.0702 l 60.616,0 0,454.03918 -131.998,0 c -8.658,0 -15.628,7 -15.628,15.626 l 0,132.031 -305.60004,0 0,-601.69618 z m 85.958,161.94218 c -8.597,0 -15.63,7.002 -15.63,15.628 0,8.627 7.033,15.629 15.63,15.629 l 159.81804,0 c 8.657,0 15.626,-7.002 15.626,-15.629 0,-8.626 -6.969,-15.628 -15.626,-15.628 l -159.81804,0 z m 0,82.266 c -8.597,0 -15.63,7.003 -15.63,15.63 0,8.627 7.033,15.627 15.63,15.627 l 265.30804,0 c 8.595,0 15.626,-7 15.626,-15.627 0,-8.627 -7.031,-15.63 -15.626,-15.63 l -265.30804,0 z m 0,82.303 c -8.597,0 -15.63,6.999 -15.63,15.627 0,8.625 7.033,15.629 15.63,15.629 l 265.30804,0 c 8.595,0 15.626,-7.004 15.626,-15.629 0,-8.628 -7.031,-15.627 -15.626,-15.627 l -265.30804,0 z m -0.03,82.234 c -8.595,0 -15.63,7.005 -15.63,15.631 0,8.628 7.035,15.629 15.63,15.629 l 111.11904,0 c 8.627,0 15.627,-7.003 15.627,-15.629 0,-8.627 -7.031,-15.631 -15.627,-15.631 l -111.11904,0 z m 250.92904,76.551 87.81,0 -87.81,87.825 0,-87.825 z" fill="#1F68B3"></path></svg>