<svg fill="#1F68B3" xmlns="http://www.w3.org/2000/svg" xmlns:xlink="http://www.w3.org/1999/xlink" version="1.1" x="0px" y="0px" viewBox="0 0 100 100" enable-background="new 0 0 100 100" xml:space="preserve"><g><circle cx="31.974" cy="27.817" r="11.917"></circle><g><path d="M53.606,88.903c0,7.417,9.8,7.417,9.8,0V69.595h-9.8V88.903z"></path><path d="M46.159,42.569h-28.42c-8.799,0-17.248,5.714-17.248,16.126v30.208c0,7.417,9.8,7.417,9.8,0V59.717h5.064l-0.054,34.439    h33.203l0.038-34.439h5.064v6.258h9.8v-7.279C63.406,48.509,54.958,42.569,46.159,42.569z"></path></g><path d="M93.797,11.37h-4.502c0.405-0.805,0.639-1.71,0.639-2.671c0-3.294-2.681-5.975-5.975-5.975   c-3.295,0-5.976,2.681-5.976,5.975c0,0.961,0.233,1.866,0.638,2.671h-4.5c-3.137,0-5.689,2.552-5.689,5.689v32.285   c0,3.136,2.553,5.689,5.689,5.689h8.189l0.002,8.309c0.009,0.196-0.059,1.299-0.596,1.801c-0.967,0.901-1.754,0.851-1.716,0.857   l-16.595-0.025v3.62h16.198c0.093,0.008,0.211,0.014,0.352,0.014c0.856,0,2.535-0.237,4.23-1.819   c1.821-1.701,1.756-4.319,1.744-4.53v-8.226h7.866c3.137,0,5.688-2.553,5.688-5.689V17.059   C99.485,13.922,96.934,11.37,93.797,11.37z M83.959,6.221c1.366,0,2.478,1.112,2.478,2.478s-1.111,2.478-2.478,2.478   c-1.367,0-2.479-1.112-2.479-2.478S82.592,6.221,83.959,6.221z M74.121,14.99h19.676c1.141,0,2.068,0.928,2.068,2.069v2.119h-10.94   v3.62h10.94v3.959H72.052v-9.698C72.052,15.918,72.979,14.99,74.121,14.99z M93.797,51.413H74.121   c-1.142,0-2.069-0.928-2.069-2.069V30.377h23.813v4.299h-10.94v3.62h10.94v4.525h-10.94v3.62h10.94v2.902   C95.865,50.485,94.938,51.413,93.797,51.413z"></path></g></svg>