<svg fill="#1F68B3" xmlns="http://www.w3.org/2000/svg" data-name="Layer 1" viewBox="0 0 100 100" x="0px" y="0px"><title>Artboard 13</title><path d="M82.67,19.76c-8.66-13.22-32,6.46,0,23.89C114.63,26.22,91.33,6.54,82.67,19.76Z"></path><path d="M19.72,63.23l.09,1.69a10.44,10.44,0,0,0,7.14,9.38A25.7,25.7,0,0,0,51.82,93.67,23.71,23.71,0,0,0,75.16,74a13.52,13.52,0,1,0-8.47-1A15.19,15.19,0,0,1,51.82,85.17,17.18,17.18,0,0,1,35.54,73.38a10.44,10.44,0,0,0,5.13-9.52l0-.42A25.34,25.34,0,0,0,52.74,52.3a55.47,55.47,0,0,0,6.38-20.5l.66-6.07a9.91,9.91,0,0,0-5.25-9.87l-4.9-2.59a7.69,7.69,0,1,0-4,7.51l4.9,2.59a1.45,1.45,0,0,1,.77,1.45l-.66,6.07a47,47,0,0,1-5.41,17.38,16.88,16.88,0,0,1-29.69,0,47,47,0,0,1-5.41-17.38l-.66-6.07a1.45,1.45,0,0,1,.77-1.45l4.9-2.59a7.69,7.69,0,1,0-4-7.51l-4.9,2.59a9.9,9.9,0,0,0-5.25,9.87l.66,6.07a55.46,55.46,0,0,0,6.38,20.5A25.33,25.33,0,0,0,19.72,63.23Zm52.62-7.92a5.5,5.5,0,1,1-5.5,5.5A5.5,5.5,0,0,1,72.34,55.31Z"></path></svg>