<svg fill="#1F68B3" xmlns="http://www.w3.org/2000/svg" xmlns:xlink="http://www.w3.org/1999/xlink" viewBox="0 0 24 23" version="1.1" x="0px" y="0px"><title>125 - Surgical Scrissors (Solid)</title><desc>Created with Sketch.</desc><g stroke="none" stroke-width="1" fill="none" fill-rule="evenodd"><g fill="#1F68B3"><path d="M20.0012,6.004 C18.5272,6.004 17.2512,6.814 16.5572,8.004 L7.0012,8.004 L7.0012,1.004 C7.0012,0.452 6.5542,0.004 6.0012,0.004 C5.4482,0.004 5.0012,0.452 5.0012,1.004 L5.0012,6.59 L1.7082,3.297 C1.3172,2.906 0.6852,2.906 0.2942,3.297 C-0.0968,3.688 -0.0968,4.32 0.2942,4.711 L5.2932,9.71 L5.2952,9.712 L12.5682,16.985 C12.2162,17.58 12.0012,18.264 12.0012,19.004 C12.0012,21.21 13.7952,23.004 16.0012,23.004 C18.2072,23.004 20.0012,21.21 20.0012,19.004 C20.0012,16.798 18.2072,15.004 16.0012,15.004 C15.2612,15.004 14.5772,15.219 13.9822,15.571 L8.4152,10.004 L16.0012,10.004 C16.0012,12.21 17.7952,14.004 20.0012,14.004 C22.2072,14.004 24.0012,12.21 24.0012,10.004 C24.0012,7.798 22.2072,6.004 20.0012,6.004"></path></g></g></svg>