<svg fill="#1F68B3" xmlns="http://www.w3.org/2000/svg" xmlns:xlink="http://www.w3.org/1999/xlink" xml:space="preserve" style="shape-rendering:geometricPrecision;text-rendering:geometricPrecision;image-rendering:optimizeQuality;" viewBox="0 0 6827 6827" x="0px" y="0px" fill-rule="evenodd" clip-rule="evenodd"><defs><style type="text/css">
   
    .fil2 {fill:none}
    .fil1 {fill:#1F68B3}
    .fil0 {fill:#1F68B3;fill-rule:nonzero}
   
  </style></defs><g><g><path class="fil0" d="M4902 2980l566 -981c6,-14 16,-25 30,-34 37,-24 87,-13 110,24l0 0c268,420 92,613 -67,788 -51,56 -99,109 -119,163 -22,60 -32,113 -35,157 -3,41 1,75 6,101 5,20 3,42 -8,61 -22,38 -71,51 -109,29l40 -69 -40 69 -340 -196c-2,-1 -3,-2 -5,-3 -38,-22 -51,-71 -29,-109l0 0z"></path><path class="fil0" d="M2780 853l1070 0c112,0 214,46 287,119 74,74 119,175 119,287l0 304c0,14 -1,27 -2,41l-1880 0c-1,-12 -1,-25 -1,-41l0 -304c0,-112 46,-214 119,-287 74,-74 175,-119 287,-119z"></path><path class="fil0" d="M4247 3086c11,2 40,7 80,17 58,14 142,40 241,84 23,10 46,21 69,33l-932 1522c-2,3 -4,6 -6,9 -50,86 -20,196 66,246l87 50 0 0 311 179c2,1 4,3 6,4 90,52 190,31 240,-56 2,-3 4,-6 6,-10l50 -87 0 0 768 -1330c123,186 225,422 277,723 65,372 55,843 -82,1441l0 0c-9,38 -42,63 -79,62l-4071 0c-40,0 -74,-30 -79,-68 -588,-2584 1181,-2819 1188,-2820l0 0c34,-5 67,12 82,41 145,248 310,422 483,523 118,69 240,104 361,104 121,0 243,-35 361,-104 173,-101 339,-276 485,-525l69 40 -69 -40c18,-31 53,-45 86,-38z"></path><path class="fil1" d="M2266 2053c-27,135 1,289 64,445l71 0 451 0 0 -105c0,-40 16,-77 43,-103l0 0c27,-27 63,-43 104,-43l632 0c40,0 77,16 104,43 27,27 43,63 43,104l0 105 434 0 88 0c64,-156 92,-310 65,-445 -14,-71 -43,-136 -89,-193l0 -73 -6 -23 -1907 0 -6 23 0 73c-46,57 -75,122 -89,193z"></path><path class="fil1" d="M2799 3157c168,158 349,274 500,304l31 0c151,-31 332,-146 500,-304 149,-141 291,-317 392,-498l-11 0 -434 0c-4,62 -31,117 -72,158 -45,45 -107,73 -175,73l-430 0c-68,0 -130,-28 -175,-73 -41,-41 -68,-97 -72,-158l-445 0c101,180 242,357 392,498z"></path><path class="fil0" d="M5015 2954l351 203 0 0c38,22 51,71 29,109 -1,2 -3,4 -4,6l-1063 1842 0 0c-22,38 -71,51 -109,29 -2,-1 -3,-2 -5,-3l-399 -230 0 0c-38,-22 -51,-71 -29,-109 1,-2 3,-4 4,-6l1112 -1816 68 42 -68 -42c23,-38 72,-50 110,-26 1,1 2,1 3,2z"></path></g></g><rect class="fil2" width="6827" height="6827"></rect></svg>