<svg fill="#1F68B3" xmlns="http://www.w3.org/2000/svg" viewBox="0 0 56 68" x="0px" y="0px"><path fill="#1F68B3" fill-rule="evenodd" d="M584,542 L556,542 L556,537.002127 C556,536.448668 555.556647,536 554.990631,536 L553.009369,536 C552.45191,536 552,536.450015 552,537.002127 L552,542 L549.992981,542 C545.577333,542 542,545.581966 542,550.000038 L542,595.999962 C542,600.411854 545.580493,604 549.992981,604 L590.007019,604 C594.422667,604 598,600.418034 598,595.999962 L598,550.000038 C598,545.588146 594.419507,542 590.007019,542 L588,542 L588,537.002127 C588,536.448668 587.556647,536 586.990631,536 L585.009369,536 C584.45191,536 584,536.450015 584,537.002127 L584,542 Z M577.669058,580.419395 C580.353971,580.994734 582,582.47616 582,585 C582,589.813142 576.910081,594 570,594 C563.089919,594 558,589.813142 558,585 C558,582.47616 559.646029,580.994734 562.330942,580.419395 C563.725208,580.120624 565.046368,580.028673 568.000088,580.006226 C568.00003,579.9999 568,575.161005 568,575.161005 C566.66687,575.375584 565.269674,575.78842 563.864325,576.352754 C563.107286,576.656752 561.925977,577.26472 561.925977,577.26472 C561.428286,577.513095 560.798975,577.32598 560.511268,576.848501 L559.488732,575.151499 C559.196609,574.666691 559.362767,574.078364 559.849994,573.821062 C559.849994,573.821062 560.860227,573.248628 562.373768,572.640849 C564.254485,571.885626 566.14562,571.350193 568,571.11982 L568,567.10791 C565.876273,567.348511 563.732774,567.95858 561.647416,568.839245 C560.681123,569.247319 558.991492,570.184715 558.991492,570.184715 C558.504681,570.447859 557.860622,570.286823 557.550716,569.823445 L556.449284,568.176555 C556.134622,567.706064 556.272693,567.115302 556.747051,566.841165 C556.747051,566.841165 558.18458,565.959567 560.091257,565.154361 C562.654296,564.071967 565.313887,563.334846 568,563.086248 L568,559.144046 C567.628883,559.195144 567.242941,559.258971 566.843552,559.335085 C565.548994,559.581799 564.156664,559.948493 562.721776,560.403317 C561.72507,560.719248 559.718872,561.486543 559.718872,561.486543 C559.211518,561.677578 558.612014,561.421978 558.391631,560.909931 L557.608369,559.090069 C557.384603,558.570162 557.631907,558.002985 558.153181,557.805687 C558.153181,557.805687 560.43508,556.932005 561.513141,556.590286 C563.088791,556.090845 564.629914,555.684963 566.094719,555.405804 C566.753042,555.280343 567.388602,555.181937 568,555.112786 L568,551.997806 C568,551.45532 568.45191,551 569.009369,551 L570.990631,551 C571.556647,551 572,551.446733 572,551.997806 L572,555.115758 C572.611182,555.18539 573.246619,555.283951 573.904896,555.40927 C575.363498,555.686951 576.898195,556.088866 578.46758,556.582602 C579.548673,556.922718 581.856748,557.79917 581.856748,557.79917 C582.363185,557.988822 582.607627,558.563369 582.388824,559.076092 L581.611176,560.898361 C581.389015,561.418955 580.797601,561.670363 580.282715,561.477475 C580.282715,561.477475 578.267593,560.712967 577.267167,560.398228 C575.836347,559.948086 574.448073,559.584517 573.156832,559.338698 C572.757365,559.262649 572.371298,559.19873 572,559.14738 L572,563.088792 C574.680335,563.339262 577.334722,564.07218 579.893434,565.146318 C581.804591,565.948616 583.245853,566.826952 583.245853,566.826952 C583.71734,567.094444 583.856825,567.697873 583.548287,568.162162 L582.451713,569.812292 C582.138439,570.283708 581.497824,570.439622 581.010281,570.176453 C581.010281,570.176453 579.314583,569.241483 578.345141,568.834514 C576.262113,567.960066 574.121287,567.352976 572,567.1108 L572,571.122883 C573.848247,571.354098 575.733661,571.885152 577.609259,572.632463 C579.127162,573.237255 580.140735,573.806778 580.140735,573.806778 C580.625926,574.057671 580.793988,574.658255 580.508077,575.136811 L579.491923,576.837643 C579.201623,577.323544 578.57214,577.504079 578.07613,577.257286 C578.07613,577.257286 576.889008,576.651304 576.128698,576.348367 C574.725827,575.789408 573.331184,575.379458 572,575.164441 L572,579.987227 C574.953632,580.028673 576.274792,580.120624 577.669058,580.419395 Z M570,584 C574.076201,584 575.553226,584.056809 576.830942,584.330605 C577.864779,584.552141 578,584.67384 578,585 C578,587.412644 574.854579,590 570,590 C565.145421,590 562,587.412644 562,585 C562,584.67384 562.135221,584.552141 563.169058,584.330605 C564.446774,584.056809 565.923799,584 570,584 Z" transform="translate(-542 -536)"></path></svg>