<svg fill="#1F68B3" xmlns="http://www.w3.org/2000/svg" xmlns:xlink="http://www.w3.org/1999/xlink" version="1.1" x="0px" y="0px" viewBox="0 0 64 64" enable-background="new 0 0 64 64" xml:space="preserve"><g><g><path d="M29.656,18.184c2.992,0.079,5.459-2.353,5.453-5.308c-0.006-3.206-2.336-5.465-5.414-5.491    c-3.039-0.025-5.25,2.373-5.395,5.136C24.132,15.709,26.763,18.272,29.656,18.184z"></path><path d="M42.531,35.263l-3.849-11.442c-0.405-1.205-1.292-2.194-2.455-2.709c-5.431-2.403-10.341-1.114-12.95-0.028    c-1.211,0.505-2.145,1.511-2.564,2.757l-0.176,0.524c-1.244,0.535-2.115,1.771-2.115,3.211c0,0.627,0.165,1.216,0.454,1.724    l-2.006,5.963c-0.343,1.023,0.207,2.132,1.23,2.475c0.17,0.057,0.341,0.09,0.511,0.1c0.858,0.049,1.677-0.476,1.964-1.329    l1.842-5.473c0.185-0.026,0.366-0.068,0.541-0.122v29.16c0,0.796,0.366,1.548,0.997,2.032c0.02,0.017,0.042,0.032,0.062,0.048    c1.949,1.457,4.736,0.074,4.823-2.356l0.414-16.449c0.045-0.55,0.85-0.55,0.895,0l0.13,5.153    c-0.269,0.496-0.422,1.063-0.422,1.666c0,0.666,0.185,1.289,0.51,1.819l0.196,7.811c0.088,2.431,2.876,3.814,4.823,2.355    c0.022-0.014,0.042-0.029,0.062-0.046c0.63-0.484,0.997-1.236,0.997-2.032v-8.273c0.26-0.487,0.405-1.043,0.405-1.633    c0-0.589-0.145-1.145-0.405-1.632v-19.11l2.383,7.083c0.287,0.853,1.106,1.378,1.964,1.329c0.17-0.011,0.341-0.043,0.511-0.1    C42.324,37.396,42.874,36.286,42.531,35.263z M22.958,29.481c-0.008,0.005-0.014,0.008-0.022,0.011    c-0.304,0.164-0.651,0.255-1.02,0.255c-1.199,0-2.171-0.972-2.171-2.171c0-1.198,0.972-2.169,2.171-2.169    c1.199,0,2.171,0.972,2.171,2.169C24.087,28.398,23.632,29.113,22.958,29.481z M33.196,23.089c1.199,0,2.171,0.972,2.171,2.169    c0,1.199-0.972,2.171-2.171,2.171c-1.199,0-2.171-0.972-2.171-2.171C31.025,24.061,31.997,23.089,33.196,23.089z M33.351,52.339    c-1.199,0-2.171-0.972-2.171-2.171s0.972-2.169,2.171-2.169c1.199,0,2.171,0.97,2.171,2.169S34.55,52.339,33.351,52.339z"></path></g><path d="M49.853,42.771l-1.052,0.896l-2.084-2.448c8.383-8.603,8.993-22.377,1.051-31.699C39.344-0.367,24.448-1.559,14.561,6.864   S3.482,30.183,11.905,40.07c2.495,2.928,5.558,5.093,8.89,6.472v-3.98c-2.281-1.157-4.375-2.773-6.134-4.839   c-7.128-8.368-6.12-20.976,2.247-28.104c8.368-7.128,20.976-6.119,28.104,2.249s6.119,20.974-2.249,28.102   c-1.296,1.104-2.693,2.012-4.157,2.729v3.955c1.655-0.663,3.255-1.522,4.763-2.582l2.086,2.446l-1.052,0.896l7.533,8.845   l5.774-4.265L49.853,42.771z"></path></g></svg>