<svg fill="#1F68B3" xmlns="http://www.w3.org/2000/svg" xmlns:xlink="http://www.w3.org/1999/xlink" version="1.1" x="0px" y="0px" viewBox="0 0 100 100" enable-background="new 0 0 100 100" xml:space="preserve"><path fill-rule="evenodd" clip-rule="evenodd" d="M50,10c-13.333,0-26.667,0-40,0c0,13.334,0,26.667,0,40c0,22.091,17.908,40,40,40  c22.092,0,40-17.909,40-40C90,27.908,72.092,10,50,10z M55.479,76.316H45.221v-9.987h10.257V76.316z M67.817,44.901  c-1.278,1.966-4.01,4.642-8.194,8.03c-2.167,1.754-3.511,3.163-4.035,4.23c-0.523,1.065-0.759,2.973-0.71,5.721h-9.309  c-0.024-1.303-0.037-2.097-0.037-2.38c0-2.938,0.499-5.356,1.497-7.251c0.998-1.896,2.993-4.027,5.986-6.396  c2.992-2.369,4.781-3.921,5.365-4.656c0.901-1.16,1.351-2.44,1.351-3.838c0-1.943-0.797-3.607-2.392-4.993  c-1.593-1.387-3.74-2.08-6.441-2.08c-2.603,0-4.781,0.722-6.534,2.168c-1.753,1.445-2.957,3.649-3.614,6.61l-9.417-1.137  c0.268-4.241,2.123-7.842,5.566-10.804c3.443-2.961,7.963-4.443,13.561-4.443c5.89,0,10.574,1.499,14.054,4.497  c3.479,2.997,5.219,6.485,5.219,10.466C69.732,40.85,69.094,42.935,67.817,44.901z"></path></svg>