<svg fill="#1F68B3" xmlns="http://www.w3.org/2000/svg" xmlns:xlink="http://www.w3.org/1999/xlink" version="1.1" x="0px" y="0px" viewBox="0 0 841.889 595.281" enable-background="new 0 0 841.889 595.281" xml:space="preserve"><g><path fill="#1F68B3" d="M794.531,484.357c-13.796,0-25.549,8.545-30.388,20.637h-47.862V350.451H588.347   c13.77-14.156,26.199-27.744,36.072-39.896h-72.735l-61.993-58.508l-67.412,167.096l-71.082-189.7l-50.77,81.112h-82.86   c9.667,11.898,21.784,25.172,35.228,39.025H125.609v111.232l-58.18,30.568c-5.576-4.367-12.479-7.023-20.058-7.023   c-18.104,0-32.777,14.699-32.777,32.803c0,18.102,14.674,32.775,32.777,32.775c18.103,0,32.776-14.674,32.776-32.775   c0-1.475-0.242-2.896-0.435-4.346l70.61-37.074V374.285h127.174C342.242,437.33,421,502.738,421,502.738   s78.007-64.793,142.582-127.572h127.995v154.52h72.698c4.913,11.877,16.606,20.25,30.255,20.25   c18.102,0,32.765-14.697,32.765-32.775C827.295,499.033,812.608,484.357,794.531,484.357z"></path><path fill="#1F68B3" d="M47.371,110.888c13.371,0,24.812-8.002,29.905-19.468h48.332v154.522h57.745   c4.176,15.458,10.765,29.662,16.715,39.897h86.673l70.055-111.908l66.339,177.051l57.191-141.752l81.183,76.609h80.421   c5.829-10.041,12.309-23.885,16.496-39.005h57.854V135.566l59.012-30.968c5.408,3.887,12.045,6.312,19.238,6.312   c18.102,0,32.752-14.687,32.752-32.79c0-18.101-14.675-32.753-32.752-32.753c-18.104,0-32.778,14.675-32.778,32.753   c0,1.859,0.267,3.62,0.558,5.408l-70.732,37.121v101.494h-29.035c0.084-1.545,0.253-3.091,0.253-4.61   c0-69.019-55.947-124.979-124.977-124.979c-54.343,0-98.982,35.505-116.144,83.982c-17.028-48.779-62.948-83.982-117.52-83.982   c-69.018,0-124.965,55.96-124.965,124.979c0,1.23,0.157,2.473,0.205,3.705h-29.072V66.707H77.999   c-4.658-12.455-16.557-21.362-30.628-21.362c-18.104,0-32.777,14.675-32.777,32.753C14.594,96.225,29.268,110.888,47.371,110.888z"></path><path fill="#1F68B3" d="M47.371,330.975c13.732,0,25.463-8.475,30.339-20.42h109.518h30.327   c-6.359-7.846-11.729-15.11-15.688-21.543c-0.604-0.966-1.231-2.123-1.834-3.172H160.28H77.71   c-4.899-11.998-16.629-20.42-30.339-20.42c-18.104,0-32.777,14.699-32.777,32.802C14.594,316.322,29.268,330.975,47.371,330.975z"></path><path fill="#1F68B3" d="M794.531,265.419c-13.732,0-25.463,8.448-30.339,20.42H641.965c-0.614,1.049-1.242,2.206-1.833,3.172   c-3.972,6.434-9.329,13.698-15.689,21.53l139.749-0.012c4.876,11.971,16.606,20.42,30.339,20.42   c18.102,0,32.752-14.674,32.752-32.754C827.282,280.118,812.608,265.419,794.531,265.419z"></path></g></svg>