<svg fill="#1F68B3" xmlns="http://www.w3.org/2000/svg" xmlns:xlink="http://www.w3.org/1999/xlink" version="1.1" x="0px" y="0px" viewBox="0 0 64 64" enable-background="new 0 0 64 64" xml:space="preserve"><g><path d="M59.98,11.5H4.02c-1.616,0-2.926,1.309-2.926,2.925v35.149c0,1.616,1.31,2.926,2.926,2.926h55.96   c1.616,0,2.926-1.309,2.926-2.926V14.425C62.906,12.81,61.596,11.5,59.98,11.5z M57.632,18.587c1.266,0,2.292,1.026,2.292,2.292   s-1.026,2.292-2.292,2.292c-1.265,0-2.292-1.026-2.292-2.292S56.366,18.587,57.632,18.587z M55.34,27.851   c0-1.107,0.786-2.031,1.83-2.245c0.149-0.031,0.304-0.047,0.462-0.047c0.867,0,1.62,0.481,2.01,1.191   c0.002,0.003,0.004,0.006,0.005,0.009c0.012,0.023,0.022,0.047,0.034,0.07c0.154,0.308,0.243,0.654,0.243,1.022c0,0,0,0,0,0   c0,0,0,0,0,0c0,1.028-0.677,1.898-1.61,2.188c-0.215,0.067-0.444,0.103-0.681,0.103c-0.237,0-0.466-0.036-0.681-0.103   C56.017,29.749,55.34,28.88,55.34,27.851C55.34,27.851,55.34,27.851,55.34,27.851C55.34,27.851,55.34,27.851,55.34,27.851z    M50.83,18.587c1.265,0,2.292,1.026,2.292,2.292s-1.026,2.292-2.292,2.292c-1.265,0-2.292-1.026-2.292-2.292   S49.564,18.587,50.83,18.587z M48.538,27.851c0-1.107,0.786-2.031,1.83-2.245c0.149-0.031,0.304-0.047,0.462-0.047   c0.158,0,0.313,0.016,0.462,0.047c1.044,0.214,1.83,1.138,1.83,2.245c0,0,0,0,0,0c0,0,0,0,0,0c0,1.028-0.678,1.898-1.61,2.188   c-0.215,0.067-0.444,0.103-0.681,0.103c-0.237,0-0.466-0.036-0.681-0.103C49.215,29.749,48.538,28.88,48.538,27.851   C48.538,27.851,48.538,27.851,48.538,27.851C48.538,27.851,48.538,27.851,48.538,27.851z M45.175,35.568v9.58   c0,1.209-0.98,2.189-2.189,2.189H8.58c-1.209,0-2.189-0.98-2.189-2.189V18.851c0-1.209,0.98-2.188,2.189-2.188h34.406   c1.209,0,2.189,0.979,2.189,2.188V35.568z M57.974,47.337h-7.705c-0.969,0-1.755-0.786-1.755-1.755c0-0.97,0.786-1.755,1.755-1.755   h7.705c0.969,0,1.755,0.786,1.755,1.755C59.729,46.552,58.943,47.337,57.974,47.337z M58.144,42.363H50.44   c-0.97,0-1.756-0.786-1.756-1.755c0-0.909,0.691-1.656,1.577-1.746c0.059-0.006,0.119-0.009,0.18-0.009h7.704   c0.97,0,1.755,0.786,1.755,1.755C59.899,41.578,59.113,42.363,58.144,42.363z M60.061,35.814c-0.09,0.886-0.837,1.577-1.746,1.577   H50.61c-0.908,0-1.656-0.691-1.746-1.577c-0.006-0.059-0.009-0.119-0.009-0.18c0-0.969,0.786-1.755,1.755-1.755h7.705   c0.97,0,1.755,0.786,1.755,1.755C60.07,35.695,60.067,35.755,60.061,35.814z"></path><path d="M39.377,28.556l-2.445-3.682c-0.037-0.056-0.079-0.111-0.122-0.162c-0.022-0.026-0.046-0.051-0.069-0.075   c-0.232-0.24-0.53-0.401-0.859-0.463l-0.085-0.012c-0.049-0.007-0.099-0.013-0.149-0.015c-0.024-0.001-0.049-0.001-0.074-0.001   h-0.012c-0.549,0.004-1.061,0.285-1.36,0.748l-2.35,3.644l-2.794-6.305c-0.28-0.633-0.932-1.02-1.621-0.965   c-0.69,0.055-1.27,0.54-1.447,1.21l-3.826,14.508l-3.767-7.528c-0.262-0.523-0.784-0.866-1.367-0.899   c-0.098-0.005-0.196-0.002-0.292,0.011c-0.098,0.013-0.195,0.033-0.289,0.063c-0.004,0-0.007,0.001-0.012,0.003   c-0.095,0.031-0.186,0.07-0.275,0.117c-0.001,0-0.001,0-0.002,0.001c-0.083,0.046-0.164,0.098-0.239,0.159   c-0.135,0.106-0.256,0.237-0.352,0.387l-3.533,5.438H8.9v3.262h4.022c0.552,0,1.066-0.279,1.367-0.742l2.464-3.792l4.427,8.846   c0.028,0.055,0.059,0.11,0.094,0.161c0.07,0.109,0.153,0.208,0.245,0.295c0.054,0.051,0.112,0.098,0.172,0.142   c0.317,0.226,0.711,0.336,1.116,0.295c0.379-0.039,0.723-0.209,0.982-0.465c0.044-0.044,0.084-0.088,0.122-0.136   c0.013-0.016,0.026-0.032,0.037-0.048c0.024-0.033,0.048-0.067,0.069-0.101c0.022-0.035,0.043-0.07,0.062-0.106   c0.019-0.036,0.037-0.073,0.054-0.112c0.033-0.077,0.061-0.155,0.082-0.237l3.743-14.191l2.134,4.817   c0.092,0.206,0.221,0.385,0.381,0.533c0.053,0.049,0.109,0.095,0.168,0.136c0.235,0.167,0.515,0.272,0.815,0.295   c0.596,0.047,1.173-0.239,1.498-0.742l2.638-4.089l1.551,2.334c0.077,0.115,0.165,0.217,0.263,0.306   c0.017,0.016,0.034,0.031,0.052,0.045c0.059,0.05,0.12,0.095,0.185,0.134c0.019,0.012,0.038,0.023,0.058,0.033   c0.014,0.01,0.028,0.017,0.042,0.023c0.03,0.016,0.06,0.031,0.089,0.044c0.056,0.026,0.114,0.048,0.173,0.066   c0.03,0.01,0.06,0.019,0.091,0.027c0.016,0.004,0.032,0.007,0.048,0.011c0.019,0.005,0.039,0.009,0.058,0.012   c0.091,0.018,0.183,0.028,0.276,0.028h4.188v-3.262H39.377z"></path></g></svg>