<svg fill="#1F68B3" xmlns="http://www.w3.org/2000/svg" xmlns:xlink="http://www.w3.org/1999/xlink" version="1.1" x="0px" y="0px" viewBox="0 0 100 100" enable-background="new 0 0 100 100" xml:space="preserve"><g><path d="M79.807,25.391L57.035,12.07c-1.416-0.832-3.387-0.104-4.397,1.631c-1.015,1.729-0.682,3.802,0.737,4.633l1.559,0.913   L23.322,73.275c-1.424,2.424-1.919,5.396-1.149,8.329c0.77,2.939,2.652,5.283,5.078,6.704l0.678,0.396   c2.429,1.42,5.396,1.914,8.335,1.144c2.934-0.765,5.279-2.65,6.7-5.076l31.613-54.028l1.567,0.916   c1.416,0.827,3.387,0.101,4.4-1.633C81.557,28.298,81.227,26.224,79.807,25.391z M57.582,55.128l-15.581-9.116L56.967,20.44   l15.581,9.118L57.582,55.128z"></path></g></svg>