<svg fill="#1F68B3" xmlns="http://www.w3.org/2000/svg" xmlns:xlink="http://www.w3.org/1999/xlink" version="1.1" x="0px" y="0px" viewBox="0 0 100 100" style="enable-background:new 0 0 100 100;" xml:space="preserve"><style type="text/css">
	.st0{fill:none;}
</style><title>Asset 38</title><path class="st0" d="M24.8,51.9l0.4,0.3c0.3,0.2,0.4,0.6,0.3,0.9l-0.2,0.5c-0.1,0.3,0,0.5,0.3,0.6h0.1l0.5,0.1  c0.3,0.1,0.6,0.4,0.6,0.7v0.5c0,0.3,0.2,0.5,0.5,0.5h0.1l0.5-0.1c0.3-0.1,0.7,0.1,0.9,0.4l0.2,0.5c0.1,0.2,0.4,0.3,0.7,0.2  c0,0,0.1,0,0.1-0.1l0.4-0.3c0.3-0.2,0.7-0.2,0.9,0l0.4,0.3c0.2,0.2,0.5,0.1,0.7-0.1c0,0,0-0.1,0.1-0.1l0.2-0.5  c0.2-0.3,0.5-0.4,0.9-0.4L34,56c0.3,0.1,0.5-0.1,0.6-0.3v-0.1V55c0-0.3,0.3-0.6,0.6-0.7l0.5-0.1c0.3,0,0.5-0.3,0.4-0.6v-0.1L36,53  c-0.1-0.3,0-0.7,0.3-0.9l0.4-0.3c0.2-0.1,0.3-0.4,0.2-0.7c0,0,0-0.1-0.1-0.1l-0.4-0.4c-0.2-0.3-0.3-0.6-0.1-0.9l0.3-0.5  c0.1-0.2,0.1-0.5-0.1-0.7c0,0-0.1,0-0.1-0.1l-0.5-0.1c-0.3-0.1-0.5-0.5-0.5-0.8l0.1-0.5c0-0.3-0.1-0.5-0.4-0.6H35h-0.5  c-0.3,0-0.6-0.2-0.8-0.5l-0.2-0.5c-0.1-0.3-0.3-0.4-0.6-0.3h-0.1l-0.5,0.2c-0.3,0.1-0.7,0.1-0.9-0.2l-0.3-0.4  c-0.2-0.2-0.5-0.2-0.7-0.1l-0.1,0.1L30,45.2c-0.2,0.3-0.6,0.3-0.9,0.2l-0.5-0.2c-0.2-0.1-0.5,0-0.7,0.2v0.1L27.8,46  c-0.1,0.3-0.4,0.5-0.8,0.5h-0.5c-0.3,0-0.5,0.2-0.5,0.5v0.1l0.1,0.5c0,0.3-0.2,0.7-0.5,0.8l-0.5,0.2c-0.3,0.1-0.4,0.4-0.3,0.6  c0,0,0,0.1,0.1,0.1l0.3,0.5c0.2,0.3,0.1,0.7-0.1,0.9l-0.4,0.4C24.5,51.3,24.5,51.6,24.8,51.9C24.7,51.8,24.8,51.9,24.8,51.9z"></path><path class="st0" d="M62.9,51.1c-0.2,0.2-0.2,0.5,0,0.7l0.1,0.1l0.4,0.3c0.3,0.2,0.4,0.6,0.3,0.9l-0.2,0.5c-0.1,0.3,0,0.5,0.3,0.6  h0.1l0.5,0.1c0.3,0.1,0.6,0.4,0.6,0.7v0.5c0,0.3,0.2,0.5,0.5,0.5h0.1l0.5-0.1c0.3-0.1,0.7,0.1,0.9,0.4l0.2,0.5  c0.1,0.2,0.4,0.3,0.7,0.2c0,0,0.1,0,0.1-0.1l0.4-0.3c0.3-0.2,0.7-0.2,0.9,0l0.4,0.3c0.2,0.2,0.5,0.1,0.7-0.1c0,0,0-0.1,0.1-0.1  l0.2-0.5c0.2-0.3,0.5-0.4,0.9-0.4l0.5,0.1c0.2,0.1,0.5,0.1,0.7-0.2c0.1-0.1,0.1-0.2,0.1-0.4V55c0-0.3,0.3-0.6,0.6-0.7l0.5-0.1  c0.3,0,0.5-0.3,0.4-0.6v-0.1L74.2,53c-0.1-0.3,0-0.7,0.3-0.9l0.4-0.3c0.2-0.1,0.3-0.4,0.2-0.7c0,0,0-0.1-0.1-0.1l-0.4-0.4  c-0.2-0.3-0.3-0.6-0.1-0.9l0.3-0.5c0.1-0.2,0.1-0.5-0.1-0.7c0,0-0.1,0-0.1-0.1l-0.5-0.2c-0.3-0.1-0.5-0.5-0.5-0.8l0.1-0.5  c0-0.3-0.1-0.5-0.4-0.6h-0.1h-0.5c-0.3,0-0.6-0.2-0.8-0.5l-0.1-0.5c-0.1-0.3-0.3-0.4-0.6-0.3h-0.1l-0.5,0.2  c-0.3,0.1-0.7,0.1-0.9-0.2l-0.3-0.4c-0.2-0.2-0.5-0.2-0.7-0.1l-0.1,0.1L68.3,45c-0.2,0.3-0.6,0.3-0.9,0.2L67,45  c-0.2-0.1-0.5,0-0.7,0.2v0.1L66,46c-0.1,0.3-0.4,0.5-0.8,0.5h-0.5c-0.3,0-0.5,0.2-0.5,0.5v0.1l0.1,0.5c0,0.3-0.2,0.7-0.5,0.8  l-0.5,0.2C63,48.7,62.9,49,63,49.2c0,0,0,0.1,0.1,0.1l0.3,0.5c0.2,0.3,0.1,0.7-0.1,0.9L62.9,51.1z"></path><path class="st0" d="M54.9,52.2l0.4-0.3c0.2-0.1,0.3-0.4,0.2-0.7c0,0,0-0.1-0.1-0.1L55,50.7c-0.2-0.3-0.3-0.6-0.1-0.9l0.3-0.5  c0.1-0.2,0.1-0.5-0.1-0.7c0,0-0.1,0-0.1-0.1l-0.5-0.2c-0.3-0.1-0.5-0.5-0.5-0.8l0.1-0.5c0-0.3-0.1-0.5-0.4-0.6h-0.1h-0.5  c-0.3,0-0.6-0.2-0.8-0.5l-0.2-0.5c-0.1-0.3-0.3-0.4-0.6-0.3h-0.1L51,45.4c-0.3,0.1-0.7,0.1-0.9-0.2l-0.3-0.4  c-0.2-0.2-0.5-0.2-0.7-0.1L49,44.8l-0.3,0.4c-0.2,0.3-0.6,0.3-0.9,0.2l-0.5-0.2c-0.2-0.1-0.5,0-0.7,0.2v0.1L46.4,46  c-0.1,0.3-0.4,0.5-0.8,0.5h-0.5c-0.3,0-0.5,0.2-0.5,0.5v0.1l0.1,0.5c0,0.3-0.2,0.7-0.5,0.8l-0.5,0.2c-0.3,0.1-0.4,0.4-0.3,0.6  c0,0,0,0.1,0.1,0.1l0.3,0.5c0.2,0.3,0.1,0.7-0.1,0.9l-0.4,0.4c-0.2,0.2-0.2,0.5,0,0.7l0.1,0.1l0.4,0.3c0.3,0.2,0.4,0.6,0.3,0.9  l-0.2,0.5c-0.1,0.3,0,0.5,0.3,0.6h0.1l0.5,0.1c0.3,0.1,0.6,0.4,0.6,0.7v0.5c0,0.3,0.2,0.5,0.5,0.5H46l0.5-0.1  c0.3-0.1,0.7,0.1,0.9,0.4l0.2,0.5c0.1,0.2,0.4,0.3,0.7,0.2c0,0,0.1,0,0.1-0.1l0.4-0.3c0.3-0.2,0.7-0.2,0.9,0l0.4,0.3  c0.2,0.2,0.5,0.1,0.7-0.1c0,0,0-0.1,0.1-0.1l0.2-0.5c0.2-0.3,0.5-0.4,0.9-0.4l0.5,0.1c0.3,0.1,0.5-0.1,0.6-0.3v-0.1V55  c0-0.3,0.3-0.6,0.6-0.7l0.5-0.1c0.3,0,0.5-0.3,0.4-0.6v-0.1L54.4,53C54.4,52.7,54.6,52.4,54.9,52.2z"></path><rect x="24.5" y="12" class="st0" width="17" height="2.9"></rect><rect x="24.6" y="74.8" class="st0" width="18.2" height="3.7"></rect><rect x="24.7" y="81" class="st0" width="29.4" height="3.7"></rect><rect x="44.7" y="74.8" class="st0" width="9.4" height="3.7"></rect><path class="st0" d="M43.4,51.9l0.4,0.3c0.3,0.2,0.4,0.6,0.3,0.9l-0.2,0.5c-0.1,0.3,0,0.5,0.3,0.6h0.1l0.5,0.1  c0.3,0.1,0.6,0.4,0.6,0.7v0.5c0,0.3,0.2,0.5,0.5,0.5H46l0.5-0.1c0.3-0.1,0.7,0.1,0.9,0.4l0.2,0.5c0.1,0.2,0.4,0.3,0.7,0.2  c0,0,0.1,0,0.1-0.1l0.4-0.3c0.3-0.2,0.7-0.2,0.9,0l0.4,0.3c0.2,0.2,0.5,0.1,0.7-0.1c0,0,0-0.1,0.1-0.1l0.2-0.5  c0.2-0.3,0.5-0.4,0.9-0.4l0.5,0.1c0.3,0.1,0.5-0.1,0.6-0.3v-0.1V55c0-0.3,0.3-0.6,0.6-0.7l0.5-0.1c0.3,0,0.5-0.3,0.4-0.6v-0.1  L54.4,53c-0.1-0.3,0-0.7,0.3-0.9l0.4-0.3c0.2-0.1,0.3-0.4,0.2-0.7c0,0,0-0.1-0.1-0.1l-0.4-0.4c-0.2-0.3-0.3-0.6-0.1-0.9l0.3-0.5  c0.1-0.2,0.1-0.5-0.1-0.7c0,0-0.1,0-0.1-0.1l-0.5-0.2c-0.3-0.1-0.5-0.5-0.5-0.8l0.1-0.5c0-0.3-0.1-0.5-0.4-0.6h-0.1H53  c-0.3,0-0.6-0.2-0.8-0.5L52,45.3c-0.1-0.3-0.3-0.4-0.6-0.3h-0.1l-0.5,0.2c-0.3,0.1-0.7,0.1-0.9-0.2l-0.3-0.4  c-0.2-0.2-0.5-0.2-0.7-0.1l-0.1,0.1L48.5,45c-0.2,0.3-0.6,0.3-0.9,0.2L47.1,45c-0.2-0.1-0.5,0-0.7,0.2v0.1L46.3,46  c-0.1,0.3-0.4,0.5-0.8,0.5H45c-0.3,0-0.5,0.2-0.5,0.5v0.1l0.1,0.5c0,0.3-0.2,0.7-0.5,0.8l-0.5,0.2c-0.3,0.1-0.4,0.4-0.3,0.6  c0,0,0,0.1,0.1,0.1l0.3,0.5c0.2,0.3,0.1,0.7-0.1,0.9l-0.4,0.4c-0.2,0.2-0.1,0.5,0.1,0.7C43.3,51.8,43.3,51.9,43.4,51.9z"></path><rect x="33.4" y="68.6" class="st0" width="20.7" height="3.7"></rect><rect x="24.5" y="12" class="st0" width="17" height="2.9"></rect><path class="st0" d="M24.8,51.9l0.4,0.3c0.3,0.2,0.4,0.6,0.3,0.9l-0.2,0.5c-0.1,0.3,0,0.5,0.3,0.6h0.1l0.5,0.1  c0.3,0.1,0.6,0.4,0.6,0.7v0.5c0,0.3,0.2,0.5,0.5,0.5h0.1l0.5-0.1c0.3-0.1,0.7,0.1,0.9,0.4l0.2,0.5c0.1,0.2,0.4,0.3,0.7,0.2  c0,0,0.1,0,0.1-0.1l0.4-0.3c0.3-0.2,0.7-0.2,0.9,0l0.4,0.3c0.2,0.2,0.5,0.1,0.7-0.1c0,0,0-0.1,0.1-0.1l0.2-0.5  c0.2-0.3,0.5-0.4,0.9-0.4L34,56c0.3,0.1,0.5-0.1,0.6-0.3v-0.1V55c0-0.3,0.3-0.6,0.6-0.7l0.5-0.1c0.3,0,0.5-0.3,0.4-0.6v-0.1L36,53  c-0.1-0.3,0-0.7,0.3-0.9l0.4-0.3c0.2-0.1,0.3-0.4,0.2-0.7c0,0,0-0.1-0.1-0.1l-0.4-0.4c-0.2-0.3-0.3-0.6-0.1-0.9l0.3-0.5  c0.1-0.2,0.1-0.5-0.1-0.7c0,0-0.1,0-0.1-0.1l-0.5-0.1c-0.3-0.1-0.5-0.5-0.5-0.8l0.1-0.5c0-0.3-0.1-0.5-0.4-0.6H35h-0.5  c-0.3,0-0.6-0.2-0.8-0.5l-0.2-0.5c-0.1-0.3-0.3-0.4-0.6-0.3h-0.1l-0.5,0.2c-0.3,0.1-0.7,0.1-0.9-0.2l-0.3-0.4  c-0.2-0.2-0.5-0.2-0.7-0.1l-0.1,0.1L30,45.2c-0.2,0.3-0.6,0.3-0.9,0.2l-0.5-0.2c-0.2-0.1-0.5,0-0.7,0.2v0.1L27.8,46  c-0.1,0.3-0.4,0.5-0.8,0.5h-0.5c-0.3,0-0.5,0.2-0.5,0.5v0.1l0.1,0.5c0,0.3-0.2,0.7-0.5,0.8l-0.5,0.2c-0.3,0.1-0.4,0.4-0.3,0.6  c0,0,0,0.1,0.1,0.1l0.3,0.5c0.2,0.3,0.1,0.7-0.1,0.9l-0.4,0.4C24.5,51.3,24.5,51.6,24.8,51.9C24.7,51.8,24.8,51.9,24.8,51.9z"></path><rect x="24.6" y="68.6" class="st0" width="6.9" height="3.7"></rect><rect x="24.7" y="62" class="st0" width="50.6" height="4.1"></rect><path class="st0" d="M62.9,51.1c-0.2,0.2-0.2,0.5,0,0.7l0.1,0.1l0.4,0.3c0.3,0.2,0.4,0.6,0.3,0.9l-0.2,0.5c-0.1,0.3,0,0.5,0.3,0.6  h0.1l0.5,0.1c0.3,0.1,0.6,0.4,0.6,0.7v0.5c0,0.3,0.2,0.5,0.5,0.5h0.1l0.5-0.1c0.3-0.1,0.7,0.1,0.9,0.4l0.2,0.5  c0.1,0.2,0.4,0.3,0.7,0.2c0,0,0.1,0,0.1-0.1l0.4-0.3c0.3-0.2,0.7-0.2,0.9,0l0.4,0.3c0.2,0.2,0.5,0.1,0.7-0.1c0,0,0-0.1,0.1-0.1  l0.2-0.5c0.2-0.3,0.5-0.4,0.9-0.4l0.5,0.1c0.2,0.1,0.5,0.1,0.7-0.2c0.1-0.1,0.1-0.2,0.1-0.4V55c0-0.3,0.3-0.6,0.6-0.7l0.5-0.1  c0.3,0,0.5-0.3,0.4-0.6v-0.1L74.2,53c-0.1-0.3,0-0.7,0.3-0.9l0.4-0.3c0.2-0.1,0.3-0.4,0.2-0.7c0,0,0-0.1-0.1-0.1l-0.4-0.4  c-0.2-0.3-0.3-0.6-0.1-0.9l0.3-0.5c0.1-0.2,0.1-0.5-0.1-0.7c0,0-0.1,0-0.1-0.1l-0.5-0.2c-0.3-0.1-0.5-0.5-0.5-0.8l0.1-0.5  c0-0.3-0.1-0.5-0.4-0.6h-0.1h-0.5c-0.3,0-0.6-0.2-0.8-0.5l-0.1-0.5c-0.1-0.3-0.3-0.4-0.6-0.3h-0.1l-0.5,0.2  c-0.3,0.1-0.7,0.1-0.9-0.2l-0.3-0.4c-0.2-0.2-0.5-0.2-0.7-0.1l-0.1,0.1L68.3,45c-0.2,0.3-0.6,0.3-0.9,0.2L67,45  c-0.2-0.1-0.5,0-0.7,0.2v0.1L66,46c-0.1,0.3-0.4,0.5-0.8,0.5h-0.5c-0.3,0-0.5,0.2-0.5,0.5v0.1l0.1,0.5c0,0.3-0.2,0.7-0.5,0.8  l-0.5,0.2C63,48.7,62.9,49,63,49.2c0,0,0,0.1,0.1,0.1l0.3,0.5c0.2,0.3,0.1,0.7-0.1,0.9L62.9,51.1z"></path><rect x="55.6" y="68.6" class="st0" width="19.7" height="3.7"></rect><rect x="55.6" y="80.9" class="st0" width="19.7" height="3.7"></rect><rect x="55.6" y="74.8" class="st0" width="19.7" height="3.7"></rect><circle cx="67.6" cy="25" r="2"></circle><rect x="24.6" y="68.6" class="st0" width="6.9" height="3.7"></rect><rect x="24.6" y="74.8" class="st0" width="18.2" height="3.7"></rect><rect x="33.4" y="68.6" class="st0" width="20.7" height="3.7"></rect><rect x="24.7" y="81" class="st0" width="29.4" height="3.7"></rect><rect x="44.7" y="74.8" class="st0" width="9.4" height="3.7"></rect><rect x="24.5" y="12" class="st0" width="17" height="2.9"></rect><path class="st0" d="M54.9,52.2l0.4-0.3c0.2-0.1,0.3-0.4,0.2-0.7c0,0,0-0.1-0.1-0.1L55,50.7c-0.2-0.3-0.3-0.6-0.1-0.9l0.3-0.5  c0.1-0.2,0.1-0.5-0.1-0.7c0,0-0.1,0-0.1-0.1l-0.5-0.2c-0.3-0.1-0.5-0.5-0.5-0.8l0.1-0.5c0-0.3-0.1-0.5-0.4-0.6h-0.1h-0.5  c-0.3,0-0.6-0.2-0.8-0.5l-0.2-0.5c-0.1-0.3-0.3-0.4-0.6-0.3h-0.1L51,45.4c-0.3,0.1-0.7,0.1-0.9-0.2l-0.3-0.4  c-0.2-0.2-0.5-0.2-0.7-0.1L49,44.8l-0.3,0.4c-0.2,0.3-0.6,0.3-0.9,0.2l-0.5-0.2c-0.2-0.1-0.5,0-0.7,0.2v0.1L46.4,46  c-0.1,0.3-0.4,0.5-0.8,0.5h-0.5c-0.3,0-0.5,0.2-0.5,0.5v0.1l0.1,0.5c0,0.3-0.2,0.7-0.5,0.8l-0.5,0.2c-0.3,0.1-0.4,0.4-0.3,0.6  c0,0,0,0.1,0.1,0.1l0.3,0.5c0.2,0.3,0.1,0.7-0.1,0.9l-0.4,0.4c-0.2,0.2-0.2,0.5,0,0.7l0.1,0.1l0.4,0.3c0.3,0.2,0.4,0.6,0.3,0.9  l-0.2,0.5c-0.1,0.3,0,0.5,0.3,0.6h0.1l0.5,0.1c0.3,0.1,0.6,0.4,0.6,0.7v0.5c0,0.3,0.2,0.5,0.5,0.5H46l0.5-0.1  c0.3-0.1,0.7,0.1,0.9,0.4l0.2,0.5c0.1,0.2,0.4,0.3,0.7,0.2c0,0,0.1,0,0.1-0.1l0.4-0.3c0.3-0.2,0.7-0.2,0.9,0l0.4,0.3  c0.2,0.2,0.5,0.1,0.7-0.1c0,0,0-0.1,0.1-0.1l0.2-0.5c0.2-0.3,0.5-0.4,0.9-0.4l0.5,0.1c0.3,0.1,0.5-0.1,0.6-0.3v-0.1V55  c0-0.3,0.3-0.6,0.6-0.7l0.5-0.1c0.3,0,0.5-0.3,0.4-0.6v-0.1L54.4,53C54.4,52.7,54.6,52.4,54.9,52.2z"></path><path class="st0" d="M24.8,51.9l0.4,0.3c0.3,0.2,0.4,0.6,0.3,0.9l-0.2,0.5c-0.1,0.3,0,0.5,0.3,0.6h0.1l0.5,0.1  c0.3,0.1,0.6,0.4,0.6,0.7v0.5c0,0.3,0.2,0.5,0.5,0.5h0.1l0.5-0.1c0.3-0.1,0.7,0.1,0.9,0.4l0.2,0.5c0.1,0.2,0.4,0.3,0.7,0.2  c0,0,0.1,0,0.1-0.1l0.4-0.3c0.3-0.2,0.7-0.2,0.9,0l0.4,0.3c0.2,0.2,0.5,0.1,0.7-0.1c0,0,0-0.1,0.1-0.1l0.2-0.5  c0.2-0.3,0.5-0.4,0.9-0.4L34,56c0.3,0.1,0.5-0.1,0.6-0.3v-0.1V55c0-0.3,0.3-0.6,0.6-0.7l0.5-0.1c0.3,0,0.5-0.3,0.4-0.6v-0.1L36,53  c-0.1-0.3,0-0.7,0.3-0.9l0.4-0.3c0.2-0.1,0.3-0.4,0.2-0.7c0,0,0-0.1-0.1-0.1l-0.4-0.4c-0.2-0.3-0.3-0.6-0.1-0.9l0.3-0.5  c0.1-0.2,0.1-0.5-0.1-0.7c0,0-0.1,0-0.1-0.1l-0.5-0.1c-0.3-0.1-0.5-0.5-0.5-0.8l0.1-0.5c0-0.3-0.1-0.5-0.4-0.6H35h-0.5  c-0.3,0-0.6-0.2-0.8-0.5l-0.2-0.5c-0.1-0.3-0.3-0.4-0.6-0.3h-0.1l-0.5,0.2c-0.3,0.1-0.7,0.1-0.9-0.2l-0.3-0.4  c-0.2-0.2-0.5-0.2-0.7-0.1l-0.1,0.1L30,45.2c-0.2,0.3-0.6,0.3-0.9,0.2l-0.5-0.2c-0.2-0.1-0.5,0-0.7,0.2v0.1L27.8,46  c-0.1,0.3-0.4,0.5-0.8,0.5h-0.5c-0.3,0-0.5,0.2-0.5,0.5v0.1l0.1,0.5c0,0.3-0.2,0.7-0.5,0.8l-0.5,0.2c-0.3,0.1-0.4,0.4-0.3,0.6  c0,0,0,0.1,0.1,0.1l0.3,0.5c0.2,0.3,0.1,0.7-0.1,0.9l-0.4,0.4C24.5,51.3,24.5,51.6,24.8,51.9C24.7,51.8,24.8,51.9,24.8,51.9z"></path><path class="st0" d="M62.9,51.1c-0.2,0.2-0.2,0.5,0,0.7l0.1,0.1l0.4,0.3c0.3,0.2,0.4,0.6,0.3,0.9l-0.2,0.5c-0.1,0.3,0,0.5,0.3,0.6  h0.1l0.5,0.1c0.3,0.1,0.6,0.4,0.6,0.7v0.5c0,0.3,0.2,0.5,0.5,0.5h0.1l0.5-0.1c0.3-0.1,0.7,0.1,0.9,0.4l0.2,0.5  c0.1,0.2,0.4,0.3,0.7,0.2c0,0,0.1,0,0.1-0.1l0.4-0.3c0.3-0.2,0.7-0.2,0.9,0l0.4,0.3c0.2,0.2,0.5,0.1,0.7-0.1c0,0,0-0.1,0.1-0.1  l0.2-0.5c0.2-0.3,0.5-0.4,0.9-0.4l0.5,0.1c0.2,0.1,0.5,0.1,0.7-0.2c0.1-0.1,0.1-0.2,0.1-0.4V55c0-0.3,0.3-0.6,0.6-0.7l0.5-0.1  c0.3,0,0.5-0.3,0.4-0.6v-0.1L74.2,53c-0.1-0.3,0-0.7,0.3-0.9l0.4-0.3c0.2-0.1,0.3-0.4,0.2-0.7c0,0,0-0.1-0.1-0.1l-0.4-0.4  c-0.2-0.3-0.3-0.6-0.1-0.9l0.3-0.5c0.1-0.2,0.1-0.5-0.1-0.7c0,0-0.1,0-0.1-0.1l-0.5-0.2c-0.3-0.1-0.5-0.5-0.5-0.8l0.1-0.5  c0-0.3-0.1-0.5-0.4-0.6h-0.1h-0.5c-0.3,0-0.6-0.2-0.8-0.5l-0.1-0.5c-0.1-0.3-0.3-0.4-0.6-0.3h-0.1l-0.5,0.2  c-0.3,0.1-0.7,0.1-0.9-0.2l-0.3-0.4c-0.2-0.2-0.5-0.2-0.7-0.1l-0.1,0.1L68.3,45c-0.2,0.3-0.6,0.3-0.9,0.2L67,45  c-0.2-0.1-0.5,0-0.7,0.2v0.1L66,46c-0.1,0.3-0.4,0.5-0.8,0.5h-0.5c-0.3,0-0.5,0.2-0.5,0.5v0.1l0.1,0.5c0,0.3-0.2,0.7-0.5,0.8  l-0.5,0.2C63,48.7,62.9,49,63,49.2c0,0,0,0.1,0.1,0.1l0.3,0.5c0.2,0.3,0.1,0.7-0.1,0.9L62.9,51.1z"></path><path class="st0" d="M67.6,22.2c-4.9,0-8.8,4-8.8,8.9c0,4,2.7,7.4,6.5,8.5v-9.2c0-0.1-0.2-0.2-0.3-0.2c-0.1,0-0.2,0.1-0.2,0.2v3.7  c0.1,0.6-0.4,1.1-1,1.2c-0.6,0.1-1.1-0.4-1.2-1c0-0.1,0-0.1,0-0.2v-3.9c0-1.4,1.1-2.6,2.6-2.7c0,0,0,0,0.1,0H70  c1.4,0,2.6,1.1,2.6,2.6c0,0,0,0,0,0.1v3.9c0.1,0.6-0.4,1.1-1,1.2c-0.6,0.1-1.1-0.4-1.2-1c0-0.1,0-0.1,0-0.2v-3.6  c0-0.1-0.2-0.2-0.3-0.2c-0.1,0-0.2,0.1-0.2,0.2v5v4.1c4.7-1.3,7.5-6.1,6.2-10.9C75.1,24.9,71.6,22.2,67.6,22.2L67.6,22.2z"></path><rect x="24.7" y="62" class="st0" width="50.6" height="4.1"></rect><rect x="55.6" y="80.9" class="st0" width="19.7" height="3.7"></rect><rect x="55.6" y="74.8" class="st0" width="19.7" height="3.7"></rect><rect x="55.6" y="68.6" class="st0" width="19.7" height="3.7"></rect><path d="M15.9,7.5v85h68.2v-85H15.9z M24.5,12h17v2.9h-17V12z M24.5,23.1h31.1v9.4H24.5V23.1z M24.5,34h31.1v5.8H24.5V34z   M54.6,53.1l0.2,0.5c0.1,0.3,0,0.5-0.3,0.6h-0.1l-0.5,0.1c-0.3,0.1-0.6,0.4-0.6,0.7v0.5c0,0.3-0.2,0.5-0.5,0.5h-0.1l-0.5-0.1  c-0.3-0.1-0.7,0.1-0.9,0.4L51,56.7c-0.1,0.2-0.4,0.3-0.7,0.2c0,0-0.1,0-0.1-0.1l-0.4-0.3c-0.3-0.2-0.7-0.2-0.9,0l-0.4,0.3  c-0.2,0.2-0.5,0.1-0.7-0.1c0,0,0-0.1-0.1-0.1l-0.2-0.5c-0.2-0.3-0.5-0.4-0.9-0.4L46.1,56c-0.3,0.1-0.5-0.1-0.6-0.3v-0.1V55  c0-0.3-0.3-0.6-0.6-0.7l-0.5-0.1c-0.3,0-0.5-0.3-0.4-0.6v-0.1l0.2-0.5c0.1-0.3,0-0.7-0.3-0.9l-0.4-0.3c-0.2-0.1-0.3-0.4-0.2-0.7  c0,0,0-0.1,0.1-0.1l0.4-0.4c0.2-0.3,0.3-0.6,0.1-0.9l-0.3-0.5c-0.1-0.2-0.1-0.5,0.1-0.7c0,0,0.1,0,0.1-0.1l0.5-0.2  c0.3-0.1,0.5-0.5,0.5-0.8l-0.1-0.5c0-0.3,0.1-0.5,0.4-0.6h0.1h0.5c0.3,0,0.6-0.2,0.8-0.5l0.2-0.5c0.1-0.3,0.3-0.4,0.6-0.3h0.1  l0.5,0.2c0.3,0.1,0.7,0.1,0.9-0.2l0.3-0.4c0.2-0.2,0.5-0.2,0.7-0.1l0.1,0.1l0.3,0.4c0.2,0.3,0.6,0.3,0.9,0.2l0.5-0.2  c0.2-0.1,0.5,0,0.7,0.2v0.1l0.2,0.5c0.1,0.3,0.4,0.5,0.8,0.5h0.5c0.3,0,0.5,0.2,0.5,0.5v0.1l-0.1,0.5c0,0.3,0.2,0.7,0.5,0.8l0.5,0.2  c0.3,0.1,0.4,0.4,0.3,0.6c0,0,0,0.1-0.1,0.1l-0.3,0.5c-0.2,0.3-0.1,0.7,0.1,0.9l0.4,0.4c0.2,0.2,0.2,0.5,0,0.7l-0.1,0.1L55,52.2  C54.7,52.4,54.5,52.7,54.6,53.1z M24.7,51.1l0.4-0.4c0.2-0.3,0.3-0.6,0.1-0.9l-0.3-0.4c-0.1-0.2-0.1-0.5,0.1-0.7c0,0,0.1,0,0.1-0.1  l0.5-0.2c0.3-0.1,0.5-0.5,0.5-0.8L26,47.1c0-0.3,0.1-0.5,0.4-0.6h0.1H27c0.3,0,0.6-0.2,0.8-0.5l0.1-0.5c0.1-0.3,0.3-0.4,0.6-0.3h0.1  l0.5,0.2c0.3,0.1,0.7,0.1,0.9-0.2l0.3-0.4c0.2-0.2,0.5-0.2,0.7-0.1l0.1,0.1l0.3,0.4c0.2,0.3,0.6,0.3,0.9,0.2l0.5-0.2  c0.2-0.1,0.5,0,0.7,0.2v0.1l0.2,0.5c0.1,0.3,0.4,0.5,0.8,0.5H35c0.3,0,0.5,0.2,0.5,0.5v0.1l-0.1,0.5c0,0.3,0.2,0.7,0.5,0.8l0.5,0.2  c0.3,0.1,0.4,0.4,0.3,0.6c0,0,0,0.1-0.1,0.1l-0.3,0.5c-0.2,0.3-0.1,0.7,0.1,0.9l0.4,0.4c0.2,0.2,0.2,0.5,0,0.7l-0.1,0.1l-0.4,0.3  c-0.3,0.2-0.4,0.6-0.3,0.9l0.2,0.5c0.1,0.3,0,0.5-0.3,0.6h-0.1l-0.5,0.1c-0.3,0.1-0.6,0.4-0.6,0.7v0.5c0,0.3-0.2,0.5-0.5,0.5h-0.1  l-0.5-0.1c-0.3-0.1-0.7,0.1-0.9,0.4l-0.2,0.5C32.3,57,32,57.1,31.8,57c0,0-0.1,0-0.1-0.1l-0.4-0.3c-0.3-0.2-0.7-0.2-0.9,0L30,56.9  c-0.2,0.2-0.5,0.1-0.7-0.1c0,0,0-0.1-0.1-0.1l-0.3-0.5c-0.2-0.3-0.5-0.4-0.9-0.4L27.5,56c-0.3,0.1-0.5-0.1-0.6-0.3  c0-0.1,0-0.1,0-0.2V55c0-0.3-0.3-0.6-0.6-0.7l-0.5-0.1c-0.3,0-0.5-0.3-0.4-0.6v-0.1l0.2-0.5c0.1-0.3,0-0.7-0.3-0.9l-0.4-0.3  C24.6,51.7,24.5,51.4,24.7,51.1L24.7,51.1L24.7,51.1z M31.5,68.6v3.7h-6.9v-3.7H31.5z M24.6,74.8h18.2v3.7H24.6V74.8z M54.1,84.7  H24.7V81h29.4V84.7z M54.1,78.4h-9.4v-3.7h9.4V78.4z M33.4,72.3v-3.7h20.7v3.7H33.4z M75.3,84.6H55.6v-3.7h19.7V84.6z M75.3,78.5  H55.6v-3.7h19.7V78.5z M75.3,72.3H55.6v-3.7h19.7V72.3z M24.7,66.2V62h50.6v4.1L24.7,66.2L24.7,66.2z M63.4,49.8l-0.3-0.5  c-0.1-0.2-0.1-0.5,0.1-0.7c0,0,0.1,0,0.1-0.1l0.5-0.2c0.3-0.1,0.5-0.5,0.5-0.8L64.2,47c0-0.3,0.1-0.5,0.4-0.6h0.1h0.5  c0.3,0,0.6-0.2,0.8-0.5l0.2-0.5c0.1-0.3,0.3-0.4,0.6-0.3h0.1l0.5,0.2c0.3,0.1,0.7,0.1,0.9-0.2l0.3-0.4c0.2-0.2,0.5-0.2,0.7-0.1  l0.1,0.1l0.3,0.4c0.2,0.3,0.6,0.3,0.9,0.2l0.5-0.2c0.2-0.1,0.5,0,0.7,0.2v0.1l0.2,0.5c0.1,0.3,0.4,0.5,0.8,0.5h0.5  c0.3,0,0.5,0.2,0.5,0.5V47l-0.1,0.5c0,0.3,0.2,0.7,0.5,0.8l0.5,0.2c0.3,0.1,0.4,0.4,0.3,0.6c0,0,0,0.1-0.1,0.1l-0.3,0.5  c-0.2,0.3-0.1,0.7,0.1,0.9l0.4,0.4c0.2,0.2,0.2,0.5,0,0.7L75,51.8l-0.4,0.3c-0.3,0.2-0.4,0.6-0.3,0.9l0.2,0.5c0.1,0.3,0,0.5-0.3,0.6  h-0.1l-0.5,0.1c-0.3,0.1-0.6,0.4-0.6,0.7v0.5c0,0.3-0.2,0.5-0.5,0.5h-0.1l-0.5-0.1c-0.3-0.1-0.7,0.1-0.9,0.4l-0.2,0.5  c-0.1,0.2-0.4,0.3-0.7,0.2c0,0-0.1,0-0.1-0.1l-0.4-0.3c-0.3-0.2-0.7-0.2-0.9,0l-0.4,0.3c-0.2,0.2-0.5,0.1-0.7-0.1c0,0,0-0.1-0.1-0.1  l-0.2-0.5c-0.2-0.3-0.5-0.4-0.9-0.4L65.8,56c-0.3,0.1-0.5-0.1-0.6-0.3v-0.1V55c0-0.3-0.3-0.6-0.6-0.7L64,54.2  c-0.3,0-0.5-0.3-0.4-0.6v-0.1l0.2-0.5c0.1-0.3,0-0.7-0.3-0.9l-0.4-0.3c-0.2-0.1-0.3-0.4-0.2-0.7c0,0,0,0,0-0.1l0.4-0.4  C63.5,50.5,63.5,50.1,63.4,49.8z M69.9,39.6v-4.1v-5c0-0.1,0.2-0.2,0.3-0.2c0.1,0,0.2,0.1,0.2,0.2v3.7c-0.1,0.6,0.4,1.1,1,1.2  c0.6,0.1,1.1-0.4,1.2-1c0-0.1,0-0.1,0-0.2v-4c0-1.4-1.1-2.6-2.5-2.7l0,0h-4.8c-1.4,0-2.6,1.2-2.6,2.6l0,0V34c-0.1,0.6,0.4,1.1,1,1.2  c0.6,0.1,1.1-0.4,1.2-1c0-0.1,0-0.1,0-0.2v-3.6c0-0.1,0.2-0.2,0.3-0.2c0.1,0,0.2,0.1,0.2,0.2v9.2c-4.7-1.3-7.5-6.2-6.2-10.9  s6.2-7.5,10.9-6.2c4.7,1.3,7.5,6.2,6.2,10.9C75.3,36.4,73,38.8,69.9,39.6L69.9,39.6z"></path></svg>