<svg fill="#1F68B3" xmlns="http://www.w3.org/2000/svg" xmlns:xlink="http://www.w3.org/1999/xlink" version="1.1" x="0px" y="0px" viewBox="0 0 100 100" enable-background="new 0 0 100 100" xml:space="preserve"><path d="M12.116,28.033h19.33c2.629,0,4.764-2.131,4.764-4.766c0-2.633-2.135-4.768-4.764-4.768h-19.33  c-2.629,0-4.764,2.135-4.764,4.768C7.353,25.902,9.487,28.033,12.116,28.033z M77.642,66.908c-4.032,0-7.299,3.266-7.299,7.297  c0,4.029,3.267,7.295,7.299,7.295c4.024,0,7.292-3.266,7.292-7.295C84.934,70.174,81.666,66.908,77.642,66.908z M77.64,76.938  c-1.511,0-2.734-1.223-2.734-2.732s1.224-2.734,2.734-2.734c1.508,0,2.732,1.225,2.732,2.734S79.147,76.938,77.64,76.938z   M22.118,66.908c-4.032,0-7.299,3.266-7.299,7.297c0,4.029,3.267,7.295,7.299,7.295c4.024,0,7.292-3.266,7.292-7.295  C29.41,70.174,26.143,66.908,22.118,66.908z M22.116,76.938c-1.511,0-2.734-1.223-2.734-2.732s1.224-2.734,2.734-2.734  c1.508,0,2.732,1.225,2.732,2.734S23.624,76.938,22.116,76.938z M91.809,30.559H8.191c-1.56,0-2.835,1.275-2.835,2.834v4.973  c0,1.559,1.275,2.834,2.835,2.834h14.807l23.046,13.525L27.882,65.383c1.188,0.746,2.215,1.721,3.016,2.869l23.051-13.527  L76.993,41.2h14.815c1.56,0,2.835-1.275,2.835-2.834v-4.973C94.644,31.834,93.368,30.559,91.809,30.559z M49.995,52.406L30.901,41.2  h38.188L49.995,52.406z M72.179,65.424L56.122,56l-3.951,2.32l17.016,9.986C69.979,67.156,70.999,66.178,72.179,65.424z"></path></svg>