<svg fill="#1F68B3" xmlns="http://www.w3.org/2000/svg" xmlns:xlink="http://www.w3.org/1999/xlink" version="1.1" x="0px" y="0px" viewBox="0 0 100 100" enable-background="new 0 0 100 100" xml:space="preserve"><g><path d="M57.9,73c-1.1,0.6-2.4,1.2-3.7,1.6c-2.5,0.9-5.2,1.4-7.9,1.4c-2.7,0-5.3-0.4-7.8-1.3c-5.2-1.8-9.2-5-12.2-8.7   C22.2,68.3,14.7,72.5,7,78.2c8.9,12.2,23.2,20.2,39.5,20.2c5.1,0,10.1-0.8,14.7-2.3c-3.3-3.7-5.4-8.6-5.4-13.9   C55.8,78.9,56.6,75.8,57.9,73z"></path><path d="M76.7,65.9c-9,0-16.3,7.3-16.3,16.3c0,9,7.3,16.3,16.3,16.3c9,0,16.3-7.3,16.3-16.3C93,73.2,85.7,65.9,76.7,65.9z    M76.7,92.2L67.4,83l3-3l4.1,4.1V72.7h4.3V84l4.1-4.1l3,3L76.7,92.2z"></path><path d="M20.8,45c0.6,2,1.6,5.8,4,8c1.8,6.6,7,14.3,15.4,17.3c2,0.7,4.1,1.1,6.3,1.1c2.1,0,4.2-0.4,6.2-1.1   c8.4-3,13.6-10.6,15.4-17.3c2.4-2.2,3.4-6,4-8c0.9-3.2,1.8-7.7-0.6-10.9c-0.1-0.1-0.2-0.2-0.3-0.4c0.2-1.1,0.3-2.2,0.4-3.2   c2.8-18.8-7.6-20-8.8-20c-0.1,0-0.1-0.1-0.2-0.1c-1.2-4.9-8.2-10-14.8-8.7c-6.6,1.4-20.2-0.2-20.2-0.2C27.5,4.4,30,6.4,30,6.4   c-11.5,7-9.4,22-8.3,27.4c-0.1,0.1-0.2,0.2-0.3,0.4C19,37.3,19.9,41.9,20.8,45z M26.8,36.2c0.1,0,0.2,0,0.3,0c0,0,0-0.1,0-0.1   c-0.3-1-1.7-6.7,3.3-10.2c4,0.9,10.1,1.1,18.3-2.4c15.7-6.7,17.1,12.7,17.1,12.7v0c0.1,0,0.2,0,0.3,0c1.6,0,3.3,1.3,1.5,7.5   c-1.4,4.9-2.7,6.3-3.7,6.3c-0.9,5.8-5.4,13.2-12.8,15.8c-1.5,0.5-3.1,0.8-4.7,0.8c-1.6,0-3.2-0.3-4.7-0.8   c-7.3-2.6-11.9-10-12.8-15.8c-1-0.1-2.3-1.5-3.7-6.3C23.6,37.5,25.2,36.2,26.8,36.2z"></path></g></svg>