<svg fill="#1F68B3" xmlns="http://www.w3.org/2000/svg" data-name="Layer 1" viewBox="0 0 100 100" x="0px" y="0px"><title>Artboard 20</title><path d="M88.65,32.79l-5.94-2.18-1.86-8.13a10.15,10.15,0,0,0-12.17-7.65L53.32,18.38c-.1.21-.18.42-.28.62l-5,9.6,22.6-5.2a1.43,1.43,0,0,1,.32,0,1.39,1.39,0,0,1,1.34,1.08L82.66,69.84a1.38,1.38,0,0,1-1,1.66L22.26,85a1.43,1.43,0,0,1-.32,0A1.39,1.39,0,0,1,20.6,84l-1.53-6.76a41.58,41.58,0,0,1-7.81,5.12h0L12,86A10.15,10.15,0,0,0,24.22,93.6l22.14-5.05,19.29,7.06a10.16,10.16,0,0,0,13-6L82,80.41l1.53-.35a10.16,10.16,0,0,0,7.65-12.17l-1.76-7.73L94.7,45.83A10.16,10.16,0,0,0,88.65,32.79Z"></path><path d="M23.14,61.28,46.82,15.77a8.22,8.22,0,0,0-6.54-12c-.25,0-.49,0-.74,0a8.21,8.21,0,0,0-7.29,4.42l-2.8,5.38-4.21-2.19A6.84,6.84,0,0,0,16,14.28L6.53,32.56a3.41,3.41,0,0,0,2.71,5h.31a3.4,3.4,0,0,0,3-1.84l9.52-18.29,4.21,2.19L8.58,53.69A34.47,34.47,0,0,0,5,74.52,2.14,2.14,0,0,0,7,76.34h.19a2.13,2.13,0,0,0,1-.23A34.47,34.47,0,0,0,23.14,61.28Z"></path><path d="M63.27,52.77l-.9-3.93a2.29,2.29,0,0,0-2.74-1.72L52.76,48.7l-1.58-6.86a2.29,2.29,0,0,0-2.74-1.72l-3.93.9a2.29,2.29,0,0,0-1.72,2.74l1.58,6.86L37.5,52.2a2.29,2.29,0,0,0-1.72,2.74l.9,3.93a2.29,2.29,0,0,0,2.74,1.72L46.3,59l1.58,6.86a2.29,2.29,0,0,0,2.74,1.72l3.93-.9A2.29,2.29,0,0,0,56.27,64l-1.58-6.86,6.87-1.58A2.29,2.29,0,0,0,63.27,52.77Z"></path></svg>