<svg width="100" height="100" xmlns="http://www.w3.org/2000/svg">

 <g>
  <title>background</title>
  <rect fill="none" id="canvas_background" height="402" width="582" y="-1" x="-1"/>
 </g>
 <g>
  <title>Layer 1</title>
  <g transform="rotate(180 50.00050354003906,50.013999938964844) " id="svg_1">
   <path fill="#1f68b3" id="svg_2" d="m32.209,14.24c-1.159,0.112 -2.148,1.21 -2.148,2.393l0,41.702c0,8.277 7.038,14.895 15.544,14.895l2.035,0c0.17,6.983 6.133,12.53 13.34,12.53l5.709,0c1.244,0.028 2.402,-1.126 2.402,-2.394c0,-1.238 -1.158,-2.393 -2.402,-2.365l-5.709,0c-4.748,0 -8.395,-3.463 -8.564,-7.771l1.979,0c8.508,0 15.545,-6.617 15.545,-14.895l0,-41.702c0,-1.267 -1.131,-2.393 -2.402,-2.393l-35.075,0c-0.085,0 -0.169,0 -0.254,0l0,0zm2.628,4.758l30.325,0l0,30.749c-3.645,3.266 -5.709,3.604 -7.404,3.717c-3.023,0.141 -4.578,-1.127 -6.867,-3.042c-2.261,-1.915 -5.2,-4.477 -9.666,-4.477c-2.232,0 -4.324,0.929 -6.387,2.675l0,-5.435l10.768,0c1.272,0.028 2.431,-1.126 2.431,-2.365c0,-1.267 -1.159,-2.421 -2.431,-2.394l-10.769,0l0,-2.731l6.387,0c1.272,0.028 2.431,-1.126 2.431,-2.394c0,-1.239 -1.159,-2.394 -2.431,-2.365l-6.387,0l0,-2.759l10.768,0c1.272,0 2.431,-1.126 2.431,-2.394s-1.159,-2.394 -2.431,-2.394l-10.768,0l0,-4.391zm6.388,31.734c2.713,0 4.268,1.38 6.614,3.351c2.346,1.942 5.511,4.393 10.203,4.139c1.781,-0.112 4.211,-0.619 7.121,-2.449l0,2.563c0,5.604 -4.719,10.137 -10.768,10.137l-8.789,0c-6.048,0 -10.768,-4.533 -10.768,-10.137l0,-2.563c2.911,-3.971 4.889,-5.041 6.387,-5.041l0,0z"/>
  </g>
 </g>
</svg>