<svg fill="#1F68B3" xmlns="http://www.w3.org/2000/svg" xmlns:xlink="http://www.w3.org/1999/xlink" version="1.1" x="0px" y="0px" viewBox="0 0 100 100" style="enable-background:new 0 0 100 100;" xml:space="preserve"><path d="M47.3,50c0-2.2,1.8-4,4-4h5.9V15.6c0-2.2,1.8-4,4-4h9.9c2.2,0,4,1.8,4,4s-1.8,4-4,4h-5.9V46h5.9c2.2,0,4,1.8,4,4  c0,2.2-1.8,4-4,4h-5.9v26.3h5.9c2.2,0,4,1.8,4,4c0,2.2-1.8,4-4,4h-9.9c-2.2,0-4-1.8-4-4V54h-5.9C49.1,54,47.3,52.2,47.3,50z   M88.9,23.4c4.3,0,7.8-3.5,7.8-7.8c0-4.3-3.5-7.8-7.8-7.8c-4.3,0-7.8,3.5-7.8,7.8C81.1,19.9,84.6,23.4,88.9,23.4z M88.9,57.8  c4.3,0,7.8-3.5,7.8-7.8c0-4.3-3.5-7.8-7.8-7.8c-4.3,0-7.8,3.5-7.8,7.8C81.1,54.3,84.6,57.8,88.9,57.8z M88.9,92.2  c4.3,0,7.8-3.5,7.8-7.8c0-4.3-3.5-7.8-7.8-7.8c-4.3,0-7.8,3.5-7.8,7.8C81.1,88.7,84.6,92.2,88.9,92.2z M22.6,23.1c6.1,0,11-5,11-11  c0-6.1-5-11-11-11c-6.1,0-11,5-11,11C11.5,18.1,16.5,23.1,22.6,23.1z M5.9,56c0.3,2.9,2.2,5.4,4.9,6.6L15,95.4  c0.2,2.1,2,3.6,4.1,3.6h6.8c2.1,0,3.8-1.6,4.1-3.6l4.2-32.8c2.8-1.1,4.7-3.7,5.1-6.6l2.5-19.4l0,0c0.3-2.7-0.5-5.4-2.3-7.4  c-1.8-2-4.4-3.2-7-3.2H29c-0.3,0-0.7,0.2-0.9,0.4l-5.4,6.7c-0.2,0.2-0.4,0.2-0.6,0l-5.3-6.7c-0.2-0.3-0.5-0.4-0.9-0.4h-3.2  c-2.7,0-5.3,1.2-7,3.2c-1.8,2-2.6,4.7-2.3,7.4L5.9,56z"></path></svg>