<svg fill="#0068B8" xmlns="http://www.w3.org/2000/svg" viewBox="0 0 68 49" x="0px" y="0px"><path fill="#0068B8" fill-rule="evenodd" d="M222.847019,100.360172 C220.462839,102.870483 219,106.264277 219,110 C219,110.67905 219.048333,111.346801 219.141747,112 L178,112 C176.895431,112 176,111.104569 176,110 L176,109.91987 L195.177728,93.4818171 L203.842506,99.6310143 C204.535752,100.122995 205.464248,100.122995 206.157494,99.6310143 L214.822272,93.4818171 L222.847019,100.360172 L222.847019,100.360172 Z M234,96.0351564 C233.6697,96.0118504 233.336235,96 233,96 C230.472414,96 228.101386,96.6696567 226.054629,97.8412411 L218.184694,91.0955821 L234,79.8718165 L234,96.0351564 L234,96.0351564 Z M176,104.651559 L176,79.8718165 L191.815306,91.0955821 L176,104.651559 Z M234,74.9668932 L205,95.5475383 L176,74.9668932 L176,74 C176,72.8954305 176.895431,72 178,72 L232,72 C233.104569,72 234,72.8954305 234,74 L234,74.9668932 L234,74.9668932 Z M222,110 C222,103.924502 226.924089,99 233,99 C239.075498,99 244,103.924089 244,110 C244,116.075498 239.075911,121 233,121 C226.924502,121 222,116.075911 222,110 Z M230.120791,108.292364 C229.730559,107.902132 229.100716,107.899284 228.700482,108.299518 L227.299518,109.700482 C226.905335,110.094665 226.89966,110.728087 227.291698,111.120126 L230.585786,114.414214 C231.366835,115.195262 232.633165,115.195262 233.414214,114.414214 L239.704494,108.123933 C240.096461,107.731966 240.100716,107.100716 239.700482,106.700482 L238.299518,105.299518 C237.905335,104.905335 237.269466,104.902107 236.878343,105.29323 L232,110.171573 L230.120791,108.292364 Z" transform="translate(-176 -72)"></path></svg>