<svg fill="#0068B8" xmlns="http://www.w3.org/2000/svg" data-name="Layer 1" viewBox="0 0 100 100" x="0px" y="0px"><title>Artboard 2</title><path d="M31.65,22.58a4,4,0,0,0,4-4v-9h32V26.65a4,4,0,0,0,4,4H88.78V94.47a4,4,0,0,0,8.07,0V26.65a4,4,0,0,0-1.18-2.85L74.55,2.68A4,4,0,0,0,71.69,1.5h-40a4,4,0,0,0-4,4v13A4,4,0,0,0,31.65,22.58Z"></path><path d="M10.4,98.5H73.24a7.25,7.25,0,0,0,7.25-7.25V50.17a7.25,7.25,0,0,0-7.25-7.25h-25L41,30.84H10.4a7.25,7.25,0,0,0-7.25,7.25V91.25A7.25,7.25,0,0,0,10.4,98.5Zm13.2-13.77A3.75,3.75,0,0,1,25,81.83,58.77,58.77,0,0,1,35.57,75a.14.14,0,0,0,.08-.13V71.44a8.42,8.42,0,0,1-1-2.7c-.54-.17-1-1-1.48-2.65s-.42-2.43,0-2.92a1,1,0,0,1,.66-.34A7.45,7.45,0,0,1,33.6,62v0a8,8,0,0,1,0-3.6,7.85,7.85,0,0,1,2.11-3.7A10.07,10.07,0,0,1,37.64,53a7.62,7.62,0,0,1,1.9-1,6.37,6.37,0,0,1,1.74-.33,7.13,7.13,0,0,1,4.34.92,5.59,5.59,0,0,1,2.08,1.91,2.64,2.64,0,0,1,1.57,1c1,1.27,1.26,3.42.76,6.39a7.32,7.32,0,0,1-.22.89,1,1,0,0,1,.66.34c.41.49.4,1.45,0,2.92s-.94,2.48-1.48,2.65a8.27,8.27,0,0,1-1,2.67v3.48a.14.14,0,0,0,.08.13,58.77,58.77,0,0,1,10.6,6.8A3.75,3.75,0,0,1,60,84.74v3.11A2.16,2.16,0,0,1,57.87,90H25.76a2.16,2.16,0,0,1-2.16-2.16Z"></path></svg>