<svg fill="#0068B8" xmlns="http://www.w3.org/2000/svg" xmlns:xlink="http://www.w3.org/1999/xlink" version="1.1" x="0px" y="0px" viewBox="0 0 100 100" enable-background="new 0 0 100 100" xml:space="preserve"><g><path d="M65.3,42.5V15c0-5-4.1-9.1-9.1-9.1H10.7c-5,0-9.1,4.1-9.1,9.1v27.6c0,4.4,3.1,8.1,7.3,8.9v8.1c0,0.9,0.4,1.9,1.1,2.5   c0.6,0.6,1.5,0.9,2.3,0.9c0.9,0,1.8-0.4,2.4-1L25,51.7h31.2C61.2,51.7,65.3,47.6,65.3,42.5z M13,16.8h23.7v5H13V16.8z M53.9,40.6   H13v-5h40.9V40.6z M53.9,31.2H13v-5h40.9V31.2z"></path><path d="M89.3,37H71.9v5.5c0,8.7-7,15.7-15.7,15.7H34.7v15.5c0,5,4.1,9.1,9.1,9.1H75l10.3,10.3c0.6,0.6,1.5,1,2.4,1   c0.9,0,1.7-0.3,2.3-0.9c0.7-0.6,1.1-1.6,1.1-2.5v-8.1c4.1-0.9,7.3-4.5,7.3-8.9V46.1C98.4,41.1,94.3,37,89.3,37z"></path></g></svg>