<svg fill="#CCE02B" xmlns:dc="http://purl.org/dc/elements/1.1/" xmlns:cc="http://creativecommons.org/ns#" xmlns:rdf="http://www.w3.org/1999/02/22-rdf-syntax-ns#" xmlns:svg="http://www.w3.org/2000/svg" xmlns="http://www.w3.org/2000/svg" xmlns:sodipodi="http://sodipodi.sourceforge.net/DTD/sodipodi-0.dtd" xmlns:inkscape="http://www.inkscape.org/namespaces/inkscape" version="1.1" x="0px" y="0px" viewBox="0 0 100 100"><g transform="translate(0,-952.36218)"><path style="text-indent:0;text-transform:none;direction:ltr;block-progression:tb;baseline-shift:baseline;color:#000000;enable-background:accumulate;" d="m 10.21875,972.36599 c -1.82293,0.1214 -3.32017,0.6994 -4.40625,1.7812 C 4.57127,975.38369 4,977.19809 4,979.36599 l 0,38.00001 c 0,2.1643 0.56447,3.9523 1.8125,5.1874 1.24803,1.2352 3.07786,1.8125 5.28125,1.8125 l 53.53125,0 c 3.01181,4.7806 8.31902,8 14.375,8 9.377,0 17,-7.6494 17,-17.0311 0,-6.0746 -3.20167,-11.3972 -8,-14.4063 l 0,-21.65631 c 0,-2.1275 -0.55848,-3.9021 -1.78125,-5.125 -1.22277,-1.2226 -2.99656,-1.7812 -5.125,-1.7812 l -70.0625,0 c -0.27289,0 -0.55208,-0.017 -0.8125,0 z m 0.8125,2 70.0625,0 c 1.5645,0 2.65033,0.3169 3.40625,0.9062 -12.1556,9.5137 -23.77151,19.8318 -36,29.18761 -1.71721,0.8413 -3.28279,0.8413 -5,0 -12.01716,-9.65261 -24.01341,-19.42661 -36,-29.15631 0.76878,-0.6104 1.88582,-0.9375 3.53125,-0.9375 z m 74.625,2.5312 c 0.23017,0.6357 0.34375,1.4201 0.34375,2.375 l 0,20.5938 c -2.13576,-0.9689 -4.50549,-1.5312 -7,-1.5312 -5.06839,0 -9.63328,2.22081 -12.75,5.75001 l -6.875,-5.87501 z m -79.28125,0.031 26.25,21.2813 -26,22.15611 C 6.21702,1019.635 6,1018.6669 6,1017.3657 l 0,-38.00001 c 0,-0.9844 0.13599,-1.7837 0.375,-2.4375 z m 27.84375,22.5937 c 2.78011,2.22541 5.5559,4.53561 8.34375,6.71881 2.23851,1.1199 4.63649,1.1199 6.875,0 2.78839,-2.1916 5.57189,-4.4767 8.34375,-6.71881 l 7.25,6.15631 c -1.9036,2.7471 -3.03125,6.0661 -3.03125,9.6563 0,2.5059 0.55542,4.8876 1.53125,7.0311 l -52.4375,0 c -1.2794,0 -2.26298,-0.2169 -3,-0.5938 z M 79,1000.3348 c 8.29612,0 15,6.6995 15,15 0,8.3003 -6.70388,15.0311 -15,15.0311 -8.29612,0 -15,-6.7308 -15,-15.0311 0,-8.3005 6.70388,-15 15,-15 z m 0,5 c -1.16667,0 -2.1807,0.3176 -2.9375,0.9062 -0.7568,0.5886 -1.20784,1.4048 -1.5,2.2812 -0.48694,1.461 -0.55403,3.1377 -0.5625,4.8126 -0.36001,-10e-5 -0.74137,0 -1.09375,0 -0.49158,0.046 -0.90838,0.5062 -0.90625,1 l 0,9.9999 c 5e-5,0.5236 0.47642,0.9999 1,1 l 12,0 c 0.52358,-1e-4 0.99995,-0.4764 1,-1 l 0,-9.9999 c -5e-5,-0.5236 -0.47642,-0.9999 -1,-1 l -1,0 c -0.008,-1.6749 -0.0756,-3.3516 -0.5625,-4.8126 -0.29216,-0.8764 -0.7432,-1.6926 -1.5,-2.2812 -0.7568,-0.5886 -1.77083,-0.9062 -2.9375,-0.9062 z m 0,2 c 0.83333,0 1.3193,0.1823 1.6875,0.4687 0.3682,0.2864 0.66716,0.7204 0.875,1.3437 0.34492,1.035 0.42239,2.5599 0.4375,4.1876 l -6,0 c 0.0151,-1.6277 0.0926,-3.1526 0.4375,-4.1876 0.20784,-0.6234 0.5068,-1.0573 0.875,-1.3437 0.3682,-0.2864 0.85417,-0.4687 1.6875,-0.4687 z m -5,8 10,0 0,7.9999 -10,0 z" fill="#CCE02B" fill-opacity="1" stroke="none" marker="none" visibility="visible" display="inline" overflow="visible"></path></g></svg>