<svg fill="#CCE02B" xmlns="http://www.w3.org/2000/svg" xmlns:xlink="http://www.w3.org/1999/xlink" version="1.1" x="0px" y="0px" viewBox="0 0 48 48" enable-background="new 0 0 48 48" xml:space="preserve"><g><path d="M44,0H4C1.8,0,0,1.8,0,4v40c0,2.2,1.8,4,4,4h40c2.2,0,4-1.8,4-4V4C48,1.8,46.2,0,44,0z M46,44c0,1.1-0.9,2-2,2H4   c-1.1,0-2-0.9-2-2V4c0-1.1,0.9-2,2-2h40c1.1,0,2,0.9,2,2V44z"></path><path d="M33.1,28c-1.1-0.9-2.4-1.3-3.9-1.3c-1.5,0-2.9,0.5-3.9,1.3c-0.1,0.1-0.2,0.1-0.2,0.2v-5.5c1,0.5,2.1,0.8,3.2,0.8   c1.9,0,3.6-0.7,4.9-2c0.4-0.4,0.4-1,0-1.4c-0.4-0.4-1-0.4-1.4,0c-0.9,0.9-2.2,1.5-3.5,1.5c-1.2,0-2.3-0.4-3.2-1.2v-3.5   c2.5,1.2,5.5,0.8,7.6-1.2c0.4-0.4,0.4-1,0-1.4c-0.4-0.4-1-0.4-1.4,0c-1.7,1.7-4.4,1.8-6.2,0.2v-3.5c2,0.8,4.3,0.5,5.9-1.1   c0.4-0.4,0.4-1,0-1.4c-0.4-0.4-1-0.4-1.4,0c-1.2,1.2-3.1,1.3-4.5,0.2V6.1c0-0.6-0.4-1-1-1s-1,0.4-1,1v2.4c-1.3,1-3.2,1-4.5-0.2   c-0.4-0.4-1-0.4-1.4,0c-0.4,0.4-0.4,1,0,1.4c1,1,2.4,1.6,3.8,1.6c0.7,0,1.4-0.2,2.1-0.4v3.5c-1.8,1.5-4.5,1.5-6.2-0.2   c-0.4-0.4-1-0.4-1.4,0c-0.4,0.4-0.4,1,0,1.4c1.3,1.3,3,1.9,4.6,1.9c1,0,2-0.2,2.9-0.7v3.5c-0.9,0.8-2,1.2-3.2,1.2   c-1.3,0-2.6-0.5-3.5-1.5c-0.4-0.4-1-0.4-1.4,0c-0.4,0.4-0.4,1,0,1.4c1.3,1.3,3.1,2,4.9,2c1.1,0,2.2-0.3,3.2-0.8v5.5   c-0.1-0.1-0.2-0.1-0.2-0.2c-1.1-0.9-2.4-1.3-3.9-1.3c-1.5,0-2.9,0.5-3.9,1.3c-1.1,0.9-1.7,2.1-1.7,3.5c0,1.3,0.6,2.6,1.7,3.5   c0.1,0.1,0.2,0.2,0.4,0.3c1.9,1.3,3.1,2.7,3.9,4.1c1.2,2.3,2.8,3.6,4.4,3.6c1.5,0,3-1.1,4.1-3c1.1-1.8,2.5-3.2,4.4-4.4   c0.3-0.2,0.6-0.4,0.9-0.6c1.1-0.9,1.7-2.1,1.7-3.5C34.8,30.1,34.2,28.9,33.1,28z M31.8,33.4c-0.2,0.1-0.4,0.3-0.6,0.5   c-2.1,1.3-3.8,3-5.1,5c-0.8,1.3-1.7,2-2.4,2c-0.8,0-1.9-1-2.7-2.5c-0.9-1.7-2.4-3.3-4.5-4.8c-0.1-0.1-0.2-0.1-0.2-0.2   c-0.6-0.5-1-1.2-1-1.9c0-0.7,0.4-1.4,1-1.9c0.7-0.6,1.6-0.9,2.6-0.9c1,0,1.9,0.3,2.6,0.9c0.1,0.1,0.1,0.1,0.2,0.2   c1.2,1.1,3.4,1.1,4.6,0c0.1-0.1,0.1-0.1,0.2-0.2c1.4-1.1,3.9-1.1,5.3,0c0.6,0.5,1,1.2,1,1.9C32.8,32.1,32.4,32.8,31.8,33.4z"></path></g></svg>