<svg fill="#CCE02B" xmlns="http://www.w3.org/2000/svg" xmlns:xlink="http://www.w3.org/1999/xlink" version="1.1" x="0px" y="0px" viewBox="0 0 100 100" enable-background="new 0 0 100 100" xml:space="preserve"><path d="M98.5,61.4c0,8.1-5,15.3-12.4,18.3v7.6c0,1-0.6,1.8-1.5,2.2c-0.3,0.1-0.6,0.2-0.9,0.2c-0.6,0-1.2-0.2-1.7-0.7l-7.9-7.9H62.4  c-7.5,0-14.2-4.1-17.6-10.8c-0.4-0.7-0.1-1.6,0.7-2c0.7-0.4,1.6-0.1,2,0.7c2.9,5.7,8.6,9.2,14.9,9.2h12.3c0.4,0,0.8,0.2,1.1,0.4  l7.3,7.3v-7.2c0-0.6,0.4-1.2,1-1.4c6.8-2.3,11.4-8.6,11.4-15.8c0-8-5.7-14.9-13.6-16.4c-0.8-0.2-1.4-0.9-1.2-1.7  c0.2-0.8,0.9-1.4,1.7-1.2C91.8,43.8,98.5,51.9,98.5,61.4z M1.5,35.7c0-14,11.4-25.4,25.4-25.4h21.7c14,0,25.4,11.4,25.4,25.4  S62.5,61.1,48.5,61.1H32.9L22.4,71.6c-0.5,0.5-1.2,0.8-1.9,0.8c-1.5,0-2.7-1.2-2.7-2.7V59.4C8,55.7,1.5,46.3,1.5,35.7z M4.5,35.7  c0,9.6,6.2,18.2,15.3,21.2c0.6,0.2,1,0.8,1,1.4V69l10.4-10.4c0.3-0.3,0.7-0.4,1.1-0.4h16.2c12.3,0,22.4-10,22.4-22.4  s-10-22.4-22.4-22.4H26.8C14.5,13.3,4.5,23.3,4.5,35.7z M21,37.2h33.3c0.8,0,1.5-0.7,1.5-1.5s-0.7-1.5-1.5-1.5H21  c-0.8,0-1.5,0.7-1.5,1.5S20.2,37.2,21,37.2z M21,45.6h33.3c0.8,0,1.5-0.7,1.5-1.5s-0.7-1.5-1.5-1.5H21c-0.8,0-1.5,0.7-1.5,1.5  S20.2,45.6,21,45.6z M37.7,28.7h16.7c0.8,0,1.5-0.7,1.5-1.5s-0.7-1.5-1.5-1.5H37.7c-0.8,0-1.5,0.7-1.5,1.5S36.8,28.7,37.7,28.7z"></path></svg>