<svg fill="#CCE02B" xmlns="http://www.w3.org/2000/svg" xmlns:xlink="http://www.w3.org/1999/xlink" version="1.1" x="0px" y="0px" viewBox="0 0 100 100" enable-background="new 0 0 100 100" xml:space="preserve"><g><path d="M82.822,33.282L62.923,13.113c-0.281-0.285-0.666-0.446-1.067-0.446H18.244c-0.828,0-1.5,0.672-1.5,1.5v71.666   c0,0.828,0.672,1.5,1.5,1.5h63.511c0.828,0,1.5-0.672,1.5-1.5V34.336C83.255,33.941,83.1,33.563,82.822,33.282z M63.304,17.771   l14.757,14.957H63.304V17.771z M19.744,84.333V15.667h40.56v18.561c0,0.828,0.672,1.5,1.5,1.5h18.451v48.605H19.744z"></path><path d="M25.97,40.753h25.106c0.828,0,1.5-0.672,1.5-1.5s-0.672-1.5-1.5-1.5H25.97c-0.828,0-1.5,0.672-1.5,1.5   S25.142,40.753,25.97,40.753z"></path><path d="M25.97,33.101h25.106c0.828,0,1.5-0.672,1.5-1.5s-0.672-1.5-1.5-1.5H25.97c-0.828,0-1.5,0.672-1.5,1.5   S25.142,33.101,25.97,33.101z"></path><path d="M69.853,45.406H25.97c-0.828,0-1.5,0.672-1.5,1.5s0.672,1.5,1.5,1.5h43.883c0.828,0,1.5-0.672,1.5-1.5   S70.681,45.406,69.853,45.406z"></path><path d="M69.853,53.059H25.97c-0.828,0-1.5,0.672-1.5,1.5s0.672,1.5,1.5,1.5h43.883c0.828,0,1.5-0.672,1.5-1.5   S70.681,53.059,69.853,53.059z"></path><path d="M54.953,69.455h-4.512v-4.513c0-0.828-0.672-1.5-1.5-1.5s-1.5,0.672-1.5,1.5v4.513h-4.513c-0.828,0-1.5,0.672-1.5,1.5   s0.672,1.5,1.5,1.5h4.513v4.512c0,0.828,0.672,1.5,1.5,1.5s1.5-0.672,1.5-1.5v-4.512h4.512c0.828,0,1.5-0.672,1.5-1.5   S55.781,69.455,54.953,69.455z"></path></g></svg>