<svg fill="#CCE02B" xmlns="http://www.w3.org/2000/svg" xmlns:xlink="http://www.w3.org/1999/xlink" version="1.1" x="0px" y="0px" viewBox="0 0 32 32" enable-background="new 0 0 32 32" xml:space="preserve"><g><path d="M27,31.83c-0.51,0-1.02-0.2-1.41-0.58l-4.86-4.86c-0.39-0.39-0.39-1.02,0-1.41s1.02-0.39,1.41,0L27,29.83L29.83,27   l-7.2-7.2c-0.3-0.3-0.38-0.76-0.19-1.14C22.45,18.62,24,15.39,24,13c0-6.07-4.93-11-11-11S2,6.93,2,13s4.93,11,11,11   c2.93,0,5.69-1.14,7.76-3.21c0.39-0.39,1.02-0.39,1.41,0c0.39,0.39,0.39,1.02,0,1.41C19.72,24.65,16.46,26,13,26   C5.83,26,0,20.17,0,13S5.83,0,13,0s13,5.83,13,13c0,2.16-0.97,4.7-1.47,5.87l6.71,6.71c0.78,0.78,0.78,2.05,0,2.83l-2.83,2.83   C28.02,31.63,27.51,31.83,27,31.83z"></path><path d="M19,12H7c-0.55,0-1-0.45-1-1s0.45-1,1-1h12c0.55,0,1,0.45,1,1S19.55,12,19,12z"></path><path d="M12,16H7c-0.55,0-1-0.45-1-1s0.45-1,1-1h5c0.55,0,1,0.45,1,1S12.55,16,12,16z"></path></g></svg>