<svg fill="#FFFFFF" xmlns="http://www.w3.org/2000/svg" xmlns:xlink="http://www.w3.org/1999/xlink" version="1.1" x="0px" y="0px" viewBox="0 0 100 100" style="enable-background:new 0 0 100 100;" xml:space="preserve"><rect x="47.3" y="1.8" width="5.1" height="5.1"></rect><rect x="47.3" y="93.2" width="5.1" height="5.1"></rect><rect x="13.8" y="78.6" width="5.1" height="5.1"></rect><rect x="79.4" y="78.6" width="5.1" height="5.1"></rect><rect x="13.8" y="15.8" width="5.1" height="5.1"></rect><rect x="79.4" y="15.8" width="5.1" height="5.1"></rect><rect x="1" y="47.1" width="5.1" height="5.1"></rect><rect x="93.7" y="47.1" width="5.1" height="5.1"></rect><path d="M10.3,24.4c-3.8,5.8-6.2,12.2-7.1,19.1l-0.1,0.6h3l0.1-0.5c1-6.7,3.5-13.1,7.3-18.7l0.6-0.8h-3.5L10.3,24.4  z"></path><path d="M6,55.7l-0.1-0.5H3l0.1,0.6c0.9,7.1,3.2,13.6,7,19.6l0.2,0.2h3.5l-0.6-0.8C9.4,69.1,6.9,62.5,6,55.7z"></path><path d="M93.6,43.7l0.1,0.5h3l-0.1-0.6c-1-6.9-3.4-13.3-7.1-19.1l-0.2-0.2h-3.5l0.6,0.8  C90.1,30.6,92.6,37,93.6,43.7z"></path><path d="M93.8,55.2l-0.1,0.5c-0.9,6.8-3.4,13.5-7.2,19.1l-0.6,0.8h3.5l0.2-0.2c3.8-5.9,6.2-12.5,7-19.6l0.1-0.6  L93.8,55.2L93.8,55.2z"></path><path d="M74,13.1l0.1,0.1h5l-1.3-1C71.5,7.4,63.9,4.3,56,3.3l-0.6-0.1v3l0.5,0.1C62.4,7.2,68.5,9.4,74,13.1z"></path><path d="M21.8,12.2l-1.3,1h5l0.1-0.1c5.6-3.7,11.7-5.9,18.3-6.8l0.5-0.1v-3l-0.6,0.1C35.8,4.3,28.2,7.4,21.8,12.2z"></path><path d="M74.5,86.8c-5.6,3.7-12,6.2-18.7,7.1L55.3,94v3l0.6-0.1c8.1-1.1,15.8-4.2,22.3-9.2l1.3-1L74.5,86.8  L74.5,86.8z"></path><path d="M25.2,86.8L25,86.7h-4.9l1.3,1c6.5,5,14.3,8.1,22.4,9.2l0.6,0.1v-3l-0.5-0.1C37.2,93,30.7,90.5,25.2,86.8z"></path><polygon points="33.6,44.2 27.4,50.4 44,67 72.2,39.2 66,33.1 44.2,54.8 "></polygon></svg>