<svg fill="#FFFFFF" xmlns="http://www.w3.org/2000/svg" xmlns:xlink="http://www.w3.org/1999/xlink" version="1.1" x="0px" y="0px" viewBox="0 0 68 68" style="enable-background:new 0 0 68 68;" xml:space="preserve"><style type="text/css">
	.st0{fill:#FFFFFF;}
</style><g><g><g><g><path class="st0" d="M51,23.6c-0.3,0-0.5-0.1-0.7-0.3l-5.6-5.6c-0.2-0.2-0.3-0.4-0.3-0.7c0-0.3,0.1-0.5,0.3-0.7l7.8-7.8      l-3.5-3.5c-0.3-0.3-0.4-0.7-0.2-1c0.1-0.4,0.4-0.6,0.8-0.7L65.9,1c0.3,0,0.6,0.1,0.8,0.3C66.9,1.5,67,1.8,67,2.1l-2.2,16.4      c-0.1,0.4-0.3,0.7-0.7,0.8c-0.4,0.1-0.8,0-1-0.2l-3.5-3.5l-7.8,7.8C51.5,23.5,51.3,23.6,51,23.6z M46.8,17l4.2,4.2l7.8-7.8      c0.2-0.2,0.4-0.3,0.7-0.3l0,0c0.3,0,0.5,0.1,0.7,0.3l2.8,2.8l1.8-13.1L51.8,4.9l2.8,2.8c0.4,0.4,0.4,1,0,1.4L46.8,17z"></path></g></g><g><g><path class="st0" d="M2,67c-0.3,0-0.5-0.1-0.7-0.3C1.1,66.5,1,66.2,1,65.9l2.2-16.4c0.1-0.4,0.3-0.7,0.7-0.8      c0.4-0.1,0.8,0,1,0.2l3.5,3.5l7.8-7.8c0.4-0.4,1-0.4,1.4,0l5.6,5.6c0.2,0.2,0.3,0.4,0.3,0.7c0,0.3-0.1,0.5-0.3,0.7l-7.8,7.8      l3.5,3.5c0.3,0.3,0.4,0.7,0.2,1c-0.1,0.4-0.4,0.6-0.8,0.7L2.1,67C2.1,67,2,67,2,67z M4.9,51.8L3.2,64.8l13.1-1.8l-2.8-2.8      c-0.4-0.4-0.4-1,0-1.4l7.8-7.8L17,46.8l-7.8,7.8c-0.2,0.2-0.4,0.3-0.7,0.3l0,0c-0.3,0-0.5-0.1-0.7-0.3L4.9,51.8z"></path></g></g></g><g><g><g><path class="st0" d="M66,67c0,0-0.1,0-0.1,0l-16.4-2.2c-0.4-0.1-0.7-0.3-0.8-0.7c-0.1-0.4,0-0.8,0.2-1l3.5-3.5l-7.8-7.8      c-0.2-0.2-0.3-0.4-0.3-0.7c0-0.3,0.1-0.5,0.3-0.7l5.6-5.6c0.4-0.4,1-0.4,1.4,0l7.8,7.8l3.5-3.5c0.3-0.3,0.7-0.4,1-0.2      c0.4,0.1,0.6,0.4,0.7,0.8L67,65.9c0,0.3-0.1,0.6-0.3,0.8C66.5,66.9,66.3,67,66,67z M51.8,63.1l13.1,1.8l-1.8-13.1l-2.8,2.8      c-0.4,0.4-1,0.4-1.4,0L51,46.8L46.8,51l7.8,7.8c0.4,0.4,0.4,1,0,1.4L51.8,63.1z"></path></g></g><g><g><path class="st0" d="M17,23.6c-0.3,0-0.5-0.1-0.7-0.3l-7.8-7.8l-3.5,3.5c-0.3,0.3-0.7,0.4-1,0.2c-0.4-0.1-0.6-0.4-0.7-0.8L1,2.1      c0-0.3,0.1-0.6,0.3-0.8C1.5,1.1,1.8,1,2.1,1l16.4,2.2c0.4,0.1,0.7,0.3,0.8,0.7c0.1,0.4,0,0.8-0.2,1l-3.5,3.5l7.8,7.8      c0.2,0.2,0.3,0.4,0.3,0.7c0,0.3-0.1,0.5-0.3,0.7l-5.6,5.6C17.5,23.5,17.2,23.6,17,23.6z M8.5,13.1c0.3,0,0.5,0.1,0.7,0.3      l7.8,7.8l4.2-4.2l-7.8-7.8c-0.4-0.4-0.4-1,0-1.4l2.8-2.8L3.2,3.2l1.8,13.1l2.8-2.8C8,13.2,8.2,13.1,8.5,13.1z"></path></g></g></g><g><g><g><path class="st0" d="M45.4,46h-4.8c-0.6,0-1-0.4-1-1c0-0.6,0.4-1,1-1h3.8V26.5c0-3-2.2-5.5-4.8-5.5H28.4c-2.6,0-4.8,2.5-4.8,5.5      V44h3.8c0.6,0,1,0.4,1,1c0,0.6-0.4,1-1,1h-4.8c-0.6,0-1-0.4-1-1V26.5c0-4.1,3.1-7.5,6.8-7.5h11.1c3.8,0,6.8,3.4,6.8,7.5V45      C46.4,45.6,45.9,46,45.4,46z"></path></g></g><g><g><path class="st0" d="M38.4,60.7h-8.7c-1.8,0-3.2-1.4-3.2-3.1V34.7c0-0.6,0.4-1,1-1c0.6,0,1,0.4,1,1v22.9c0,0.6,0.5,1.1,1.2,1.1      h8.7c0.6,0,1.2-0.5,1.2-1.1V34.7c0-0.6,0.4-1,1-1c0.6,0,1,0.4,1,1v22.9C41.5,59.3,40.1,60.7,38.4,60.7z"></path></g></g><g><g><path class="st0" d="M34,60.7c-0.6,0-1-0.4-1-1V45.6c0-0.6,0.4-1,1-1c0.6,0,1,0.4,1,1v14.1C35,60.3,34.6,60.7,34,60.7z"></path></g></g><g><g><path class="st0" d="M33.9,17.8c-4,0-7.3-3.3-7.3-7.3c0-4,3.3-7.3,7.3-7.3s7.3,3.3,7.3,7.3C41.2,14.6,37.9,17.8,33.9,17.8z       M33.9,5.3c-2.9,0-5.3,2.4-5.3,5.3c0,2.9,2.4,5.3,5.3,5.3c2.9,0,5.3-2.4,5.3-5.3C39.2,7.6,36.8,5.3,33.9,5.3z"></path></g></g></g></g></svg>