<svg fill="#FFFFFF" xmlns="http://www.w3.org/2000/svg" xmlns:xlink="http://www.w3.org/1999/xlink" version="1.0" x="0px" y="0px" viewBox="0 0 100 100" enable-background="new 0 0 100 100" xml:space="preserve"><path fill="#FFFFFF" d="M81.213,42.197c-0.168-0.669-0.847-1.076-1.516-0.91c-0.67,0.167-1.077,0.846-0.91,1.516l4.611,18.447H77.5  c-0.643,0-1.18,0.486-1.244,1.125l-2.5,25c-0.068,0.688,0.434,1.3,1.12,1.368c0.042,0.004,0.084,0.006,0.126,0.006  c0.635,0,1.178-0.481,1.242-1.125l2.387-23.875H85c0.385,0,0.748-0.177,0.984-0.481c0.236-0.303,0.32-0.699,0.229-1.072  L81.213,42.197z M88.686,44.604l-5-15c-0.062-0.184-0.164-0.351-0.302-0.488l-2.944-2.945c0.476-0.178,0.813-0.635,0.813-1.171  c0-3.399,0-9.506-2.268-12.672l2.136-4.269c0.162-0.324,0.176-0.703,0.037-1.038c-0.14-0.334-0.416-0.593-0.761-0.708l-7.5-2.5  c-0.258-0.085-0.533-0.085-0.791,0l-7.5,2.5c-0.344,0.115-0.621,0.373-0.76,0.708c-0.14,0.335-0.125,0.713,0.036,1.038l2.136,4.271  C63.75,15.529,63.75,21.843,63.75,25c0,0.69,0.561,1.25,1.25,1.25h2.5c0.689,0,1.25-0.56,1.25-1.25s-0.561-1.25-1.25-1.25h-1.245  c0.033-3.102,0.28-8.518,2.129-10.366c0.382-0.38,0.476-0.961,0.234-1.443L66.764,8.23L72.5,6.317l5.736,1.913l-1.854,3.711  c-0.239,0.481-0.146,1.063,0.234,1.443c1.862,1.863,2.1,7.162,2.13,10.366H77.5c-0.506,0-0.961,0.305-1.154,0.771  c-0.193,0.467-0.087,1.005,0.271,1.362l4.791,4.792l4.906,14.72c0.174,0.523,0.662,0.855,1.187,0.855  c0.131,0,0.267-0.021,0.396-0.064C88.55,45.968,88.904,45.26,88.686,44.604z M71.609,9.12C71.38,9.35,71.25,9.67,71.25,10  s0.13,0.65,0.37,0.89c0.229,0.23,0.55,0.36,0.88,0.36s0.648-0.13,0.88-0.37c0.24-0.23,0.37-0.55,0.37-0.88s-0.13-0.65-0.37-0.88  C72.92,8.65,72.08,8.65,71.609,9.12z M65.559,28.882l-9.309-4.654v-1.433l2.368-4.736c0.087-0.174,0.132-0.365,0.132-0.559V10  c0-0.194-0.045-0.385-0.132-0.559C58.502,9.208,55.707,3.75,50,3.75s-8.502,5.458-8.618,5.691C41.295,9.615,41.25,9.806,41.25,10  v7.5c0,0.194,0.045,0.385,0.132,0.559l2.368,4.736v1.433l-9.309,4.654C34.018,29.094,33.75,29.526,33.75,30v30  c0,0.332,0.132,0.648,0.366,0.884l4.634,4.634V95c0,0.689,0.56,1.25,1.25,1.25s1.25-0.561,1.25-1.25V65  c0-0.332-0.132-0.648-0.366-0.884l-4.634-4.634v-28.71l5.955-2.978l-0.823,1.646c-0.176,0.352-0.176,0.766,0,1.118l5,10  c0.212,0.423,0.645,0.691,1.118,0.691h1.25v9.098c-0.744,0.434-1.25,1.231-1.25,2.152c0,1.378,1.121,2.5,2.5,2.5s2.5-1.122,2.5-2.5  c0-0.921-0.506-1.72-1.25-2.152V41.25h1.25c0.475,0,0.906-0.268,1.118-0.691l5-10c0.176-0.352,0.176-0.766,0-1.118l-0.823-1.646  l5.955,2.978v28.709l-4.634,4.635C58.882,64.352,58.75,64.668,58.75,65v30c0,0.689,0.561,1.25,1.25,1.25s1.25-0.561,1.25-1.25  V65.518l4.634-4.634C66.118,60.65,66.25,60.332,66.25,60V30C66.25,29.526,65.982,29.094,65.559,28.882z M51.729,38.75h-3.456  L43.897,30l2.221-4.441c0.011-0.021,0.009-0.045,0.019-0.067c0.047-0.108,0.077-0.223,0.092-0.343  c0.005-0.035,0.014-0.068,0.015-0.103c0.001-0.016,0.007-0.03,0.007-0.046v-2.5c0-0.194-0.045-0.385-0.132-0.559l-2.368-4.736  v-6.883C44.28,9.419,46.397,6.25,50,6.25c3.576,0,5.717,3.177,6.25,4.075v6.88l-2.368,4.736c-0.087,0.174-0.132,0.365-0.132,0.559  V25c0,0.016,0.006,0.03,0.007,0.046c0.001,0.035,0.011,0.068,0.015,0.104c0.017,0.12,0.045,0.233,0.092,0.342  c0.012,0.022,0.01,0.045,0.021,0.067L56.104,30L51.729,38.75z M33.75,22.795l2.368-4.736c0.087-0.174,0.132-0.365,0.132-0.559V10  c0-0.194-0.045-0.385-0.132-0.559C36.002,9.208,33.207,3.75,27.5,3.75s-8.502,5.458-8.618,5.691C18.795,9.615,18.75,9.806,18.75,10  v7.5c0,0.194,0.045,0.385,0.132,0.559l2.368,4.736v1.536l-6.943,4.629c-0.348,0.232-0.557,0.622-0.557,1.04v22.5  c0,0.332,0.132,0.648,0.366,0.884l4.634,4.634V87.5c0,0.689,0.56,1.25,1.25,1.25s1.25-0.561,1.25-1.25v-30  c0-0.332-0.132-0.648-0.366-0.884l-4.634-4.634V30.669l6.943-4.629c0.348-0.232,0.557-0.622,0.557-1.04v-2.5  c0-0.194-0.045-0.385-0.132-0.559l-2.368-4.736v-6.883c0.53-0.903,2.647-4.072,6.25-4.072c3.576,0,5.717,3.177,6.25,4.075v6.88  l-2.368,4.736c-0.087,0.174-0.132,0.365-0.132,0.559V25c0,0.69,0.56,1.25,1.25,1.25s1.25-0.56,1.25-1.25V22.795z"></path></svg>