<svg fill="#FFFFFF" xmlns="http://www.w3.org/2000/svg" xmlns:xlink="http://www.w3.org/1999/xlink" version="1.1" x="0px" y="0px" viewBox="0 0 68 68" style="enable-background:new 0 0 68 68;" xml:space="preserve"><style type="text/css">
	.st0{fill:#FFFFFF;}
</style><g><g><path class="st0" d="M17.2,21.3c4,0,7.3-3.2,7.3-7.2c0-4-3.3-7.2-7.3-7.2c-4,0-7.3,3.2-7.3,7.2C10,18,13.2,21.3,17.2,21.3z     M17.2,8.9c2.9,0,5.3,2.3,5.3,5.2s-2.4,5.2-5.3,5.2c-2.9,0-5.3-2.3-5.3-5.2S14.3,8.9,17.2,8.9z"></path></g><g><path class="st0" d="M17.2,1C8.3,1,1,8.3,1,17.2c0,9,7.3,16.2,16.2,16.2c8.9,0,16.2-7.3,16.2-16.2C33.5,8.3,26.2,1,17.2,1z     M17.2,3c7.8,0,14.2,6.4,14.2,14.2c0,3.4-1.2,6.5-3.2,9c-1.6-2.9-4.7-4.7-8.1-4.7h-5.9c-3.4,0-6.5,1.8-8.1,4.7    c-2-2.4-3.2-5.6-3.2-9C3,9.4,9.4,3,17.2,3z M7.7,27.7c1.2-2.5,3.8-4.2,6.6-4.2h5.9c2.9,0,5.4,1.7,6.6,4.2    c-2.5,2.3-5.9,3.7-9.5,3.7C13.6,31.4,10.2,30,7.7,27.7z"></path></g><g><path class="st0" d="M50.8,54.8c4,0,7.3-3.2,7.3-7.2c0-4-3.3-7.2-7.3-7.2c-4,0-7.3,3.2-7.3,7.2C43.5,51.6,46.8,54.8,50.8,54.8z     M50.8,42.5c2.9,0,5.3,2.3,5.3,5.2c0,2.9-2.4,5.2-5.3,5.2c-2.9,0-5.3-2.3-5.3-5.2C45.5,44.8,47.9,42.5,50.8,42.5z"></path></g><g><path class="st0" d="M67,50.8c0-8.9-7.3-16.2-16.2-16.2c-9,0-16.2,7.3-16.2,16.2c0,8.9,7.3,16.2,16.2,16.2    C59.7,67,67,59.7,67,50.8z M50.8,36.6C58.6,36.6,65,43,65,50.8c0,3.4-1.2,6.5-3.2,9c-1.6-2.9-4.7-4.7-8.1-4.7h-5.9    c-3.4,0-6.5,1.8-8.1,4.7c-2-2.4-3.2-5.6-3.2-9C36.5,43,42.9,36.6,50.8,36.6z M41.2,61.3c1.2-2.5,3.8-4.2,6.6-4.2h5.9    c2.9,0,5.4,1.7,6.6,4.2c-2.5,2.3-5.9,3.7-9.5,3.7C47.1,65,43.7,63.6,41.2,61.3z"></path></g><g><path class="st0" d="M50,29.3c0.2,0.3,0.5,0.4,0.8,0.4c0,0,0,0,0,0c0.3,0,0.6-0.2,0.8-0.4l8.9-12.3c0.2-0.3,0.3-0.7,0.1-1    c-0.2-0.3-0.5-0.5-0.9-0.5c0,0,0,0,0,0l-4,0L55.6,2c0-0.5-0.5-1-1-1h-7.9c-0.3,0-0.5,0.1-0.7,0.3c-0.2,0.2-0.3,0.4-0.3,0.7    l0.1,13.4l-4,0c-0.4,0-0.7,0.2-0.9,0.6c-0.2,0.3-0.1,0.7,0.1,1L50,29.3z M46.8,17.4c0.3,0,0.5-0.1,0.7-0.3    c0.2-0.2,0.3-0.4,0.3-0.7L47.7,3h5.9l0.1,13.3c0,0.5,0.5,1,1,1c0,0,0,0,0,0l3.1,0l-7,9.6l-7.1-9.6L46.8,17.4z"></path></g><g><path class="st0" d="M18,38.7c-0.2-0.3-0.5-0.4-0.8-0.4c-0.3,0-0.6,0.2-0.8,0.4L7.3,51.1c-0.2,0.3-0.3,0.7-0.1,1    c0.2,0.3,0.6,0.6,0.9,0.5l4.1,0L12.3,66c0,0.5,0.5,1,1,1h8c0.3,0,0.5-0.1,0.7-0.3c0.2-0.2,0.3-0.4,0.3-0.7l-0.1-13.4l4.1,0    c0.4,0,0.7-0.2,0.9-0.6c0.2-0.3,0.1-0.7-0.1-1L18,38.7z M21.2,50.6c-0.3,0-0.5,0.1-0.7,0.3c-0.2,0.2-0.3,0.4-0.3,0.7L20.3,65h-6    l-0.1-13.3c0-0.6-0.4-1-1-1l-3.1,0l7.1-9.7l7.2,9.6L21.2,50.6z"></path></g></g></svg>